<svg xmlns="http://www.w3.org/2000/svg" xmlns:xlink="http://www.w3.org/1999/xlink" version="1.1" id="Layer_1" x="0" y="0" width="50" height="50" viewBox="0" enable-background="new 0 0 50 50" xml:space="preserve">
  <path fill="#231F20" d="M49.74 42.47c-1.09 0-2.13-0.24-3.06-0.67 -0.95-0.43-2.03-0.69-3.15-0.69 -1.13 0-2.21 0.26-3.16 0.69 -0.93 0.43-1.97 0.67-3.06 0.67 -1.09 0-2.13-0.24-3.06-0.67 -0.97-0.43-2.05-0.69-3.16-0.69 -1.13 0-2.2 0.26-3.16 0.69 -0.93 0.43-1.98 0.67-3.06 0.67 -1.09 0-2.13-0.24-3.07-0.67 -0.95-0.43-2.03-0.69-3.15-0.69 -1.13 0-2.2 0.26-3.16 0.69 -0.93 0.43-1.98 0.67-3.07 0.67 -1.07 0-2.13-0.24-3.05-0.67 -0.95-0.43-2.03-0.69-3.16-0.69 -1.12 0-2.19 0.26-3.15 0.69C2.13 42.22 1.09 42.47 0 42.47v-4.59c1.09 0 2.13-0.25 3.07-0.66 0.96-0.44 2.03-0.7 3.15-0.7 1.13 0 2.2 0.26 3.16 0.71 0.93 0.41 1.98 0.66 3.06 0.66 1.09 0 2.15-0.25 3.07-0.66 0.96-0.44 2.03-0.7 3.16-0.7 1.12 0 2.19 0.26 3.15 0.71 0.94 0.41 1.98 0.66 3.07 0.66 1.08 0 2.13-0.25 3.06-0.66 0.96-0.44 2.03-0.7 3.16-0.7 1.11 0 2.19 0.26 3.16 0.71 0.93 0.41 1.97 0.66 3.06 0.66 1.09 0 2.13-0.25 3.06-0.66 0.95-0.44 2.03-0.7 3.16-0.7 1.13 0 2.2 0.26 3.16 0.71 0.93 0.41 1.97 0.66 3.06 0.66V42.47z"/>
  <path fill="#231F20" d="M42.54 29.48c3.27 0 5.92-2.66 5.92-5.93 0-3.27-2.65-5.92-5.92-5.92 -3.27 0-5.92 2.65-5.92 5.92C36.62 26.81 39.03 29.48 42.54 29.48z"/>
  <path fill="#231F20" d="M8.07 32.81c0.46 0.11 0.89 0.27 1.3 0.46 0.93 0.42 1.98 0.67 3.05 0.67 1.09 0 2.15-0.25 3.07-0.67 0.96-0.43 2.03-0.71 3.16-0.71 1.12 0 2.19 0.27 3.15 0.71 0.94 0.42 1.98 0.67 3.07 0.67 1.08 0 2.13-0.25 3.06-0.67 0.96-0.43 2.03-0.71 3.16-0.71 1.11 0 2.19 0.27 3.16 0.71 0.93 0.42 1.97 0.67 3.06 0.67 0.79 0 1.56-0.13 2.28-0.36l-9.87-17.82 11.48-2.1c1.68-0.32 2.91-1.64 2.91-3.34 0-1.87-1.52-3.37-3.38-3.37 -0.13 0-0.26 0-0.38 0.01l-17.73 3.23c-1.25 0.29-2.89 2.11-1.95 4.35 0.05 0.12 0.1 0.24 0.15 0.36l4.63 8.36L8.07 32.81z"/>
</svg>
