<svg version="1.1" id="Layer_1" xmlns="http://www.w3.org/2000/svg" xmlns:xlink="http://www.w3.org/1999/xlink" x="0px" y="0px" width="50px" height="50px" viewBox="0 0 50 50" enable-background="new 0 0 50 50" xml:space="preserve">
  <g>
    <g>
      <g>
        <path class="bathroomsvg" fill="#404040" d="M16.862 37.585c-0.88-0.091-1.799-0.223-2.809-0.405 -0.138-0.024-0.278 0.017-0.38 0.11 -0.104 0.095-0.155 0.231-0.142 0.369 0.029 0.304 0.03 0.567 0.003 0.783 -0.002 0.025-0.004 0.052-0.002 0.076 0 0.002 0.002 0.074 0 0.183 -0.352-0.114-0.724-0.179-1.105-0.179 -1.654 0-2.999 1.072-2.999 2.391 0 1.317 1.345 2.39 2.999 2.39 0.823 0 1.595-0.265 2.169-0.746 -0.023 0.02-0.049 0.035-0.074 0.05 1.005-0.543 1.758-1.285 2.178-2.146 0.366-0.754 0.566-1.619 0.56-2.438C17.259 37.796 17.088 37.606 16.862 37.585zM12.374 40.028c-0.973 0.047-1.361 0.746-1.378 0.775l0.001-0.002c-0.072 0.138-0.241 0.19-0.38 0.119 -0.136-0.071-0.19-0.241-0.118-0.378 0.021-0.042 0.545-1.013 1.849-1.075 0.154-0.007 0.286 0.112 0.294 0.268C12.649 39.89 12.529 40.021 12.374 40.028z"/>
        <path class="bathroomsvg" fill="#404040" d="M37.298 38.522c-0.382 0-0.755 0.064-1.107 0.179 0-0.108 0.002-0.181 0.002-0.183 0-0.024 0-0.051-0.003-0.076 -0.03-0.236-0.027-0.524 0.008-0.854 0.016-0.139-0.035-0.275-0.136-0.37 -0.1-0.096-0.239-0.138-0.377-0.115 -0.998 0.163-1.924 0.294-2.827 0.4 -0.219 0.025-0.386 0.208-0.392 0.429 -0.021 0.848 0.177 1.745 0.558 2.528 0.418 0.858 1.169 1.6 2.171 2.142 0.566 0.45 1.307 0.701 2.104 0.701 1.653 0 2.998-1.072 2.998-2.39C40.296 39.595 38.951 38.522 37.298 38.522zM39.104 40.921c-0.137 0.071-0.307 0.019-0.377-0.119l0.001 0.002c-0.017-0.029-0.405-0.729-1.38-0.775 -0.154-0.008-0.274-0.139-0.267-0.293 0.007-0.155 0.139-0.274 0.293-0.268 1.306 0.062 1.827 1.033 1.85 1.075C39.296 40.68 39.243 40.85 39.104 40.921z"/>
      </g>
      <path class="bathroomsvg" fill="#404040" d="M24.861 26.046c-5.522 0-16.486-0.23-21.744-1.933 0.577 0.853 0.968 1.853 1.232 2.412 1.052 2.229 1.772 4.592 3.896 6.417 0.887 0.762 2.103 1.425 3.266 1.879 0.76 0.293 1.552 0.532 2.359 0.726 0.497 0.118 1.009 0.206 1.518 0.296 0.938 0.169 1.884 0.312 2.843 0.41 1.487 0.151 2.988 0.233 4.463 0.291 0.053 0.001 0.106 0.004 0.158 0.005 2.903 0.105 5.786-0.041 8.646-0.379 0.952-0.111 1.9-0.248 2.848-0.403 0.244-0.041 0.49-0.068 0.734-0.111 2.362-0.415 4.724-1.269 6.4-2.713 2.123-1.825 2.844-4.188 3.896-6.417 0.264-0.559 0.655-1.559 1.232-2.412C41.351 25.815 30.386 26.046 24.861 26.046z"/>
    </g>
    <path class="bathroomsvg" fill="#404040" d="M10.24 7.272c0.11-0.161 0.331-0.202 0.492-0.091 2.133 1.469 2.503 3.763 2.519 3.86 0.029 0.192-0.103 0.373-0.296 0.402 -0.192 0.029-0.373-0.103-0.402-0.296v0c-0.003-0.021-0.348-2.095-2.222-3.384C10.17 7.652 10.13 7.433 10.24 7.272z"/>
    <path class="bathroomsvg" fill="#404040" d="M24.862 13.346c-5.057 0-14.675 0.242-20.299 1.917 0.762-2.586 1.984-5.357 3.211-5.735C8.646 9.26 9.327 9.276 9.8 9.576c0.674 0.426 0.952 1.417 1.002 1.763l-0.001-0.011c0.1 0.774 0.807 1.321 1.58 1.222 0.775-0.098 1.322-0.807 1.223-1.581 -0.033-0.257-0.377-2.548-2.262-3.763 -0.831-0.536-2.268-1.036-4.399-0.379 -3.663 1.126-5.312 8.177-5.671 9.944 -0.702 0.545-1.104 1.176-1.104 1.906 0 1.233 1.138 2.183 2.95 2.911 5.257 2.125 16.222 2.415 21.744 2.415s16.488-0.289 21.746-2.415c1.811-0.728 2.948-1.678 2.948-2.911C49.557 13.866 32.287 13.346 24.862 13.346zM40.606 18.013c-2.762 0.698-7.987 1.387-15.744 1.387s-12.983-0.688-15.745-1.387c-0.643-0.162-1.155-0.325-1.536-0.48 2.724-0.784 8.631-1.681 17.281-1.681s14.557 0.897 17.28 1.681C41.763 17.688 41.25 17.851 40.606 18.013z"/>
  </g>
</svg>
