<svg version="1.1" id="Layer_1" xmlns="http://www.w3.org/2000/svg" xmlns:xlink="http://www.w3.org/1999/xlink" x="0px" y="0px" width="50px" height="50px" viewBox="0 0 50 50" enable-background="new 0 0 50 50" xml:space="preserve">
  <g>
    <path class="bedroomsvg" fill="#404040" d="M20.829 22.524c0-0.058 0.015-0.112 0.016-0.169h-0.027c0.008 0.1 0.009 0.202 0.012 0.304V22.524z"/>
    <path class="bedroomsvg" fill="#404040" d="M48.762 20.876h-5.521c-0.362 0-0.656 0.293-0.656 0.656v0.249c-0.275-0.552-0.84-0.936-1.498-0.936H25.241c-0.868 0-1.575 0.665-1.662 1.509 -0.006 0.056-0.018 0.112-0.018 0.169v16.152c0 0.497 0.223 0.94 0.566 1.247 0.297 0.267 0.684 0.434 1.113 0.434h15.846c0.429 0 0.816-0.167 1.115-0.434 0.157-0.142 0.288-0.312 0.383-0.504v5.368c0 0.361 0.294 0.655 0.656 0.655h5.521c0.362 0 0.655-0.294 0.655-0.655V21.532C49.417 21.169 49.124 20.876 48.762 20.876z"/>
    <path class="bedroomsvg" fill="#404040" d="M20.829 22.658v0.204h0.008C20.837 22.793 20.831 22.726 20.829 22.658z"/>
    <path class="bedroomsvg" fill="#404040" d="M20.829 38.676V37.19H6.96V25.087h13.869v-2.429c-0.003-0.102-0.004-0.204-0.012-0.304 -0.199-2.845-2.049-5.074-4.306-5.074h-6.069c-1.51 0-2.838 1-3.611 2.515V4.842c0-0.363-0.293-0.656-0.656-0.656h-5.52C0.293 4.186 0 4.479 0 4.842v40.134c0 0.361 0.293 0.655 0.655 0.655h5.52c0.363 0 0.656-0.294 0.656-0.655v-5.054H21.03C20.912 39.524 20.829 39.112 20.829 38.676z"/>
  </g>
</svg>
