<svg xmlns="http://www.w3.org/2000/svg" xmlns:xlink="http://www.w3.org/1999/xlink" version="1.1" id="Layer_1" x="0" y="0" width="50" height="50" viewBox="0" enable-background="new 0 0 50 50" xml:space="preserve">
  <g id="layer1" transform="translate(0,-952.362)">
    <path id="path4390-3" fill="#010101" d="M39.7 976.97c0-2.35-1.49-4.36-3.57-5.15 0.87-0.97 1.37-2.23 1.37-3.64 0-3.03-2.46-5.49-5.49-5.49 -0.43 0-0.83 0.04-1.24 0.14 -0.46-2.57-2.65-4.53-5.35-4.53 -2.7 0-4.89 1.96-5.35 4.53 -0.4-0.09-0.8-0.14-1.24-0.14 -3.03 0-5.49 2.46-5.49 5.49 0 1.4 0.51 2.67 1.37 3.64 -2.08 0.78-3.57 2.8-3.57 5.15 0 3.03 2.2 5.49 5.49 5.49h1.1l4.39 7.68v5.49c0 1.1 1.1 2.19 2.19 2.19h2.19c1.1 0 2.19-1.1 2.19-2.19v-5.49l4.39-7.68 1.58-0.03C37.5 982.46 39.7 979.83 39.7 976.97L39.7 976.97zM22.14 982.46h6.58l-2.19 4.39h-2.19L22.14 982.46z"/>
  </g>
</svg>
