<svg xmlns="http://www.w3.org/2000/svg" xmlns:xlink="http://www.w3.org/1999/xlink" version="1.1" id="Layer_1" x="0px" y="0px" width="50px" height="50px" viewBox="0 0 50 50" enable-background="new 0 0 50 50" xml:space="preserve">
<path fill="#010101" d="M43.046 22.791l-3.489-3.487v-8.544c0-1.323-1.083-2.406-2.406-2.406h-2.406 c-1.323 0-2.406 1.083-2.406 2.406v1.331l-4.812-4.808c-0.658-0.621-1.259-1.335-2.403-1.335c-1.147 0-1.749 0.714-2.406 1.3 L7.195 22.791c-0.751 0.783-1.323 1.354-1.323 2.406c0 1.4 1 2.4 2.4 2.407h2.406v14.438c0 1.3 1.1 2.4 2.4 2.4 h7.219V32.416c0-1.323 1.083-2.406 2.406-2.406h4.809c1.323 0 2.4 1.1 2.4 2.406v12.031h7.219 c1.323 0 2.406-1.083 2.406-2.406V27.604h2.406c1.367 0 2.406-1.053 2.406-2.407C44.369 24.1 43.8 23.6 43 22.791z"/>
</svg>
