<svg xmlns="http://www.w3.org/2000/svg" xmlns:xlink="http://www.w3.org/1999/xlink" version="1.1" id="Layer_1" x="0px" y="0px" width="50px" height="50px" viewBox="0 0 50 50" enable-background="new 0 0 50 50" xml:space="preserve">
<path fill="#020202" d="M30.218 16.007c1.855 0.4 3.3 2 3.8 3.733c0.146 0.8 0.8 1.4 1.7 1.4 c0.944 0 1.716-0.772 1.716-1.716c0-1.235-1.038-3.115-2.454-4.522c-1.391-1.374-3.047-2.343-4.41-2.343 c-0.944 0-1.718 0.798-1.718 1.742C28.802 15.2 29.4 15.9 30.2 16.007z M6.628 38.507c-1.33 1.33-1.33 3.5 0 4.8 c1.331 1.3 3.5 1.3 4.8 0l9.861-9.852c2.299 1.4 5 2.3 7.9 2.266c8.299 0 15.019-6.721 15.019-15.017 c0-8.299-6.72-15.019-15.019-15.019c-8.296 0-15.016 6.72-15.016 15.019c0 2.9 0.8 5.6 2.3 7.927L6.628 38.507z M18.506 20.728C18.506 14.8 23.3 10 29.2 10c5.922 0 10.7 4.8 10.7 10.728c0 5.919-4.806 10.726-10.728 10.7 C23.312 31.5 18.5 26.6 18.5 20.728z"/>
</svg>
