<?xml version="1.0" encoding="utf-8"?>
<!-- Generator: Adobe Illustrator 16.0.0, SVG Export Plug-In . SVG Version: 6.00 Build 0)  -->
<!DOCTYPE svg PUBLIC "-//W3C//DTD SVG 1.1//EN" "http://www.w3.org/Graphics/SVG/1.1/DTD/svg11.dtd">
<svg version="1.1" id="Layer_1" xmlns="http://www.w3.org/2000/svg" xmlns:xlink="http://www.w3.org/1999/xlink" x="0px" y="0px"
	 width="50px" height="50px" viewBox="0 0 50 50" enable-background="new 0 0 50 50" xml:space="preserve">
<path fill="#404040" d="M38.596,18.958c-0.005-0.056-0.009-0.112-0.012-0.168c0,0,0,0.001,0.001,0.001
	c-0.248-6.032-4.591-11.34-10.472-12.74c-5.48-1.305-11.349,0.97-14.514,5.627c-2.446,3.599-3.022,8.296-1.508,12.375
	c1.402,3.777,4.441,6.845,8.245,8.201l4.067,11.51c0.171,0.485,0.881,0.485,1.052,0l4.064-11.511
	c2.632-0.941,4.929-2.684,6.534-4.971C37.707,24.932,38.805,21.861,38.596,18.958C38.591,18.902,38.605,19.087,38.596,18.958z
	 M28.861,21.225c-0.666,2.137-2.979,3.384-5.128,2.736c-2.161-0.651-3.412-2.986-2.768-5.146c0.645-2.167,2.995-3.436,5.16-2.784
	C28.317,16.69,29.543,19.054,28.861,21.225C28.338,22.907,28.983,20.835,28.861,21.225z"/>
</svg>
