<?xml version="1.0" encoding="utf-8"?>
<!-- Generator: Adobe Illustrator 16.0.0, SVG Export Plug-In . SVG Version: 6.00 Build 0)  -->
<!DOCTYPE svg PUBLIC "-//W3C//DTD SVG 1.1//EN" "http://www.w3.org/Graphics/SVG/1.1/DTD/svg11.dtd">
<svg version="1.1" id="Layer_1" xmlns="http://www.w3.org/2000/svg" xmlns:xlink="http://www.w3.org/1999/xlink" x="0px" y="0px"
	 width="50px" height="50px" viewBox="0 0 50 50" enable-background="new 0 0 50 50" xml:space="preserve">
<g>
	<path fill="#404040" d="M49.867,34.916l-0.008-20.03c0-1.781-1.449-3.231-3.23-3.231L3.554,11.671
		c-1.782,0-3.231,1.451-3.229,3.231l0.007,20.03c0.002,1.783,1.45,3.231,3.233,3.23l43.074-0.017
		C48.419,38.146,49.869,36.695,49.867,34.916z M4.208,34.285L4.201,15.548l41.782-0.015l0.007,18.738L4.208,34.285z"/>
	<path fill="#404040" d="M24.16,21.79c0,0.283,0.167,0.589,0.491,0.908c0.042,0.042,0.1,0.081,0.147,0.122v-2.006
		c-0.126,0.062-0.242,0.131-0.339,0.226C24.256,21.237,24.16,21.475,24.16,21.79z"/>
	<path fill="#404040" d="M26.33,26.487v2.61c0.105-0.045,0.208-0.091,0.289-0.146c0.363-0.252,0.533-0.625,0.533-1.175
		c0-0.361-0.132-0.676-0.402-0.952C26.679,26.753,26.546,26.642,26.33,26.487z"/>
	<path fill="#404040" d="M25.66,16.935c-5.961,0.001-10.791,3.703-10.789,8.265c0.004,4.562,4.836,8.257,10.795,8.255
		c5.963-0.002,10.792-3.702,10.79-8.263C36.454,20.63,31.621,16.933,25.66,16.935z M29.193,28.487
		c-0.185,0.533-0.501,0.987-0.937,1.345c-0.333,0.278-0.734,0.488-1.193,0.626c-0.256,0.077-0.498,0.13-0.733,0.171V31.6
		c0,0.271-0.221,0.492-0.493,0.492h-0.544c-0.273,0-0.494-0.221-0.494-0.492v-0.942c-0.502-0.037-0.959-0.104-1.324-0.217
		c-0.322-0.103-0.762-0.302-1.344-0.605c-0.162-0.085-0.264-0.254-0.264-0.438v-2.048c0-0.272,0.223-0.494,0.494-0.494h0.231
		c0.229,0,0.429,0.158,0.479,0.382c0.133,0.566,0.309,0.996,0.521,1.277c0.287,0.38,0.687,0.608,1.206,0.702v-3.64
		c-0.92-0.551-1.545-0.986-1.875-1.31c-0.627-0.607-0.942-1.336-0.942-2.165c0-0.724,0.31-1.383,0.919-1.96
		c0.496-0.468,1.137-0.751,1.898-0.862v-0.551c0-0.272,0.221-0.493,0.494-0.493h0.544c0.272,0,0.493,0.22,0.493,0.493v0.549
		c0.333,0.046,0.683,0.11,1.066,0.213c0.546,0.17,0.985,0.405,1.312,0.699c0.103,0.094,0.162,0.228,0.162,0.366v1.759
		c0,0.272-0.222,0.493-0.493,0.493h-0.231c-0.239,0-0.445-0.173-0.487-0.407c-0.098-0.567-0.314-0.986-0.659-1.282
		c-0.207-0.177-0.433-0.287-0.669-0.363v2.975c1.053,0.554,1.8,1.055,2.245,1.525c0.529,0.557,0.799,1.294,0.799,2.193
		C29.374,27.802,29.312,28.153,29.193,28.487z"/>
</g>
</svg>
