<?xml version="1.0" encoding="utf-8"?>
<!-- Generator: Adobe Illustrator 16.0.0, SVG Export Plug-In . SVG Version: 6.00 Build 0)  -->
<!DOCTYPE svg PUBLIC "-//W3C//DTD SVG 1.1//EN" "http://www.w3.org/Graphics/SVG/1.1/DTD/svg11.dtd">
<svg version="1.1" id="Layer_1" xmlns="http://www.w3.org/2000/svg" xmlns:xlink="http://www.w3.org/1999/xlink" x="0px" y="0px"
	 width="50px" height="50px" viewBox="0 0 50 50" enable-background="new 0 0 50 50" xml:space="preserve">
<path fill="#020202" d="M30.218,16.007c1.855,0.429,3.33,2.008,3.759,3.733c0.146,0.807,0.85,1.416,1.691,1.416
	c0.944,0,1.716-0.772,1.716-1.716c0-1.235-1.038-3.115-2.454-4.522c-1.391-1.374-3.047-2.343-4.41-2.343
	c-0.944,0-1.718,0.798-1.718,1.742C28.802,15.157,29.411,15.861,30.218,16.007z M6.628,38.507c-1.33,1.33-1.33,3.494,0,4.823
	c1.331,1.331,3.494,1.331,4.815,0l9.861-9.852c2.299,1.434,5.009,2.266,7.927,2.266c8.299,0,15.019-6.721,15.019-15.017
	c0-8.299-6.72-15.019-15.019-15.019c-8.296,0-15.016,6.72-15.016,15.019c0,2.909,0.833,5.628,2.266,7.927L6.628,38.507z
	 M18.506,20.728C18.506,14.806,23.312,10,29.231,10c5.922,0,10.728,4.807,10.728,10.728c0,5.919-4.806,10.726-10.728,10.726
	C23.312,31.453,18.506,26.646,18.506,20.728z"/>
</svg>
