<?xml version="1.0" encoding="utf-8"?>
<!-- Generator: Adobe Illustrator 16.0.0, SVG Export Plug-In . SVG Version: 6.00 Build 0)  -->
<!DOCTYPE svg PUBLIC "-//W3C//DTD SVG 1.1//EN" "http://www.w3.org/Graphics/SVG/1.1/DTD/svg11.dtd">
<svg version="1.1" id="Layer_1" xmlns="http://www.w3.org/2000/svg" xmlns:xlink="http://www.w3.org/1999/xlink" x="0px" y="0px"
	 width="50px" height="50px" viewBox="0 0 50 50" enable-background="new 0 0 50 50" xml:space="preserve">
<g id="layer1" transform="translate(0,-952.362)">
	<path id="path4390-3" fill="#010101" d="M39.697,976.967c0-2.35-1.492-4.362-3.568-5.146c0.867-0.971,1.372-2.233,1.372-3.637
		c0-3.031-2.457-5.489-5.488-5.489c-0.433,0-0.831,0.042-1.235,0.137c-0.459-2.567-2.652-4.528-5.348-4.528
		c-2.696,0.001-4.889,1.962-5.349,4.529c-0.403-0.095-0.803-0.136-1.235-0.136c-3.031,0-5.489,2.457-5.489,5.488
		c0,1.403,0.506,2.666,1.372,3.637c-2.075,0.783-3.568,2.795-3.568,5.145c0,3.029,2.196,5.488,5.489,5.488h1.097l4.392,7.684v5.488
		c0,1.098,1.098,2.195,2.195,2.195h2.188c1.098,0,2.195-1.098,2.195-2.195v-5.489l4.393-7.683l1.577-0.033
		C37.501,982.455,39.697,979.831,39.697,976.967L39.697,976.967z M22.14,982.455h6.579l-2.195,4.391h-2.188L22.14,982.455z"/>
</g>
</svg>
