<svg id="twittersvg" xmlns="http://www.w3.org/2000/svg" xmlns:xlink="http://www.w3.org/1999/xlink" version="1.1" x="0px" y="0px" width="512px" height="512px" viewBox="0 0 512 512" enable-background="new 0 0 512 512" xml:space="preserve">

<path id="twitter-icon" d="M462 128.223c-15.158 6.724-31.449 11.269-48.547 13.31c17.449-10.461 30.854-27.025 37.164-46.764 c-16.333 9.687-34.422 16.721-53.676 20.511c-15.418-16.428-37.386-26.691-61.698-26.691c-54.56 0-94.668 50.916-82.337 103.8 c-70.25-3.524-132.534-37.177-174.223-88.314c-22.142 37.983-11.485 87.7 26.2 112.85c-13.854-0.438-26.891-4.241-38.285-10.574 c-0.917 39.2 27.1 75.8 67.8 83.949c-11.896 3.237-24.926 3.978-38.17 1.447c10.754 33.6 42 58 79 58.7 C139.604 378.3 94.8 390.7 50 385.436c37.406 24 81.8 38 129.6 37.977c156.932 0 245.595-132.551 240.251-251.435 C436.339 160.1 450.7 145.2 462 128.223z"/>

</svg>
