<?xml version="1.0" standalone="no"?>
<!DOCTYPE svg PUBLIC "-//W3C//DTD SVG 1.1//EN" "http://www.w3.org/Graphics/SVG/1.1/DTD/svg11.dtd" >
<svg xmlns="http://www.w3.org/2000/svg">
<metadata></metadata>
<defs>
<font id="berthold_akzidenz_groteskLtCn" horiz-adv-x="641" >
<font-face units-per-em="2048" ascent="1638" descent="-410" />
<missing-glyph horiz-adv-x="468" />
<glyph unicode="&#xfb01;" horiz-adv-x="681" d="M35 948v84h123v207q0 21 3 55q3 36 19 69q16 34 54 58q39 25 106 25q19 0 27 -1q16 -2 26 -3v-80q-14 2 -17 2h-18q-43 0 -67 -15t-35 -37q-10 -21 -12 -43q-2 -28 -2 -34v-203h127v-84h-131v-948h-86v948h-117zM489 0v1032h86v-1032h-86zM489 1151v160h86v-160h-86z" />
<glyph unicode="&#xfb02;" horiz-adv-x="681" d="M35 948v84h123v207q0 21 3 55q3 36 19 69q16 34 54 58q39 25 106 25q19 0 27 -1l24 -3v-80q-14 2 -17 2h-18q-42 0 -66 -15q-23 -14 -34 -37q-10 -21 -12 -43q-2 -28 -2 -34v-203h127v-84h-131v-948h-86v948h-117zM489 0v1446h89v-1446h-89z" />
<glyph horiz-adv-x="2048" />
<glyph horiz-adv-x="2048" />
<glyph unicode="&#xd;" horiz-adv-x="468" />
<glyph unicode=" "  horiz-adv-x="468" />
<glyph unicode="&#x09;" horiz-adv-x="468" />
<glyph unicode="&#xa0;" horiz-adv-x="468" />
<glyph unicode="!" horiz-adv-x="382" d="M186 676v770h101v-787l-25 -278h-55zM188 0v184h93v-184h-93z" />
<glyph unicode="&#x22;" horiz-adv-x="811" d="M154 1448q0 50 27 68t55 18q29 0 57 -23q26 -22 20 -65l-65 -520h-35l-57 493q0 11 -1 15t-1 14zM496 1448q0 50 28 68t54 18q32 0 58 -23q25 -22 19 -65l-65 -520h-35l-57 493q0 11 -1 16t-1 13z" />
<glyph unicode="#" horiz-adv-x="1193" d="M12 539v84h363l31 227h-347v84h359l69 512h88l-67 -512h237l74 512h82l-67 -512h348v-84h-361l-33 -227h351v-84h-363l-78 -539h-86l78 539h-239l-78 -539h-86l75 539h-350zM463 623h237l33 227h-237z" />
<glyph unicode="$" horiz-adv-x="768" d="M96 436h92v-83q0 -26 2 -58q1 -10 6 -42q3 -17 9 -34q12 -37 33 -61q24 -27 47 -40q31 -17 53 -22q27 -6 51 -6q58 0 105 29q59 37 75 92q17 57 17 115t-13 105q-12 44 -41 85q-30 42 -75 86q-48 47 -115 109q-78 69 -111 110q-42 51 -62 93q-22 46 -28 88q-6 44 -6 100 q0 88 23 142t56 81q35 29 74 39q34 9 72 14v74h60v-74q83 -12 129 -44q44 -31 66 -79q22 -49 25 -105q3 -58 3 -122h-96q0 42 -2 106q-1 45 -18 83q-15 35 -48 53t-92 18t-89 -20q-31 -21 -46 -49q-14 -27 -16 -61q0 -7 -1.5 -26t-1.5 -28q0 -54 8 -94q8 -39 33 -77 q26 -39 78 -91q42 -42 140 -135q48 -45 92 -100q37 -46 58 -89q23 -47 31 -88q9 -45 9 -96q0 -33 -4 -77q-4 -48 -29 -102q-24 -53 -77 -97q-52 -43 -150 -58v-141h-62v139q-68 10 -126 42q-59 32 -93 91q-36 62 -40 130q-5 78 -5 175z" />
<glyph unicode="%" horiz-adv-x="1193" d="M41 752v475q0 25 3 62q3 36 22 74q18 36 58 61q41 26 114 26q66 0 104 -23q36 -22 53 -57q17 -36 20 -76t3 -78v-466q0 -18 -3 -56q-3 -36 -21 -72q-18 -37 -55 -63q-37 -27 -108 -27q-70 0 -110 28q-37 26 -56 65q-18 38 -21 73q-3 38 -3 54zM119 760q0 -10 2 -44 q1 -25 12 -49q10 -22 33 -41q22 -18 65 -18q63 0 87 42t24 100v475q0 15 -2 51q-1 26 -12 47q-10 20 -33 34q-22 13 -64 13q-44 0 -65 -14q-23 -15 -33 -34q-11 -20 -12 -42q-2 -30 -2 -39v-481zM186 -119l750 1727q16 -6 28 -12q18 -9 25 -13l-751 -1726q-3 2 -7 4t-10 4.5 t-9 4.5q-4 2 -9 4l-10 4t-7 3zM766 211v473q0 24 3 62q3 36 22 74q19 37 58 62q40 25 114 25q67 0 104 -22q35 -21 53 -58q17 -36 20 -75q3 -40 3 -78v-467q0 -17 -3 -55q-3 -37 -21 -73q-18 -37 -55 -63q-36 -26 -108 -26q-71 0 -110 27t-57 65q-17 35 -20 74q-3 38 -3 55z M844 217q0 -8 2 -42q2 -26 12 -50t33 -42q21 -17 65 -17q63 0 87 42t24 99v477q0 16 -2 50q-1 25 -12 46q-10 20 -33 34q-22 13 -64 13q-44 0 -65 -14q-23 -15 -33 -34t-12 -42q-2 -30 -2 -39v-481z" />
<glyph unicode="&#x26;" horiz-adv-x="894" d="M66 270q0 65 16 119q16 53 44 105q25 46 62 94q34 45 72 90q-19 56 -46 150q-24 82 -24 178q0 52 12 95q12 44 36 77t61 52t88 19q74 0 124 -45t50 -133q0 -97 -57 -192q-51 -85 -144 -207q39 -85 101 -210q54 -109 153 -269q37 49 58 107q19 54 29 122q11 75 12 134 q1 70 0 144h90q0 -112 -6 -196q-6 -79 -22 -151q-15 -66 -41 -121q-27 -56 -62 -103q20 -16 52 -34q30 -17 91 -17h22q7 0 21 2v-84q-52 0 -90 3q-41 3 -65 10q-29 8 -49 21q-33 21 -46 31q-26 -21 -82 -51q-52 -28 -155 -28q-143 0 -224 77t-81 211zM156 283q0 -14 4 -45 q5 -37 25 -73q22 -39 67 -69t127 -30q74 0 111 19q39 20 61 38q-80 126 -141 238q-68 125 -111 223q-26 -31 -49 -64q-27 -39 -46 -74q-23 -42 -35 -79q-13 -39 -13 -84zM274 1001q0 -17 9 -93q7 -59 43 -142q23 30 46 62q27 38 48 76q24 43 38 81q15 41 15 82q0 45 -22 74 q-23 30 -70 30q-43 0 -63 -23q-21 -25 -30 -53q-11 -36 -12 -58z" />
<glyph unicode="'" horiz-adv-x="425" d="M133 1448q0 24 9 42t24 27q14 8 28 13q12 4 23 4q27 0 55 -22q27 -21 21 -66l-66 -520h-34l-58 493q0 11 -1 15t-1 14z" />
<glyph unicode="(" horiz-adv-x="468" d="M59 596q0 94 18 207q18 115 64 237q26 69 62 141q30 59 62 107q31 46 64 85q42 50 62 75v-115q-14 -21 -41 -57q-22 -29 -45 -74q-26 -51 -47 -100q-26 -61 -47 -135q-59 -187 -59 -383q0 -98 17 -200q18 -107 42 -196q23 -78 44 -127q23 -53 48 -97q24 -42 48 -75 t42 -57v-117q-24 27 -51 57q-29 32 -54 67q-35 48 -56 86q-29 52 -56 114q-19 42 -39 100q-18 53 -38 131q-13 54 -28 154q-12 83 -12 172z" />
<glyph unicode=")" horiz-adv-x="468" d="M76 1331v119q47 -49 105 -124q55 -72 112 -202q19 -42 39 -100q18 -52 38 -131q13 -54 28 -154q12 -82 12 -170q0 -99 -18 -210q-19 -114 -64 -236q-25 -65 -62 -140q-31 -63 -62 -108q-31 -46 -64 -85q-42 -50 -62 -73v115q14 21 41 57q22 29 45 74q26 51 47 100 q25 59 47 136q59 186 59 381q0 98 -17 200q-19 112 -42 195q-39 140 -92 225q-48 78 -90 131z" />
<glyph unicode="*" horiz-adv-x="555" d="M53 1251l21 68l166 -47v174h73v-174l168 55l23 -63l-170 -64l102 -141l-57 -43l-105 141l-92 -141l-61 43l98 145z" />
<glyph unicode="+" horiz-adv-x="1024" d="M63 551v90h406v399h90v-399h399v-90h-399v-404h-90v404h-406z" />
<glyph unicode="," horiz-adv-x="299" d="M102 -139q31 22 41 46q11 27 11 93h-50v186h93v-186q0 -48 -8 -80t-19 -51t-30 -32q-12 -8 -38 -21v45z" />
<glyph unicode="-" horiz-adv-x="512" d="M76 555v88h362v-88h-362z" />
<glyph unicode="." horiz-adv-x="299" d="M106 0v184h91v-184h-91z" />
<glyph unicode="/" d="M70 0l409 1446h92l-407 -1446h-94z" />
<glyph unicode="0" horiz-adv-x="724" d="M74 326v804q0 24 5 82q4 51 33 107q27 52 89 93q61 40 174 40q59 0 104 -15q43 -14 80 -40q17 -14 38 -36q17 -19 31 -52q12 -29 20 -81q7 -45 7 -120v-799q0 -108 -33 -165q-34 -60 -81 -93q-46 -33 -97 -42q-50 -9 -79 -9q-52 0 -98 13q-47 13 -85 42q-66 50 -87 121 q-21 72 -21 150zM168 346q0 -57 7 -106q8 -56 50 -95q32 -32 70 -44q34 -11 67 -11q37 0 73 12q37 12 64 39t45 68q17 38 17 98v838q0 74 -18 116q-17 41 -47 64q-29 23 -63 29t-62 6q-76 0 -117 -26t-60 -62q-20 -39 -23 -76q-3 -39 -3 -66v-784z" />
<glyph unicode="1" horiz-adv-x="724" d="M102 1155v80q105 16 166 74q59 56 82 129h92v-1438h-102v1260q-45 -36 -68 -51q-25 -16 -58 -29q-31 -12 -55 -16q-8 -1 -17.5 -2.5t-21.5 -3.5z" />
<glyph unicode="2" horiz-adv-x="724" d="M84 0v104q0 22 26 71q27 51 60 104q34 55 72 108q15 21 37.5 54t23.5 34q80 115 118 181q42 74 66 144q23 68 29 132q6 66 6 149q0 22 -2 88q-1 48 -17 93q-14 41 -47 71q-32 29 -91 29q-60 0 -96 -28q-34 -27 -49 -70q-16 -45 -17 -94q-2 -66 -2 -93v-98h-90v137 q0 45 4 96q5 62 27 110q23 51 75 89q50 37 145 37q31 0 73 -9q41 -9 83 -40q54 -42 75 -106q21 -65 21 -179q0 -120 -7 -194q-7 -80 -33 -156q-26 -78 -77 -161q-50 -81 -143 -210q-51 -70 -76 -107q-44 -66 -47 -71q-16 -27 -30 -58q-23 -53 -31 -71h453v-86h-539z" />
<glyph unicode="3" horiz-adv-x="724" d="M72 440h90q1 -28 2.5 -71.5t1.5 -49.5q1 -37 7 -82q4 -30 13 -57q7 -20 23 -43q23 -29 60 -48t91 -19q36 0 70 12q37 13 63 39q28 28 44 70t16 106q0 89 -2 175q-1 62 -14 103q-16 51 -52 80q-36 30 -77 44q-49 17 -89 21q-64 6 -77 7v94q131 0 200 60q70 61 70 151v121 q0 39 -4 72q-4 34 -20 66q-14 29 -47 49q-32 20 -89 20t-88 -22q-30 -21 -45 -50q-14 -28 -16 -61q-2 -44 -2 -53v-154h-90v158q0 31 4 72q5 48 26 89q22 43 74 75t143 32q94 0 143 -34q50 -35 72 -79q22 -45 27 -89q4 -39 4 -64v-140q0 -73 -20 -116q-21 -44 -53 -75 q-32 -30 -67 -45q-5 -2 -30 -12.5t-37 -15.5q39 -8 80 -22q43 -15 80 -46q36 -30 61 -91t25 -154v-154q0 -29 -4 -76q-4 -51 -32 -108q-26 -54 -87 -98q-59 -43 -168 -43q-21 0 -54 5q-28 4 -60 17q-31 12 -61 35t-52 59q-17 27 -27 57q-11 30 -15 67q-6 48 -7 90 q0 9 -1.5 53t-2.5 73z" />
<glyph unicode="4" horiz-adv-x="724" d="M39 461v94l373 881h127v-889h172v-86h-172v-461h-93v461h-407zM131 547h313v756z" />
<glyph unicode="5" horiz-adv-x="724" d="M94 309v146h90v-113q0 -32 2 -94q1 -42 18 -84q15 -37 49 -61q33 -23 95 -23q68 0 104 24q34 23 52 66q16 39 19 95q3 54 3 114v299q0 24 -3 60q-3 35 -18 70q-13 31 -46 57q-30 24 -88 24q-65 0 -99 -24q-35 -24 -51 -55q-16 -30 -19 -66q-3 -34 -3 -54h-76v750h475v-88 h-383v-430q25 16 67 36q40 19 97 19q89 0 138 -41q48 -41 71 -95q21 -51 26 -110q4 -49 4 -82v-270q0 -67 -4 -128q-5 -70 -28 -126q-24 -56 -78 -95q-53 -38 -152 -38q-98 0 -151 35q-55 36 -78 84q-25 51 -29 103q-4 48 -4 95z" />
<glyph unicode="6" horiz-adv-x="724" d="M98 330v825q0 79 20 134q20 54 60 93q2 1 10 7.5t14 11.5q14 11 41 24q31 15 62 22q38 9 88 9q81 0 132 -25q53 -26 77 -59q41 -50 47 -120t6 -189l-92 -2q0 61 -3 118q-3 58 -19 97q-16 40 -52 65t-100 25q-29 0 -63 -9q-35 -9 -64 -32q-25 -19 -41 -45q-13 -21 -20 -49 q-5 -21 -7 -48q-1 -16 -1 -44v-348q33 28 80 56q53 32 137 32q71 0 122 -30q52 -31 80 -73q15 -24 16 -26q7 -14 13 -41t9 -71t3 -114v-266q0 -87 -31 -139q-33 -54 -77 -81q-47 -28 -92 -37q-47 -9 -78 -9q-43 0 -90 11q-55 13 -99 50q-52 44 -70 110q-18 65 -18 167z M190 340q0 -17 4 -75q3 -45 19 -84t54 -68t106 -29q26 0 61 8q32 7 62 31q65 49 65 160v299q0 7 -2 53q-1 32 -17 68q-15 34 -47 60q-31 25 -92 25q-57 0 -106 -26q-23 -13 -38 -25q-22 -17 -35 -38q-15 -25 -24 -59q-10 -40 -10 -87v-213z" />
<glyph unicode="7" horiz-adv-x="724" d="M98 1350v88h553v-88q-29 -71 -59 -136q-26 -59 -54 -133q-34 -93 -52 -148q-25 -78 -52 -177q-39 -149 -66 -310q-24 -141 -24 -282v-164h-100v96q0 104 9 199q9 92 21 173q10 69 26 140q14 62 24 99q26 110 54 199q23 73 55 161q28 76 57 140l65 143h-457z" />
<glyph unicode="8" horiz-adv-x="724" d="M84 303v248q0 73 16 118t41 73q22 25 53 42q19 10 50 25q-85 40 -112 84q-28 47 -28 125v201q0 14 5 59q5 42 28 81t77 70t149 31q97 0 149 -27q52 -26 79 -69q27 -42 31 -87q5 -52 5 -83v-168q0 -55 -13 -96q-12 -38 -31 -60q-18 -20 -47 -35q-24 -12 -59 -26 q43 -18 73 -36q32 -20 53 -51q21 -32 32 -79q10 -44 10 -117v-264q0 -21 -4 -61q-5 -46 -31 -93q-27 -48 -82 -85t-159 -37q-63 0 -113 17q-54 19 -92 52q-54 51 -67 114q-13 62 -13 134zM178 322q0 -31 3 -73t21 -81q19 -41 55 -67q37 -27 110 -27q69 0 106 27q34 25 54 64 q18 36 21 72t3 52v252q0 15 -3 53q-3 35 -20 74q-16 36 -54 65t-105 29q-72 0 -111 -27q-38 -26 -56 -61q-18 -34 -21 -71q-3 -36 -3 -54v-227zM199 1018q0 -61 22 -95q23 -35 51 -50q30 -16 56 -17q7 0 15.5 -0.5t13 -1t6.5 -0.5q12 0 39 3q29 3 57 21q30 19 51 54 q22 37 22 104v144q0 28 -3 62q-3 35 -19 64t-51 49q-34 19 -101 19q-60 0 -92 -19q-33 -19 -48 -45t-17 -54q-2 -36 -2 -44v-194z" />
<glyph unicode="9" horiz-adv-x="724" d="M68 389h94v-110q0 -17 3 -51q3 -33 19 -67q17 -35 53 -59t101 -24q71 0 112 24q38 22 59 60q18 32 23 70q5 40 5 61v369q-45 -42 -100 -65q-57 -24 -115 -24q-57 0 -108 19q-48 18 -77 47q-23 23 -39 53q-13 25 -20 59q-5 27 -7 56q-1 18 -1 45v254q0 74 7 136 q8 68 48 120q42 54 103 76q62 22 126 22q16 0 42 -3q31 -4 55 -10q25 -7 58 -23q28 -14 54 -40q52 -54 61 -122q9 -69 9 -142v-819q0 -24 -1 -44q-1 -29 -9 -64q-7 -33 -26 -72q-18 -38 -50 -67t-83 -49q-48 -19 -122 -19t-139 28q-67 29 -101 90q-9 18 -19 50q-7 21 -10 56 q-2 23 -4 75q-1 29 -1 104zM166 831q0 -81 43 -124t108 -43q21 0 64 8q39 7 80 39q54 42 66 102t12 119v192q0 36 -3 80q-3 40 -22 80q-17 36 -56 61q-36 23 -108 23q-29 0 -58 -7q-34 -8 -60 -27q-29 -21 -47 -56q-19 -37 -19 -96v-351z" />
<glyph unicode=":" horiz-adv-x="382" d="M188 0v184h91v-184h-91zM188 748v184h91v-184h-91z" />
<glyph unicode=";" horiz-adv-x="382" d="M184 -139q30 22 41 46q12 27 11 93h-50v186h93v-186q0 -48 -8 -80t-19 -51t-29 -32q-11 -8 -37 -21zM186 745v187h95v-187h-95z" />
<glyph unicode="&#x3c;" horiz-adv-x="1024" d="M0 666v120l1024 521v-103l-934 -477l934 -487v-101z" />
<glyph unicode="=" horiz-adv-x="1024" d="M0 375v90h1024v-90h-1024zM0 735v90h1024v-90h-1024z" />
<glyph unicode="&#x3e;" horiz-adv-x="1024" d="M0 139v101l934 487l-934 477v103l1024 -521v-120z" />
<glyph unicode="?" horiz-adv-x="724" d="M143 1130q0 38 4 89q5 58 28 112q24 55 75 97t147 42q50 0 86 -13q35 -13 64 -35q23 -18 44 -46q16 -21 28 -49q7 -18 12 -37q7 -25 11 -51q6 -39 7 -74q2 -58 2 -106q0 -68 -6 -113q-6 -49 -20 -81q-15 -36 -35 -69q-18 -29 -51 -79q-27 -41 -51 -75q-18 -25 -28 -48 q-11 -25 -13 -37q-3 -17 -3 -41v-160h-96v168q0 34 4 54t14 45q11 27 26 50q33 50 46 68q53 79 58 86q17 26 35 66q15 33 19 64q5 38 5 83q0 72 -4 128q-4 61 -20 111q-15 49 -48 77q-32 28 -90 28t-89 -31t-46 -75q-14 -42 -16 -89q-2 -62 -2 -77q0 -39 1 -60t1 -65h-95 q-1 54 -3 85q-1 20 -1 58zM348 0v184h96v-184h-96z" />
<glyph unicode="@" horiz-adv-x="1835" d="M141 475q0 184 70 364q69 178 193 315q126 139 298 221q175 83 383 83q147 0 260 -43q114 -43 191 -122q78 -80 118 -186q40 -107 40 -237q0 -134 -39 -265q-38 -126 -104 -231q-64 -102 -149 -164q-86 -63 -175 -63q-14 0 -42 6q-20 4 -44 17q-26 17 -43 40 q-15 21 -21 45t-6 48v47q-9 -12 -47 -58q-27 -33 -68 -66q-40 -32 -89 -53t-111 -21q-42 0 -88 15q-47 15 -86 56q-30 30 -47 66q-18 37 -26 70q-10 38 -11 67q-2 40 -2 51q0 111 33 210q34 102 93 185t136 132t164 49q62 0 107 -25q46 -25 73 -58q30 -36 44 -69 q17 -39 23 -57l37 162h109l-66 -297q-4 -17 -10.5 -51t-9.5 -46q-16 -74 -20 -97q-9 -47 -15 -92q-6 -43 -6 -77q0 -44 18 -78q18 -35 64 -35q45 0 107 51q60 49 113 136q51 83 88 202q36 116 36 248q0 120 -38 216q-37 94 -109 161t-172 101q-101 34 -226 34 q-174 0 -327 -73q-154 -73 -270 -198t-183 -289q-68 -166 -68 -347q0 -162 58 -286q57 -121 154 -203q96 -81 224 -122q126 -40 267 -40q188 0 362 74q132 53 210 115q80 63 126 108l47 -53q-42 -40 -119 -105q-74 -62 -196 -117q-118 -55 -229 -77q-105 -21 -199 -21 q-152 0 -293 45q-142 45 -251 135q-108 89 -175 227q-66 137 -66 320zM621 477q0 -107 52 -168t136 -61q64 0 124 39t105 108q18 25 38 71q19 42 30 83q11 39 19 85q8 45 8 77q0 78 -23 129q-21 46 -53 75q-31 28 -65 35q-37 8 -54 8q-78 0 -137 -49q-60 -49 -100 -121 q-38 -68 -60 -156q-20 -81 -20 -155z" />
<glyph unicode="A" horiz-adv-x="768" d="M49 0l264 1454h140l262 -1454h-107l-73 440h-304l-75 -440h-107zM248 535h268l-113 669q-5 16 -9 57q-3 23 -11 80q-1 -11 -3 -29q-2 -14 -3 -30q-3 -11 -5 -33q-2 -21 -5 -32z" />
<glyph unicode="B" horiz-adv-x="768" d="M123 0v1448h260q38 0 77 -4q44 -5 82 -26q37 -21 64 -70q27 -50 27 -138v-206q0 -66 -15 -105q-16 -41 -37 -62q-23 -23 -56 -34q-42 -14 -64 -19q68 -11 110 -28q44 -18 68 -50q25 -33 34 -79t9 -111v-246q0 -51 -10 -97q-10 -48 -39 -87q-27 -37 -83 -62 q-54 -24 -140 -24h-287zM221 823h98q76 0 121 20q42 19 64 50q19 27 24 66q4 32 4 67v174q0 96 -42 128q-43 32 -142 32h-127v-537zM223 88h170q71 0 106 17q37 18 56 49t23 71q4 36 4 88v205q0 34 -8 76q-8 41 -32 71q-25 31 -76 51q-48 19 -138 19h-105v-647z" />
<glyph unicode="C" horiz-adv-x="768" d="M106 328v784q0 78 10 148q9 62 66 118q45 49 100 66q52 16 111 16q43 0 85 -9t77 -32q21 -14 36 -26q18 -15 37 -44q14 -20 28 -69q12 -41 12 -98v-203h-101v134q0 52 -3 85q-3 29 -8 52q-4 15 -13 38q-22 42 -59 61t-81 19q-109 0 -153 -62q-45 -63 -45 -173v-705 q0 -70 3 -134t21 -114q17 -47 60 -79q39 -29 117 -29q66 0 101 25t52 60q17 36 20 67q3 35 3 50v224h102v-224q0 -22 -5 -77q-4 -46 -33 -99q-27 -49 -87 -85t-170 -36q-80 0 -134 28q-50 26 -85 67q-19 24 -29 43q-11 21 -19 51q-6 23 -11 68t-5 94z" />
<glyph unicode="D" horiz-adv-x="811" d="M123 0v1448h123q144 0 234 -35q89 -35 138 -106q49 -72 66 -185q16 -109 16 -268v-322q0 -50 -2 -112q-2 -48 -6 -82q-5 -40 -10 -59q-8 -32 -12 -46q-10 -32 -37 -77q-24 -41 -67 -76t-104 -57q-64 -23 -149 -23h-190zM223 90q61 0 86 1q47 2 68 5q32 5 57 16 q28 13 53 29q21 15 41 38t37 66q17 42 27 108q10 63 10 171v330q0 113 -7 189q-7 80 -26 139q-23 64 -59 99q-38 36 -83 51q-50 16 -99 19q-52 3 -105 3v-1264z" />
<glyph unicode="E" horiz-adv-x="681" d="M121 0v1446h512v-90h-412v-557h338v-88h-340v-621h412v-90h-510z" />
<glyph unicode="F" d="M119 0v1446h512v-90h-412v-557h363v-88h-363v-711h-100z" />
<glyph unicode="G" horiz-adv-x="811" d="M113 373v760q0 28 5 90q4 52 33 108q27 53 89 92t174 39q51 0 92 -11q46 -12 82 -34q40 -28 61 -60q24 -36 32 -67q10 -35 11 -62q2 -40 2 -46v-201h-98v149q0 36 -3 80q-3 42 -21 80q-19 39 -56 62q-39 24 -108 24q-67 0 -102 -22t-54 -47q-32 -43 -36 -88 q-5 -52 -5 -134v-684q0 -92 4 -133q5 -49 16 -80q22 -60 68 -91q43 -29 98 -29q34 0 69 16q37 17 66 49q33 36 51 84q19 50 19 123v231h-213v88h311v-659h-75v115q-2 -3 -11.5 -16t-15.5 -22q-16 -24 -45 -45q-30 -22 -70 -37q-41 -15 -98 -15l-34 2q-25 2 -57 12t-66 33 q-32 21 -60 63q-10 16 -17 30q-12 24 -18 50q-9 38 -14 81q-6 48 -6 122z" />
<glyph unicode="H" horiz-adv-x="811" d="M119 0v1446h100v-643h373v643h100v-1446h-100v715h-373v-715h-100z" />
<glyph unicode="I" horiz-adv-x="342" d="M119 0v1446h104v-1446h-104z" />
<glyph unicode="J" horiz-adv-x="681" d="M86 248v207h98v-187q0 -22 2 -62q1 -25 15 -56q17 -38 51 -59t82 -21q8 0 27 4q25 5 46 20q24 17 42 52q18 36 18 102v1198h100v-1182q0 -23 -1 -41q-1 -26 -9 -58q-7 -30 -23 -65q-13 -29 -43 -59q-24 -24 -72 -44q-41 -17 -106 -17q-26 0 -65 9q-37 9 -75 37 q-34 26 -61 81q-26 54 -26 141z" />
<glyph unicode="K" horiz-adv-x="724" d="M119 0v1446h100v-709l361 709h112l-307 -576l311 -870h-106l-266 750l-107 -201v-549h-98z" />
<glyph unicode="L" d="M119 0v1446h100v-1356h377v-90h-477z" />
<glyph unicode="M" horiz-adv-x="1024" d="M111 0l12 1446h147l162 -832q9 -48 31 -160q9 -45 19 -107q12 -74 14 -89q7 -54 16 -104q5 42 14 112q2 17 7 47t6 38q8 54 13 83q10 58 19 103l179 909h145l14 -1446h-94l-4 1085v77q0 39 1 57q1 9 1.5 28.5t0.5 29.5q2 31 3 81l-260 -1358h-94l-260 1364q3 -76 5 -230 q1 -80 1 -237v-897h-98z" />
<glyph unicode="N" horiz-adv-x="811" d="M113 0v1446h147l350 -1403q-4 46 -7 147q-3 90 -3 201l-8 1055h98v-1446h-153l-342 1382q1 -24 2.5 -60.5t1.5 -43.5q1 -36 3 -80q1 -25 1 -76v-94l4 -1028h-94z" />
<glyph unicode="O" horiz-adv-x="811" d="M113 309v815q0 88 13 139t38 87q40 59 106 86q64 26 142 26q69 0 132 -24q61 -23 101 -82q39 -57 45 -127q6 -69 6 -135v-797q0 -42 -8 -98q-7 -52 -39 -101q-29 -43 -86 -79q-59 -37 -162 -37q-71 0 -121 18t-82 47t-50 65q-18 35 -25 72q-8 38 -9 70q-1 22 -1 55z M209 348q0 -102 15 -155t63 -87q50 -34 119 -34q56 0 96 24q65 37 82 102q16 63 16 136v704q0 79 -8 161q-8 77 -51 122q-24 24 -61 38q-35 13 -74 13q-87 0 -138 -51q-23 -23 -35 -48q-13 -27 -17 -50t-6 -46q-1 -14 -1 -32v-797z" />
<glyph unicode="P" horiz-adv-x="768" d="M117 -2v1450h225q97 0 168 -13q75 -14 121 -73q36 -47 43 -102q8 -61 8 -136v-163q0 -40 -1 -60q-2 -31 -9 -62q-7 -30 -27 -63q-19 -32 -51 -55q-32 -25 -65 -37q-36 -12 -65 -18q-35 -7 -58 -8q-18 -1 -39 -1h-148v-659h-102zM217 743h162q75 0 115 21q41 21 60 52 q21 33 25 71q5 43 5 74v124q0 89 -7 138q-8 54 -30 84q-23 31 -65 43t-111 12h-154v-619z" />
<glyph unicode="Q" horiz-adv-x="811" d="M111 469v653q0 25 5 88q4 57 32 115q26 55 90 99q62 42 174 42q106 0 165 -41q57 -40 85 -95q25 -50 30 -106q4 -47 4 -77v-801q0 -76 -10 -123q-11 -50 -28 -85q-18 -35 -40 -59q-20 -22 -49 -44l189 -172l-62 -64l-217 195q-5 -1 -41 -7q-18 -3 -41 -3q-67 0 -125 23 q-59 23 -98 75q-23 34 -36 70t-19 82q-5 42 -7 104q-1 38 -1 131zM209 424q0 -58 3 -119q3 -64 20 -112q17 -50 56 -85q37 -34 109 -34q77 0 117 36q42 37 59 81q19 50 22 92q3 45 3 61v805q0 97 -45 161t-147 64q-72 0 -114 -31q-41 -31 -59 -72q-18 -42 -21 -87t-3 -72 v-688z" />
<glyph unicode="R" horiz-adv-x="768" d="M121 0v1446h278q41 0 91 -6t94 -32q40 -24 72 -76q30 -50 30 -138v-225q0 -23 -3 -60q-3 -35 -23 -75q-19 -38 -60 -73q-38 -33 -117 -48l267 -713h-107l-264 705h-158v-705h-100zM221 791h182q88 0 132 35q45 36 45 118v223q0 59 -13 100q-12 37 -36 58q-23 20 -54 28 q-28 7 -67 7h-189v-569z" />
<glyph unicode="S" horiz-adv-x="768" d="M86 270v203h100v-115q0 -77 5 -132q5 -50 38 -91q17 -21 40 -36q18 -12 45 -20q24 -7 45 -9q28 -2 38 -2q109 0 148 61t39 174q0 57 -10 107q-9 44 -33 88q-21 38 -66 88q-36 40 -102 106q-46 46 -108 112q-42 45 -79 100q-32 47 -49 109q-16 57 -16 134q0 48 7 100 q8 57 34 105q27 49 81 82q52 32 150 32q102 0 156 -32q55 -33 81 -83q24 -47 29 -109q5 -65 5 -109v-105h-99v129q0 33 -3 72q-3 38 -18 73q-14 33 -50 56q-34 22 -99 22q-99 0 -136 -55q-38 -56 -38 -162q0 -51 8 -94q7 -39 34 -86q24 -43 74 -102q53 -63 130 -140 q55 -57 96 -102q43 -47 68 -91q26 -45 40 -99q13 -51 13 -127q0 -56 -7 -112q-8 -62 -37 -112q-31 -52 -88 -86q-59 -35 -163 -35q-62 0 -119 17q-56 17 -96 52q-40 36 -64 91q-24 56 -24 133z" />
<glyph unicode="T" d="M14 1356v92h611v-92h-258v-1356h-101v1356h-252z" />
<glyph unicode="U" horiz-adv-x="811" d="M117 342v1106h98v-1122q0 -37 3 -82q3 -42 22 -84q18 -40 57 -65q38 -25 111 -25q40 0 81 15t68 54q12 15 18 33q7 20 11 46q3 19 5 68q1 27 1 99v1063h100v-1159q0 -29 -4 -74q-4 -50 -32 -104q-29 -56 -87 -95q-61 -41 -168 -41q-45 0 -96 14q-49 13 -88 42 q-35 27 -57 64q-21 36 -30 76q-10 43 -11 84q-2 58 -2 87z" />
<glyph unicode="V" horiz-adv-x="724" d="M55 1446h105l141 -879q2 -14 8 -55t9 -58q10 -60 13 -83q1 -9 4.5 -37.5t5.5 -45.5q1 -15 5.5 -53t7.5 -61q6 56 16 117q2 14 13 86q2 16 7.5 48t6.5 41q2 14 9.5 55t11.5 69l147 856h103l-262 -1446h-105z" />
<glyph unicode="W" horiz-adv-x="1150" d="M43 1446h102q4 -24 25 -156q11 -70 18 -118q3 -21 9.5 -56t7.5 -40q5 -29 15 -91q2 -12 8 -47t9 -56q7 -42 21 -130q7 -42 18 -114t16 -100q13 -80 21 -145q2 -14 5 -38t5.5 -42t3.5 -34q2 -17 5.5 -58.5t5.5 -64.5q3 31 11 114q2 17 5.5 47t4.5 39q3 24 13 88 q3 17 9.5 60t9.5 65l135 877h107l139 -887q6 -42 14 -95q11 -68 12 -78q2 -15 6 -46.5t5 -42.5q8 -68 14 -129l18 162q2 16 6.5 58t7.5 64q12 94 18 129q12 71 30 183l107 682h100l-236 -1446h-108l-135 905q-8 53 -28 191q-9 66 -23 190q-14 -109 -17 -141q-4 -38 -14 -118 q-1 -5 -21 -140q-26 -171 -32 -209q-3 -23 -17 -106q-2 -11 -20 -133q-14 -94 -22 -142q-4 -26 -20 -133q-3 -18 -8.5 -54t-7.5 -52l-8 -58h-104z" />
<glyph unicode="X" horiz-adv-x="724" d="M49 0l262 797l-202 649h104l123 -420q10 -38 12 -46q1 -4 7 -31l6 -26q1 -3 3.5 -14.5t4.5 -19.5q8 36 10 44q1 6 4 17.5t5 17.5q3 13 12 41q2 8 9 27.5t11 32.5l117 377h104l-219 -651l254 -795h-105l-163 532q-20 61 -25 85q-16 75 -18 83q-2 -8 -4.5 -20t-3.5 -16 q-4 -20 -7 -30q-1 -4 -4.5 -16t-5.5 -19q-11 -35 -16 -50l-172 -549h-103z" />
<glyph unicode="Y" horiz-adv-x="724" d="M29 1446h106l230 -680l231 680h111l-295 -807v-639h-99v639z" />
<glyph unicode="Z" horiz-adv-x="724" d="M55 0v66l480 1292h-394v88h510v-68q-74 -196 -100 -262q-21 -54 -79 -209q-54 -144 -68 -182q-46 -125 -67 -180q-19 -49 -76 -204q-68 -185 -93 -251h481v-90h-594z" />
<glyph unicode="[" horiz-adv-x="468" d="M109 -289v1737h290v-76h-202v-1583h202v-78h-290z" />
<glyph unicode="\" d="M70 1446h90l413 -1446h-94z" />
<glyph unicode="]" horiz-adv-x="468" d="M66 1372v76h294v-1737h-286v78h198v1583h-206z" />
<glyph unicode="^" horiz-adv-x="1492" d="M348 743l352 705h103l344 -705h-115l-282 590l-289 -590h-113z" />
<glyph unicode="_" horiz-adv-x="1024" d="M-20 -154h1064v-102h-1064v102z" />
<glyph unicode="`" horiz-adv-x="468" d="M45 1389h199l178 -224h-68z" />
<glyph unicode="a" d="M57 242q0 74 21 126q21 53 53 89t73 62q36 23 81 46q60 32 63 34q24 13 42 24q12 7 32 19q8 5 35 26v118q0 36 -3 66t-17 53t-40 36t-71 13q-52 0 -79 -18q-28 -18 -41 -51q-15 -36 -16 -77q-2 -58 -2 -95h-88q0 65 4 116q4 56 26 104q21 46 70 75q47 28 136 28 q79 0 121 -26t62 -63t23 -74t3 -62v-692q0 -28 19 -32q22 -5 42 -5v-82q-69 0 -100 14q-32 14 -47 66q-30 -23 -81 -53q-46 -27 -118 -27q-56 0 -93 19q-40 21 -63 54q-22 32 -35 78q-12 44 -12 91zM145 240q0 -60 31 -110q30 -48 103 -48q67 0 108 32q45 35 72 66v391 l-22 -14q-3 -2 -10.5 -6.5t-10.5 -6.5q-4 -2 -8.5 -5t-11.5 -6.5t-11 -6.5q-6 -4 -22.5 -12.5t-26.5 -13.5q-33 -19 -74 -44q-33 -20 -60 -52t-41 -68q-16 -42 -16 -96z" />
<glyph unicode="b" horiz-adv-x="681" d="M106 0v1446h87v-504q4 6 13.5 17t13.5 15q14 16 37 33q19 13 52 25q29 10 72 10q78 0 117 -32q41 -33 59 -77q19 -46 22 -91q3 -46 3 -74v-528q0 -115 -63 -181q-62 -65 -154 -65q-41 0 -67 10q-29 11 -48 25q-23 16 -33 29l-20 26v-84h-91zM195 279q0 -56 15 -95 q14 -37 40 -63q25 -25 53 -37q29 -12 55 -12q52 0 86 34q39 38 45 87q7 58 7 77v502q0 81 -31 135t-107 54q-29 0 -59 -11q-29 -11 -52 -32q-22 -20 -38 -58q-14 -32 -14 -86v-495z" />
<glyph unicode="c" d="M82 295v475q0 22 4 61q4 43 26 88q20 42 69 77q47 34 136 34q86 0 135 -32q48 -31 70 -76q24 -47 28 -92q5 -52 5 -76v-90h-86v71q0 35 -1 49q-2 24 -4 34q-5 23 -7 30q-16 49 -48 77q-33 29 -87 29q-59 0 -89 -24q-29 -23 -45 -58q-14 -32 -16 -63q-2 -40 -2 -45v-442 q0 -26 2 -84q1 -42 17 -79q15 -35 49 -60q32 -23 94 -23q53 0 83 21q28 20 43 49q13 27 15 56q2 36 2 42v149h90v-133q0 -32 -4 -72q-5 -48 -27 -88q-23 -41 -74 -74q-50 -32 -145 -32q-49 0 -81 11t-56 27q-25 17 -35 29q-13 16 -14 19q-35 47 -41 105q-6 59 -6 110z" />
<glyph unicode="d" horiz-adv-x="681" d="M98 252v516q0 88 24 140q24 53 56 79q34 28 69 35q38 8 58 8q41 0 70 -9q27 -8 50 -25q23 -16 36 -32q10 -12 26 -32v514h86v-1446h-79v109q-7 -15 -23 -36q-17 -22 -38 -38q-27 -20 -55 -31q-32 -12 -75 -12q-79 0 -119 34q-41 35 -60 77q-20 45 -23 87q-3 43 -3 62z M184 268q0 -6 2 -52q1 -31 16 -65t42 -57q28 -24 82 -24q46 0 75 19q33 21 51 45q19 25 27 50q8 26 8 35v547q0 10 -6 40q-6 32 -23 61q-20 35 -49 57q-31 24 -81 24q-13 0 -34 -4q-27 -5 -48 -21q-26 -19 -43 -55q-19 -40 -19 -100v-500z" />
<glyph unicode="e" d="M88 250v538q0 120 60 184t171 64q92 0 139 -32q48 -33 70 -82q23 -50 27 -106q4 -51 4 -103v-207h-385v-254q0 -99 44 -137q43 -37 108 -37q13 0 25 1q17 1 38 9q20 7 39 26q20 20 31 50q7 14 8 23q0 3 1 8.5l2 11t1 11.5q2 26 2 51v87h86v-114q0 -119 -61 -181 q-62 -63 -176 -63q-39 0 -79 10q-44 11 -83 47q-43 37 -58 83q-14 43 -14 112zM174 578h297v190q0 2 -2 44q-2 34 -16 64q-16 33 -44 57q-29 25 -85 25t-86 -24t-45 -56q-16 -33 -17 -66q-2 -46 -2 -52v-182z" />
<glyph unicode="f" horiz-adv-x="382" d="M35 948v84h123v207q0 21 3 55q3 36 19 69q16 34 54 58q39 25 106 25q19 0 27 -1q16 -2 26 -3v-80q-14 2 -18 2h-17q-43 0 -67 -15t-35 -37q-10 -21 -12 -43q-2 -28 -2 -34v-203h127v-84h-131v-948h-86v948h-117z" />
<glyph unicode="g" horiz-adv-x="681" d="M96 -104h86q0 -14 3 -38q3 -23 17 -45q14 -23 42 -37q30 -16 80 -16q7 0 34 3q25 3 56 19q28 15 51 48q22 32 22 92v172q-31 -33 -68 -60q-40 -30 -112 -30q-76 0 -117 32q-40 31 -60 77q-19 44 -22 93q-4 64 -4 81v520q0 31 9 81q8 42 31 76q23 33 65 55q40 21 106 21 q39 0 66 -10q32 -12 48 -24q19 -15 34 -31q6 -6 13.5 -16t10.5 -13v88h88v-1081q0 -31 -1 -49q-2 -27 -9 -57q-7 -27 -23 -58q-15 -28 -46 -53q-34 -32 -81 -46q-48 -14 -93 -14q-65 0 -105 19q-31 15 -47 24q-50 34 -61 82q-12 51 -13 95zM190 283q0 -9 1.5 -30t1.5 -29 q1 -33 14 -64q12 -30 40 -52t79 -22q46 0 75 20q32 23 51 47q20 25 27 51q8 27 8 38v577q0 8 -8 34q-7 23 -26 48t-49 43q-32 19 -72 19q-53 0 -82 -23q-28 -22 -42 -54q-13 -31 -15 -67q0 -8 -1.5 -29t-1.5 -30v-477z" />
<glyph unicode="h" horiz-adv-x="681" d="M111 0v1448h88v-498q27 29 65 59q42 33 121 33q39 0 71 -11q34 -12 58 -30q54 -45 63 -96q9 -53 9 -88v-817h-88v764q0 12 -2 58q-1 30 -15 64q-11 27 -40 50q-26 20 -79 20q-64 0 -116 -47q-23 -23 -32 -45t-15 -45v-819h-88z" />
<glyph unicode="i" horiz-adv-x="299" d="M104 0v1032h86v-1032h-86zM104 1151v160h86v-160h-86z" />
<glyph unicode="j" horiz-adv-x="342" d="M14 -246q50 12 75 36q26 25 38 54q13 31 14 67q2 48 2 73v1046h86v-1093q0 -27 -3 -66q-3 -41 -23 -79q-21 -40 -65 -75q-43 -34 -124 -51v88zM143 1149v160h86v-160h-86z" />
<glyph unicode="k" d="M106 0v1446h87v-899l296 485h101l-240 -395l264 -637h-96l-225 545l-98 -162v-383h-89z" />
<glyph unicode="l" horiz-adv-x="299" d="M106 0v1446h89v-1446h-89z" />
<glyph unicode="m" horiz-adv-x="1067" d="M106 0v1030h91v-86q8 8 23 26q12 15 40 32q27 17 56 28q32 12 73 12q46 0 75 -13q28 -13 50 -33q18 -17 32 -41q10 -17 17 -35q9 13 28 35q19 23 42 41q24 20 58 33q33 13 81 13q62 0 113 -32q52 -32 69 -105q9 -33 10 -66q1 -25 1 -110v-729h-88v737q0 71 -1 90 q-1 27 -8 52q-6 28 -20 43q-15 17 -32 25q-18 9 -35 12q-24 4 -31 4q-48 0 -82 -20q-33 -20 -53 -44q-19 -24 -27 -45l-8 -20v-834h-88v813q0 8 -4 42q-3 25 -15 48q-16 27 -46 43q-31 17 -67 17q-42 0 -74 -17q-34 -18 -52 -37q-17 -18 -29 -39q-10 -17 -10 -20v-850h-89z " />
<glyph unicode="n" horiz-adv-x="681" d="M113 0v1032h86v-100q13 23 25 38q13 17 46 40q51 32 119 32q20 0 50 -5q29 -5 57 -21q33 -18 51 -45q19 -29 26 -53q9 -31 10 -52q1 -16 1 -39v-827h-86v825q0 39 -13 68q-12 26 -30 43q-16 15 -41 23q-24 8 -43 8q-38 0 -75 -17q-36 -16 -60 -45q-16 -18 -24 -35 q-7 -15 -13 -32v-838h-86z" />
<glyph unicode="o" d="M80 248v540q0 79 25 126q26 50 63 76q40 29 80 37q44 9 78 9q88 0 136 -30q47 -30 69 -73t26 -84q4 -37 4 -67v-489q0 -59 -8 -110q-7 -45 -37 -91q-22 -35 -55 -56q-31 -20 -61 -29q-28 -8 -52 -10q-15 -1 -31 -1q-18 0 -53 4q-40 5 -84 31q-65 37 -83 94 q-17 54 -17 123zM168 250q0 -3 2 -41q2 -30 16 -57q17 -32 44 -51q30 -21 85 -21q31 0 60 9t50 30q23 23 35 54q13 33 13 85v514q0 4 -2 44q-2 31 -16 60q-15 30 -43 52t-84 22q-60 0 -92 -22q-34 -23 -49 -55q-16 -33 -17 -66q-2 -46 -2 -59v-498z" />
<glyph unicode="p" horiz-adv-x="681" d="M111 -334v1364h88v-90q10 15 22 29q14 16 38 32q23 16 55 28q29 11 75 11q39 0 69 -12q29 -12 51 -32t36 -43q14 -22 22 -48q14 -44 15 -80q2 -54 2 -92v-500q0 -65 -20 -113q-20 -47 -50 -74t-68 -39q-34 -11 -71 -11q-39 0 -68 9q-26 8 -49 23q-20 13 -35 28 q-6 6 -14.5 16.5t-9.5 11.5v-418h-88zM199 193q0 -7 9 -26q7 -16 28 -40q17 -20 49 -36q30 -15 73 -15q52 0 79 21q26 21 41 53t16 65q2 46 2 61v525q0 51 -15 84t-35 49q-21 16 -44 22q-28 7 -40 7q-43 0 -73 -18q-31 -19 -51 -40q-21 -23 -30 -45t-9 -33v-634z" />
<glyph unicode="q" horiz-adv-x="681" d="M100 256v506q0 91 17 136q17 46 33 67q22 30 46 44q27 16 48 23q22 7 41 9q12 1 26 1q45 0 72 -10q32 -12 49 -24q20 -14 32 -31q6 -9 19 -29v84h86v-1366h-86v430q-2 -3 -4.5 -7t-6.5 -10t-7 -10q-11 -16 -35 -34t-55 -29q-33 -12 -78 -12q-23 0 -55 7q-35 8 -70 38 q-47 44 -59 98q-13 60 -13 119zM186 336q0 -83 1 -106q1 -33 12 -60q17 -54 52 -76t71 -22q60 0 110 51q32 37 39 67q7 33 12 66v492q0 97 -44 155t-115 58q-42 0 -67 -20q-22 -18 -30 -28q-28 -29 -34 -68q-7 -44 -7 -91v-418z" />
<glyph unicode="r" horiz-adv-x="425" d="M109 0v1030h84v-180q16 34 24 47q17 28 38 51q24 27 60 53q40 29 93 56v-117q-26 -6 -58 -19q-26 -12 -52 -33q-23 -19 -51 -60q-24 -35 -52 -101v-727h-86z" />
<glyph unicode="s" horiz-adv-x="598" d="M57 362h86v-90q0 -13 2 -57q1 -29 18 -62q16 -31 48 -52q33 -21 92 -21q32 0 57 7q28 8 49 27q21 20 33 52q13 36 13 86q0 40 -6 67q-5 25 -25 54q-17 26 -52 56q-77 67 -89 77q-63 54 -78 68q-37 34 -60 67q-23 34 -36 76q-13 44 -13 96q0 33 6 72q6 37 29 71t66 56 t116 22q81 0 124 -27t65 -66q20 -35 23 -80q3 -42 3 -73v-71h-88q0 45 -2 103q-1 43 -14 74q-11 28 -38 44q-24 14 -73 14q-50 0 -74 -14q-27 -16 -38 -35q-14 -24 -15 -44q-2 -32 -2 -40q0 -37 4 -60q5 -26 24 -56q18 -27 60 -68q30 -29 115 -100q22 -17 66 -57 q26 -23 49 -56q18 -26 30 -71q11 -42 11 -97q0 -56 -16 -114q-15 -54 -58 -91q-24 -21 -65 -36q-40 -15 -101 -15q-46 0 -83 8q-29 6 -55 21t-34 23l-18 18q-41 45 -48 110q-8 70 -8 184z" />
<glyph unicode="t" horiz-adv-x="382" d="M16 948v84h109v262h90v-262h156v-84h-156v-772q0 -42 9 -70t67 -28q24 0 40 1q22 1 40 3v-80q-47 -6 -92 -6q-90 0 -121 31t-31 90v831h-111z" />
<glyph unicode="u" horiz-adv-x="681" d="M102 238v794h86v-774q0 -24 3 -56q3 -31 17 -62q13 -28 41 -50q26 -20 75 -20q41 0 66 14q31 17 46 35q19 22 30 44q9 18 17 40v829h88v-1030h-88v96l-25 -30q-16 -20 -38 -34t-53 -27q-27 -11 -70 -11q-63 0 -113 33q-31 22 -47 48q-17 27 -24 57q-9 35 -10 56 q-1 18 -1 48z" />
<glyph unicode="v" horiz-adv-x="555" d="M29 1030h90l121 -678q10 -58 12 -70q1 -5 3.5 -23.5t4.5 -26.5q3 -14 7 -44q1 -7 3 -26t4 -31q2 12 8 58q4 28 6 40l6 37q1 6 3.5 22t3.5 25l125 717h94l-196 -1030h-101z" />
<glyph unicode="w" horiz-adv-x="894" d="M29 1030h88l84 -512q1 -7 4.5 -31t6.5 -40q7 -41 15 -95l9 -54t9 -53q9 -57 15 -108q2 13 4 33t3 26q4 29 7 47q9 48 10 55q4 32 15 81l115 651h71l142 -883q8 51 11 83q3 30 13 83q0 4 1.5 9.5t3.5 16.5t3 20q3 15 14 72q2 12 13 73q7 42 8 49l86 477h90l-198 -1030h-88 l-107 657q-2 11 -4.5 29.5t-2.5 20.5q-1 6 -2 12.5t-2 14.5t-2 12q-3 18 -6 47q-1 8 -3 30t-4 37q-2 -10 -5.5 -30.5t-4.5 -29.5q-3 -20 -6 -41q-4 -25 -5 -33q-2 -15 -6 -36l-123 -690h-90z" />
<glyph unicode="x" d="M25 0l223 537l-203 493h92l117 -303q1 -3 8 -21q2 -4 6 -15.5t7 -18.5q10 -24 14 -35q7 -20 8 -23q9 26 18 53q2 7 21 54l125 309h94l-207 -483l219 -547h-96l-133 348q-15 36 -24 64q-7 23 -15 59q-7 -24 -8 -28t-2.5 -7.5t-3 -8.5t-2.5 -8q-4 -11 -12 -31 q-3 -7 -9.5 -23.5t-9.5 -24.5l-131 -340h-96z" />
<glyph unicode="y" horiz-adv-x="598" d="M18 -248q16 -2 23 -3t22 -1q52 0 82 18q36 22 50 40q17 23 25 48t9 35l25 119l-223 1024h88l180 -856l182 856h92l-264 -1147q-18 -79 -48 -122q-32 -46 -66 -65q-41 -23 -82 -27q-50 -5 -95 -5v86z" />
<glyph unicode="z" horiz-adv-x="598" d="M74 0v76l352 868h-324v86h428v-69l-356 -875h356v-86h-456z" />
<glyph unicode="{" horiz-adv-x="724" d="M205 547v67q38 6 64 24q27 19 41 51q17 38 22 86q6 52 6 128v164q0 61 8 130q7 62 37 117q28 51 83 88t146 44v-64q-56 -13 -89 -32q-35 -20 -58 -56q-23 -35 -32 -88q-9 -52 -9 -129q0 -96 -2 -210q-2 -86 -13 -141q-12 -57 -37 -89q-24 -31 -73 -53v-6q44 -18 70 -50 t37 -79q12 -50 15 -118q3 -69 3 -163q0 -86 3 -152q3 -68 20 -113q18 -47 56 -78q37 -29 109 -46v-64q-97 7 -153 48q-55 40 -82 97t-33 121q-6 65 -6 125v134q0 82 -4 131q-5 56 -19 92q-15 36 -41 57q-27 21 -69 27z" />
<glyph unicode="|" horiz-adv-x="468" d="M188 -512v2048h91v-2048h-91z" />
<glyph unicode="}" horiz-adv-x="724" d="M113 -221q53 12 89 33t58 55q23 36 32 87q9 52 9 130q0 96 2 210q2 86 13 141q12 57 37 89t73 54v6q-45 18 -70 49q-25 32 -37 80q-12 50 -15 117q-3 69 -3 163q0 86 -3 152q-3 68 -20 113q-18 48 -57 78q-38 29 -108 46v64q98 -10 153 -49t82 -95q27 -57 33 -121 q6 -65 6 -126v-133q0 -82 4 -131q5 -57 19 -93q15 -36 41 -57q27 -21 69 -27v-67q-78 -12 -105 -76q-28 -65 -28 -213v-164q0 -61 -8 -130q-7 -62 -37 -117q-28 -51 -83 -88t-146 -44v64z" />
<glyph unicode="~" horiz-adv-x="1492" d="M297 569q8 12 30 43q21 29 47 52q27 24 66 42q37 17 88 17q30 0 50 -4q25 -5 49 -13q23 -8 59 -24q10 -5 37 -16.5t43 -18.5q45 -23 75 -36q18 -8 49 -20q17 -7 34 -10q15 -3 30 -3q36 0 64 12q26 11 52 32q24 20 42 42q24 30 35 45l51 -80q-43 -56 -77 -84 q-39 -33 -66 -46q-30 -15 -56 -20q-21 -4 -43 -4q-12 0 -34 2q-17 2 -38 9q-9 3 -51 20q-24 9 -73 35q-65 30 -135 59q-51 21 -99 21q-64 0 -101 -37q-44 -44 -79 -92z" />
<glyph unicode="&#xa1;" horiz-adv-x="382" d="M96 1266v182h92v-182h-92zM98 0v788l19 279h53l29 -299v-768h-101z" />
<glyph unicode="&#xa2;" d="M82 295v475q0 76 18 124t47 77t65 41q33 11 71 16v127h59v-125q40 -6 72 -14q43 -10 82 -51q20 -25 34 -55q14 -32 18 -63q4 -36 6 -80q1 -29 1 -103h-86v71q0 35 -1 49q-2 24 -4 34q-5 23 -7 30q-16 49 -48 77q-33 29 -87 29q-59 0 -89 -24q-29 -23 -45 -58 q-14 -32 -16 -63q-2 -40 -2 -45v-442q0 -26 2 -84q1 -42 17 -79q15 -35 49 -60q32 -23 94 -23q53 0 83 21q28 20 43 49q13 27 15 56q2 36 2 42v149h90v-133q0 -32 -3 -72q-3 -42 -23 -79q-21 -40 -63 -71t-122 -42v-139h-59v139q-79 8 -123 42q-41 33 -63 79q-21 45 -24 93 t-3 85z" />
<glyph unicode="&#xa3;" horiz-adv-x="768" d="M53 0v100q54 11 110 27q55 16 109 70q42 39 64 95q20 51 20 114q0 80 -25 126q-27 50 -48 76h-224v74h174q-12 24 -28 60q-15 33 -21 62q-8 38 -11 81q-3 47 -3 119q0 69 4 124q4 60 29 111q7 15 24 37q16 20 41 39q24 18 61 32q35 13 85 13q72 0 129 -33t84 -96 q10 -24 13 -36q5 -21 8 -48q2 -22 4 -82q1 -34 1 -137h-92v44v60q0 41 -1 59t-1 39q0 13 -4 34q-5 25 -19 48q-16 26 -45 43q-32 19 -81 19q-55 0 -84 -23q-28 -22 -43 -56q-16 -36 -17 -72q-2 -50 -2 -68q0 -87 1 -120q2 -51 9 -91q7 -35 24 -79q14 -35 46 -83h221v-74 h-174q20 -32 40 -76q22 -49 22 -131q0 -74 -21 -125q-22 -52 -49 -87q-29 -37 -61 -57q-33 -21 -60 -36q12 0 48 -3q40 -3 76 -6q57 -4 76 -5q48 -2 50 -2q84 0 127 6q37 5 78 14v-88q-11 -2 -78 -13q-43 -7 -111 -7q-18 0 -66 3q-76 5 -103 7q-33 3 -103 7q-50 3 -70 3 q-44 0 -69 -4q-11 -2 -34 -4.5t-30 -3.5z" />
<glyph unicode="&#xa4;" horiz-adv-x="1366" d="M141 223l150 148q-5 6 -43 61q-16 22 -38 69q-17 36 -28 84q-10 44 -10 105q0 69 11 114q13 55 29 89q19 42 39 70q5 7 13.5 18.5t15 21t11.5 17.5l-146 145l68 68l143 -146q7 5 15 11t19.5 13.5t18.5 12.5q28 19 68 38q39 18 90 30t117 12t118 -12q46 -10 92 -31 q42 -19 68 -39q7 -6 23 -17.5t23 -17.5l147 146l68 -68l-146 -147q8 -11 22 -32t19 -28q19 -27 37 -68q17 -38 27 -87q10 -47 10 -113t-12 -115q-12 -48 -30 -88q-19 -41 -38 -67q-18 -25 -39 -49l150 -150l-70 -67l-147 147q-7 -5 -24.5 -17t-27.5 -20q-25 -18 -66 -38 q-28 -13 -88 -28q-50 -12 -116 -12q-68 0 -119 12q-60 14 -89 28q-41 20 -66 38q-41 30 -52 39l-149 -147zM264 698q0 -95 34 -172t91 -134t134 -87q79 -31 163 -31q88 0 164 33t131 89q56 57 87 133q32 78 32 167q0 98 -36 177q-37 81 -93 133q-57 52 -132 81 q-76 29 -151 29q-97 0 -176 -35q-76 -34 -133 -92q-55 -56 -85 -133q-30 -76 -30 -158z" />
<glyph unicode="&#xa5;" horiz-adv-x="724" d="M29 1448h106l234 -684l241 684h97l-224 -612h176v-88h-208l-31 -89v-34h239v-88h-247v-537h-99v537h-247v88h239v34l-31 89h-208v88h178z" />
<glyph unicode="&#xa6;" horiz-adv-x="468" d="M190 358h91v-716h-91v716zM190 666v716h91v-716h-91z" />
<glyph unicode="&#xa7;" horiz-adv-x="768" d="M92 125v108h92v-61q0 -43 1 -64q0 -10 0.5 -29.5t1.5 -27.5q2 -26 3 -37q10 -46 38 -72q26 -25 59 -38q34 -14 57 -15q7 0 15.5 -0.5t13 -1t6.5 -0.5q75 0 117 25t59 58q19 37 22 72q3 38 3 64q0 46 -6 88q-5 32 -24 56q-20 24 -57 48q-14 9 -50 30t-52 30 q-74 40 -127 73q-56 35 -94 70t-58 78t-20 99q0 77 35 133q34 54 94 98q-23 19 -38 33q-21 19 -35 45q-14 25 -25 66q-10 37 -10 96q0 97 24 158t65 96q42 35 92 47q53 12 109 12q103 0 155 -29q56 -31 79 -70q25 -42 29 -81q4 -36 4 -61v-166h-90v149q0 20 -3 50t-20 58 q-18 29 -52 46q-36 18 -104 18q-116 0 -156 -61t-40 -166q0 -53 13 -86q14 -36 41 -63q29 -29 68 -52q51 -30 93 -53q53 -30 125 -73q55 -32 88 -65q34 -34 52 -76q17 -40 17 -101q0 -89 -33 -144q-34 -56 -65 -98q50 -51 59 -105q9 -52 9 -127q0 -36 -6 -84q-6 -47 -31 -94 q-40 -68 -109 -96q-68 -27 -143 -27q-109 0 -168 34q-61 35 -87 83q-28 51 -32 105q-4 49 -4 98zM180 692q0 -56 30 -97q29 -39 109 -89q8 -5 27.5 -15.5t28.5 -16.5q20 -12 62 -36q16 -9 63 -35q4 -2 25 -13t30 -17q21 26 38 59q19 37 19 109q0 86 -31 129q-30 41 -77 71 q-35 22 -44 27q-32 18 -69 39q-25 14 -69 40q-9 5 -19.5 11t-17 10t-9.5 6q-96 -63 -96 -182z" />
<glyph unicode="&#xa8;" horiz-adv-x="468" d="M84 1198v158h98v-158h-98zM287 1198v158h98v-158h-98z" />
<glyph unicode="&#xa9;" horiz-adv-x="1705" d="M125 725q0 153 57 287q56 132 156 230q99 98 231 154q131 56 287 56q151 0 282 -55q130 -55 230 -153q99 -98 156 -231q57 -134 57 -294q0 -150 -55 -279q-56 -131 -153 -230q-99 -101 -230 -158q-132 -58 -289 -58q-140 0 -273 53q-129 51 -234 150q-102 96 -162 230 q-60 133 -60 298zM190 725q0 -140 54 -265q53 -122 143 -211q92 -91 211 -139q125 -51 256 -51q139 0 262 53q122 53 210 142q91 92 139 211q51 125 51 256q0 135 -51 260q-49 121 -138 211q-88 90 -209 142q-120 52 -262 52q-143 0 -263 -52q-125 -54 -211 -143 q-90 -93 -140 -211q-52 -122 -52 -255zM401 723q0 103 38 191q36 84 102 150q61 61 148 96q84 34 177 34q81 0 145 -23q58 -21 108 -53q45 -29 76 -63q30 -33 48 -54l-67 -61q-7 8 -23 26t-21 23q-26 29 -63 54t-86 43t-113 18q-71 0 -141 -28q-65 -26 -120 -78 q-53 -50 -83 -119t-30 -154q0 -82 30 -151q29 -66 82 -118q53 -51 118 -78q68 -28 140 -28q64 0 115 17q46 15 86 41q32 21 63 53q33 35 46 51l67 -55q-67 -93 -165 -145t-212 -52q-95 0 -178 34q-86 35 -147 95q-66 64 -102 147q-38 87 -38 187z" />
<glyph unicode="&#xaa;" horiz-adv-x="382" d="M33 1004q0 42 12 72q11 27 29 50q17 22 34 33q27 18 29 19q48 26 69 39q11 7 29.5 17.5t24.5 14.5q0 82 -8 117q-7 33 -59 33q-27 0 -41 -10q-15 -11 -21 -28q-7 -20 -8 -42q-2 -32 -2 -55h-64q0 19 2 65q1 31 15 65q12 30 41 48q28 18 82 18q49 0 75 -16q27 -17 39 -40 q14 -27 15 -51q2 -36 2 -48v-361q0 -16 8 -19q9 -4 24 -5v-58q-53 -4 -72 8q-17 11 -28 27q-18 -12 -43 -24q-26 -13 -61 -13q-55 0 -89 40t-34 104zM102 1006q0 -41 21 -62q20 -20 47 -20q32 0 56 18q20 15 34 29v200q-66 -34 -73 -38q-31 -17 -48 -34q-18 -18 -27 -39 q-10 -23 -10 -54z" />
<glyph unicode="&#xab;" horiz-adv-x="768" d="M55 600l256 205h125l-258 -203l250 -207h-123zM344 600l256 205h121l-250 -205l240 -205h-115z" />
<glyph unicode="&#xac;" horiz-adv-x="1366" d="M0 551v92h1366v-641h-90v549h-1276z" />
<glyph unicode="&#xad;" horiz-adv-x="512" d="M76 555v88h362v-88h-362z" />
<glyph unicode="&#xae;" horiz-adv-x="1705" d="M125 723q0 159 58 291t159 230q100 98 231 153q129 55 279 55q156 0 287 -56q134 -57 232 -155q99 -99 156 -232q56 -131 56 -290q0 -148 -55 -277q-56 -130 -153 -231t-231 -159q-132 -58 -292 -58q-140 0 -273 53q-130 52 -233 150q-101 96 -161 230q-60 133 -60 296z M190 723q0 -139 53 -262t143 -210q93 -90 212 -140q124 -52 256 -52q139 0 264 54q121 52 210 143q90 92 139 210q51 124 51 253q0 136 -51 261q-49 121 -139 212q-87 88 -211 142q-120 52 -265 52q-135 0 -255 -51q-118 -50 -211 -140q-89 -86 -143 -211q-53 -123 -53 -261 zM578 274v902h262q63 0 123 -4q47 -3 86 -19q58 -22 94 -76q35 -53 35 -119q0 -79 -54 -144q-51 -62 -161 -77q48 -15 76 -38q30 -24 46 -52t24 -59q4 -17 11 -60q2 -17 7 -45.5t7 -40.5q5 -35 12 -62q10 -36 15 -52q8 -25 23 -54h-119q-5 10 -9 24q-1 3 -6 16t-8 22 q0 2 -2.5 15.5t-4.5 24.5q-1 7 -4.5 28.5t-5.5 34.5t-5.5 35.5t-4.5 28.5q-2 11 -4.5 24.5t-2.5 17.5q-12 61 -39 94t-67 48q-45 17 -95 18q-74 2 -127 2v-433h-102zM682 791h170q9 0 59 2q36 1 73 17q35 14 63 46q26 29 26 90q0 44 -20 80t-62 53q-32 14 -63 15 q-46 2 -103 2h-143v-305z" />
<glyph unicode="&#xaf;" horiz-adv-x="468" d="M41 1198v86h385v-86h-385z" />
<glyph unicode="&#xb0;" horiz-adv-x="724" d="M72 1233q0 63 22 114t63 92q39 39 93 62t112 23q60 0 114 -23q52 -23 92 -62q40 -41 63 -93q22 -53 22 -113q0 -62 -22 -113q-23 -52 -63 -93q-40 -39 -92 -62q-54 -23 -114 -23q-58 0 -112 23t-93 62q-41 41 -63 93q-22 51 -22 113zM164 1233q0 -43 15 -79 q14 -34 43 -63q28 -28 64 -43q38 -16 76 -16q39 0 77 16q36 15 64 43t44 63t16 79q0 84 -58 141q-60 58 -143 58q-38 0 -76 -16t-64 -42q-30 -30 -43 -63q-15 -37 -15 -78z" />
<glyph unicode="&#xb1;" horiz-adv-x="1024" d="M63 0v94h900v-94h-900zM63 696v92h406v404h94v-404h400v-92h-400v-403h-94v403h-406z" />
<glyph unicode="&#xb2;" horiz-adv-x="468" d="M51 543q0 58 1 68q2 17 7 30q0 1 15 34q6 13 15 30q5 10 26 38q5 7 11.5 16.5t16.5 23.5t17 24q31 44 81 117q33 48 50 90q17 41 25 87t8 107q0 39 -1 59q-1 26 -10 54q-8 24 -26 41q-17 16 -51 16q-35 0 -53 -15q-16 -14 -26 -36q-10 -23 -11 -41q-1 -14 -1 -31v-110 h-73v110q0 8 2 52q1 31 17 65q16 35 49 58q34 24 96 24q61 0 94 -24t48 -59t18 -69q3 -36 3 -57q0 -83 -4 -130q-5 -57 -21 -100q-20 -54 -53 -106q-25 -40 -100 -145q-32 -44 -44 -63q-4 -7 -12.5 -20t-11.5 -18q-10 -17 -14 -26q-2 -4 -4.5 -12t-3.5 -11h268v-71h-348z " />
<glyph unicode="&#xb3;" horiz-adv-x="468" d="M48 732q-1 36 1 99h74q0 -53 3 -95q3 -43 13 -71q11 -30 32 -47q20 -16 62 -16q40 0 64 19q22 17 33 43q10 24 12 50q2 34 2 38v67q0 30 -1 40q-2 18 -3 24q0 1 -1.5 7.5t-2.5 10.5q-11 31 -31 48q-22 19 -46 26q-29 8 -52 11q-27 3 -45 3v76q52 1 86 14q31 11 50 32 q18 19 24 45t6 56q0 54 -1 75q-1 29 -10 51q-8 20 -25 30t-50 10q-31 0 -47 -10t-24 -26q-7 -15 -9 -33q-2 -24 -2 -33l-4 -102h-74q0 63 1 84q0 9 0.5 26.5t1.5 24.5q1 17 3 28t6 23q16 43 56 68q39 24 94 24q59 0 92 -21q32 -20 48 -53q16 -31 17 -63q2 -44 2 -55 q0 -30 -2 -76q-1 -34 -11 -64q-9 -28 -32 -51t-61 -39q44 -17 68 -39q24 -23 36 -49q13 -30 16 -56q3 -30 3 -61q0 -48 -3 -101q-3 -51 -21 -95q-19 -46 -54 -71q-39 -28 -106 -28q-74 0 -113 30q-38 29 -56 75q-17 44 -19 97z" />
<glyph unicode="&#xb4;" horiz-adv-x="468" d="M51 1161l172 223h195l-293 -223h-74z" />
<glyph unicode="&#xb6;" horiz-adv-x="1366" d="M190 1057q0 59 23 139q23 78 96 147q55 49 132 76t206 27h432v-76h-67v-1712h-80v1712h-336v-1712h-80v1034q-45 5 -105 22q-55 15 -116 72q-54 53 -79 124q-26 72 -26 147z" />
<glyph unicode="&#xb7;" horiz-adv-x="299" d="M102 500v184h91v-184h-91z" />
<glyph unicode="&#xb8;" horiz-adv-x="468" d="M68 -264l38 45q20 -11 57 -28q25 -11 56 -11q37 0 55 21q19 22 19 44q0 25 -12 40q-13 17 -30 25q-20 10 -37 14q-5 1 -12 3t-12.5 3.5t-9.5 1.5l8 159h70l-8 -102q60 -18 103 -52q45 -35 46 -98q0 -19 -8 -43q-7 -22 -24 -42q-16 -19 -45 -31q-31 -13 -68 -13 q-58 0 -101 21q-58 28 -85 43z" />
<glyph unicode="&#xb9;" horiz-adv-x="468" d="M88 1249v72q58 16 91 41q32 24 50 86h70v-905h-80v762q-19 -15 -48 -31q-25 -14 -83 -25z" />
<glyph unicode="&#xba;" horiz-adv-x="382" d="M45 1024v270q0 7 2 45q2 31 16 57q15 28 43 48q27 20 84 20q54 0 83 -20q30 -21 43 -47q15 -29 16 -52q2 -34 2 -36v-285q0 -9 -2 -47q-1 -28 -17 -54q-15 -25 -45 -45q-31 -20 -86 -20q-52 0 -81 19q-27 18 -41 44q-14 25 -15 54q-2 38 -2 49zM109 1024q0 -18 1 -29 q2 -18 8 -32q8 -17 23 -28t45 -11q32 0 46 10q18 12 24 25q8 15 9 33q1 12 1 32v270q0 23 -1 35q-2 22 -8 34q-8 16 -24 26t-45 10q-32 0 -46 -11q-16 -13 -23 -28q-7 -16 -9 -35q-1 -12 -1 -31v-270z" />
<glyph unicode="&#xbb;" horiz-adv-x="768" d="M41 391l254 207l-238 203h113l250 -203l-254 -207h-125zM326 391l264 205l-250 205h125l248 -203l-258 -207h-129z" />
<glyph unicode="&#xbc;" horiz-adv-x="1193" d="M88 1249v72q58 16 91 41q32 24 50 86h70v-905h-80v762q-19 -15 -48 -31q-25 -14 -83 -25zM188 -121l750 1729q14 -6 26 -12q7 -4 27 -11l-753 -1728q-21 9 -25 11t-25 11zM762 268v88l229 547h96v-561h107v-74h-107v-268h-75v268h-250zM827 342h185v453z" />
<glyph unicode="&#xbd;" horiz-adv-x="1193" d="M88 1249v74q57 15 90 39t51 86h70v-905h-80v762q-19 -15 -48 -31q-25 -14 -83 -25zM170 -119l750 1729q3 -1 11.5 -5.5t14.5 -7.5q16 -7 27 -12l-754 -1728q-14 6 -24 11q-18 9 -25 13zM776 0q0 59 1 69q2 15 7 29q0 1 15 34q6 14 15 30q8 14 26 39q16 23 45 63 q31 44 81 117q33 48 50 90q17 41 25 87t8 108q0 38 -1 58q-1 26 -10 54q-8 24 -26 41q-19 17 -51 17q-34 0 -53 -16q-16 -14 -26 -36q-10 -23 -11 -41q-1 -14 -1 -30v-111h-73v111q0 7 2 51q1 31 17 65q16 35 49 58q35 24 96 24t94 -24t48 -59t18 -69q3 -36 3 -57 q0 -83 -4 -130q-5 -57 -21 -100q-19 -52 -53 -105q-31 -49 -100 -146q-36 -50 -44 -62q-15 -24 -24 -39q-10 -17 -14 -26q-2 -4 -4.5 -11.5l-3.5 -10.5h268v-72h-348z" />
<glyph unicode="&#xbe;" horiz-adv-x="1193" d="M48 732q-1 36 1 99h74q0 -53 3 -95q3 -43 13 -71q10 -29 32 -46t62 -17t64 19q22 17 33 43q10 24 12 50q2 34 2 38v67q0 30 -1 40q-2 18 -3 24q0 1 -1.5 7.5t-2.5 10.5q-11 31 -31 48q-22 19 -46 26q-29 8 -52 11q-27 3 -45 3v76q52 1 86 14q31 11 50 32q18 19 24 45 t6 56q0 54 -1 75q-1 29 -10 51q-8 20 -25 30t-50 10q-31 0 -47 -10t-24 -26q-7 -15 -9 -33q-2 -24 -2 -33l-4 -102h-74q0 63 1 84q0 9 0.5 26.5t1.5 24.5q1 17 3 28t6 23q16 43 56 68q39 24 94 24q59 0 92 -21q32 -20 48 -53q16 -31 17 -63q2 -44 2 -55q0 -30 -2 -76 q-1 -34 -11 -64q-9 -28 -32 -51t-61 -39q44 -17 68 -39q24 -23 36 -49q13 -30 16 -56q3 -30 3 -61q0 -48 -3 -101q-3 -51 -21 -95q-19 -46 -54 -71q-39 -28 -106 -28q-74 0 -113 30q-38 29 -56 75q-17 44 -19 97zM229 -121l750 1731l28 -14q4 -2 25 -11l-753 -1728 q-21 9 -25 11t-25 11zM760 268v88l231 547h96v-561h107v-74h-107v-268h-75v268h-252zM827 342h185v453z" />
<glyph unicode="&#xbf;" horiz-adv-x="724" d="M74 389q0 66 6 111q6 49 20 81q15 36 35 69q17 29 51 79q12 18 30.5 44.5t20.5 29.5q19 27 28 49t12 38q4 24 4 42v160h96v-174q0 -34 -4 -53t-14 -44q-9 -21 -27 -49q-5 -8 -20 -30t-25 -37q-35 -52 -58 -87q-19 -28 -35 -65q-15 -33 -19 -65q-5 -38 -5 -80 q0 -72 4 -128q4 -61 20 -111q15 -48 48 -78t90 -30t89 32q31 31 46 75q14 42 16 89q2 62 2 77q0 41 -1 62t-1 63h95q1 -54 3 -85q1 -20 1 -59q0 -36 -4 -87q-4 -56 -28 -112q-25 -58 -76 -98q-53 -41 -146 -41q-45 0 -84 14q-37 13 -64 33t-45 45q-19 27 -29 50 q-7 18 -12 37q-7 25 -11 51q-6 38 -7 75q-2 58 -2 107zM281 1262v184h96v-184h-96z" />
<glyph unicode="&#xc0;" horiz-adv-x="768" d="M49 0l264 1454h140l262 -1454h-107l-73 440h-304l-75 -440h-107zM121 1802h198l181 -221h-66zM248 535h268l-113 669q-5 16 -9 57q-3 23 -11 80q-1 -11 -3 -29q-2 -14 -3 -30q-3 -11 -5 -33q-2 -21 -5 -32z" />
<glyph unicode="&#xc1;" horiz-adv-x="768" d="M49 0l264 1454h140l262 -1454h-107l-73 440h-304l-75 -440h-107zM248 535h268l-113 669q-5 16 -9 57q-3 23 -11 80q-1 -11 -3 -29q-2 -14 -3 -30q-3 -11 -5 -33q-2 -21 -5 -32zM258 1575l172 223h193l-289 -223h-76z" />
<glyph unicode="&#xc2;" horiz-adv-x="768" d="M49 0l264 1454h140l262 -1454h-107l-73 440h-304l-75 -440h-107zM172 1575l160 223h102l150 -221h-82l-119 139l-125 -141h-86zM248 535h268l-113 669q-5 16 -9 57q-3 23 -11 80q-1 -11 -3 -29q-2 -14 -3 -30q-3 -11 -5 -33q-2 -21 -5 -32z" />
<glyph unicode="&#xc3;" horiz-adv-x="768" d="M49 0l264 1454h140l262 -1454h-107l-73 440h-304l-75 -440h-107zM160 1622q15 22 27 38q13 16 34 36q13 12 41 27q23 12 49 12q20 0 42 -5q6 -1 12.5 -3.5t15.5 -5.5t14 -5q38 -18 61 -26q12 -4 27 -4q29 0 47 15q24 20 50 50q3 -3 15 -13t17 -14q-42 -61 -70 -92 q-32 -35 -81 -35q-6 0 -35 9q-8 3 -26 8.5t-27 8.5q-38 12 -55 17q-31 9 -37 9q-33 0 -53 -18q-13 -12 -35 -36q-9 5 -18 13q-6 5 -15 14zM248 535h268l-113 669q-5 16 -9 57q-3 23 -11 80q-1 -11 -3 -29q-2 -14 -3 -30q-3 -11 -5 -33q-2 -21 -5 -32z" />
<glyph unicode="&#xc4;" horiz-adv-x="768" d="M49 0l264 1454h140l262 -1454h-107l-73 440h-304l-75 -440h-107zM178 1616v156h107v-156h-107zM248 535h268l-113 669q-5 16 -9 57q-3 23 -11 80q-1 -11 -3 -29q-2 -14 -3 -30q-3 -11 -5 -33q-2 -21 -5 -32zM481 1616v156h107v-156h-107z" />
<glyph unicode="&#xc5;" horiz-adv-x="768" d="M49 0l264 1454h140l262 -1454h-107l-73 440h-304l-75 -440h-107zM248 535h268l-113 669q-5 16 -9 57q-3 23 -11 80q-1 -11 -3 -29q-2 -14 -3 -30q-3 -11 -5 -33q-2 -21 -5 -32zM248 1667q0 55 40 95t95 40t95 -40t40 -95t-40 -95t-95 -40q-40 0 -64 15q-21 13 -32 24 q-9 9 -24 33t-15 63zM293 1667q0 -37 26 -63q27 -27 64 -27q36 0 63 27t27 63q0 37 -27 64q-26 26 -63 26q-38 0 -64 -26t-26 -64z" />
<glyph unicode="&#xc6;" horiz-adv-x="1024" d="M45 0l369 1446h534v-88h-325v-559h299v-90h-299v-619h360v-90h-459v627h-221l-153 -627h-105zM324 711h200v647h-37z" />
<glyph unicode="&#xc7;" horiz-adv-x="768" d="M106 328v784q0 74 10 146q9 66 64 122q44 44 99 62t116 18q93 0 160 -41q47 -29 80 -83t33 -154v-203h-101v134q0 52 -3 85q-3 29 -8 52q-4 15 -13 38q-22 42 -60 61t-88 19q-103 0 -146 -61q-44 -62 -44 -164v-715q0 -70 3 -134t21 -114q17 -47 60 -79q39 -29 117 -29 q66 0 101 25t52 59t20 65q3 33 3 45v232h102v-224q0 -44 -8 -97q-7 -47 -36 -92q-26 -41 -82 -72q-54 -30 -146 -36q0 -9 -1 -14t-1 -14q59 -16 103 -51t44 -99q0 -17 -8 -41q-7 -21 -25 -42q-16 -18 -44 -31q-29 -13 -66 -13q-58 0 -102 21q-58 28 -85 43q1 2 19 22 q1 1 8.5 10t11.5 13q23 -13 56 -28q25 -11 55 -11q38 0 55 20q19 22 19 45t-13 39t-29 24q-20 10 -36 14q-25 6 -33 7l4 89q-90 12 -138 54q-49 43 -70 95q-20 51 -25 108q-5 60 -5 91z" />
<glyph unicode="&#xc8;" horiz-adv-x="681" d="M80 1802h199l180 -221h-66zM121 0v1446h512v-90h-412v-557h338v-88h-340v-621h412v-90h-510z" />
<glyph unicode="&#xc9;" horiz-adv-x="681" d="M121 0v1446h512v-90h-412v-557h338v-88h-340v-621h412v-90h-510zM248 1575l172 223h192l-288 -223h-76z" />
<glyph unicode="&#xca;" horiz-adv-x="681" d="M121 0v1446h512v-90h-412v-557h338v-88h-340v-621h412v-90h-510zM152 1575l159 223h103l149 -221h-82l-119 139l-124 -141h-86z" />
<glyph unicode="&#xcb;" horiz-adv-x="681" d="M121 0v1446h512v-90h-412v-557h338v-88h-340v-621h412v-90h-510zM160 1616v156h106v-156h-106zM463 1616v156h106v-156h-106z" />
<glyph unicode="&#xcc;" horiz-adv-x="342" d="M-92 1802h198l181 -221h-66zM119 0v1446h104v-1446h-104z" />
<glyph unicode="&#xcd;" horiz-adv-x="342" d="M45 1575l172 223h193l-289 -223h-76zM119 0v1446h104v-1446h-104z" />
<glyph unicode="&#xce;" horiz-adv-x="342" d="M-41 1575l160 223h102l150 -221h-82l-119 139l-125 -141h-86zM119 0v1446h104v-1446h-104z" />
<glyph unicode="&#xcf;" horiz-adv-x="342" d="M-33 1616v156h107v-156h-107zM119 0v1446h104v-1446h-104zM270 1616v156h107v-156h-107z" />
<glyph unicode="&#xd0;" horiz-adv-x="811" d="M0 758v86h123v602h168q148 0 230 -52q83 -53 122 -137q40 -85 47 -191q8 -115 8 -220v-330q0 -82 -7 -166q-8 -91 -46 -168q-39 -78 -121 -130t-231 -52h-170v758h-123zM223 92q41 0 101 2q43 1 83 11q37 9 69 30q33 22 61 60q28 39 46 111q17 67 17 208v342 q0 106 -6 174q-6 64 -14 109q-7 37 -19 61l-16 33q-29 46 -65 70q-33 22 -77 35q-42 13 -87 14q-62 2 -93 2v-510h226v-86h-226v-666z" />
<glyph unicode="&#xd1;" horiz-adv-x="811" d="M113 0v1446h147l350 -1403q-4 46 -7 147q-3 90 -3 201l-8 1055h98v-1446h-153l-342 1382q1 -24 2.5 -60.5t1.5 -43.5q1 -36 3 -80q1 -25 1 -76v-94l4 -1028h-94zM182 1622q8 12 28 38q13 16 34 36q13 12 41 27q23 12 49 12q20 0 42 -5q6 -1 12.5 -3.5t15.5 -5.5t14 -5 q40 -19 60 -26q12 -4 28 -4q29 0 47 15q20 17 49 50q3 -3 15 -13q3 -3 9.5 -8t8.5 -6q-39 -57 -71 -92t-81 -35q-5 0 -34 9q-16 5 -54 17q-52 16 -54 17q-31 9 -38 9q-33 0 -52 -18t-36 -36q-5 3 -17 13t-16 14z" />
<glyph unicode="&#xd2;" horiz-adv-x="811" d="M113 309v815q0 88 13 139t38 87q40 59 106 86q64 26 142 26q69 0 132 -24q61 -23 101 -82q39 -57 45 -127q6 -69 6 -135v-797q0 -42 -8 -98q-7 -52 -39 -101q-29 -43 -86 -79q-59 -37 -162 -37q-71 0 -121 18t-82 47t-50 65q-18 35 -25 72q-8 38 -9 70q-1 22 -1 55z M143 1802h199l180 -221h-65zM209 348q0 -102 15 -155t63 -87q50 -34 119 -34q56 0 96 24q65 37 82 102q16 63 16 136v704q0 79 -8 161q-8 77 -51 122q-24 24 -61 38q-35 13 -74 13q-87 0 -138 -51q-23 -23 -35 -48q-13 -27 -17 -50t-6 -46q-1 -14 -1 -32v-797z" />
<glyph unicode="&#xd3;" horiz-adv-x="811" d="M113 309v815q0 88 13 139t38 87q40 59 106 86q64 26 142 26q69 0 132 -24q61 -23 101 -82q39 -57 45 -127q6 -69 6 -135v-797q0 -42 -8 -98q-7 -52 -39 -101q-29 -43 -86 -79q-59 -37 -162 -37q-71 0 -121 18t-82 47t-50 65q-18 35 -25 72q-8 38 -9 70q-1 22 -1 55z M209 348q0 -102 15 -155t63 -87q50 -34 119 -34q56 0 96 24q65 37 82 102q16 63 16 136v704q0 79 -8 161q-8 77 -51 122q-24 24 -61 38q-35 13 -74 13q-87 0 -138 -51q-23 -23 -35 -48q-13 -27 -17 -50t-6 -46q-1 -14 -1 -32v-797zM281 1575l172 223h192l-289 -223h-75z" />
<glyph unicode="&#xd4;" horiz-adv-x="811" d="M113 309v815q0 88 13 139t38 87q40 59 106 86q64 26 142 26q69 0 132 -24q61 -23 101 -82q39 -57 45 -127q6 -69 6 -135v-797q0 -42 -8 -98q-7 -52 -39 -101q-29 -43 -86 -79q-59 -37 -162 -37q-71 0 -121 18t-82 47t-50 65q-18 35 -25 72q-8 38 -9 70q-1 22 -1 55z M195 1575l159 223h103l149 -221h-82l-118 139l-125 -141h-86zM209 348q0 -102 15 -155t63 -87q50 -34 119 -34q56 0 96 24q65 37 82 102q16 63 16 136v704q0 79 -8 161q-8 77 -51 122q-24 24 -61 38q-35 13 -74 13q-87 0 -138 -51q-23 -23 -35 -48q-13 -27 -17 -50t-6 -46 q-1 -14 -1 -32v-797z" />
<glyph unicode="&#xd5;" horiz-adv-x="811" d="M113 309v815q0 88 13 139t38 87q40 59 106 86q64 26 142 26q69 0 132 -24q61 -23 101 -82q39 -57 45 -127q6 -69 6 -135v-797q0 -42 -8 -98q-7 -52 -39 -101q-29 -43 -86 -79q-59 -37 -162 -37q-71 0 -121 18t-82 47t-50 65q-18 35 -25 72q-8 38 -9 70q-1 22 -1 55z M182 1622q8 12 28 38q13 16 34 36q13 12 41 27q23 12 49 12q20 0 42 -5q6 -1 12.5 -3.5t15.5 -5.5t14 -5q40 -19 60 -26q12 -4 28 -4q29 0 47 15q20 17 49 50q3 -3 15 -13q3 -3 9.5 -8t8.5 -6q-39 -57 -71 -92t-81 -35q-5 0 -34 9q-16 5 -54 17q-52 16 -54 17q-31 9 -38 9 q-33 0 -52 -18t-36 -36q-5 3 -17 13t-16 14zM209 348q0 -102 15 -155t63 -87q50 -34 119 -34q56 0 96 24q65 37 82 102q16 63 16 136v704q0 79 -8 161q-8 77 -51 122q-24 24 -61 38q-35 13 -74 13q-87 0 -138 -51q-23 -23 -35 -48q-13 -27 -17 -50t-6 -46q-1 -14 -1 -32 v-797z" />
<glyph unicode="&#xd6;" horiz-adv-x="811" d="M113 309v815q0 88 13 139t38 87q40 59 106 86q64 26 142 26q69 0 132 -24q61 -23 101 -82q39 -57 45 -127q6 -69 6 -135v-797q0 -42 -8 -98q-7 -52 -39 -101q-29 -43 -86 -79q-59 -37 -162 -37q-71 0 -121 18t-82 47t-50 65q-18 35 -25 72q-8 38 -9 70q-1 22 -1 55z M199 1616v156h106v-156h-106zM209 348q0 -102 15 -155t63 -87q50 -34 119 -34q56 0 96 24q65 37 82 102q16 63 16 136v704q0 79 -8 161q-8 77 -51 122q-24 24 -61 38q-35 13 -74 13q-87 0 -138 -51q-23 -23 -35 -48q-13 -27 -17 -50t-6 -46q-1 -14 -1 -32v-797zM502 1616 v156h106v-156h-106z" />
<glyph unicode="&#xd7;" horiz-adv-x="1024" d="M135 285l311 313l-311 313l64 64l313 -311l313 311l64 -64l-309 -313l309 -313l-64 -66l-313 316l-313 -316z" />
<glyph unicode="&#xd8;" horiz-adv-x="811" d="M72 -37l73 172q-7 15 -23 62q-11 32 -11 104v729q0 75 1 104q2 51 4 77q3 33 11 62q7 26 23 56q23 44 54 71q33 29 67 44q34 16 72 22q42 7 67 7q16 0 50 -4q28 -3 50 -13q70 -23 99 -58q28 -34 46 -63l58 133l55 -26l-82 -193q2 -12 7 -47q3 -21 3 -57v-830 q0 -16 -5 -76q-4 -51 -33 -112q-26 -55 -88 -100q-59 -43 -171 -43q-51 0 -86 9q-37 10 -59 22q-24 13 -42 30q-19 18 -30 31l-57 -137q-6 4 -27 13q-7 3 -16 7t-10 4zM209 283l385 907q-4 30 -12 65q-7 32 -33 64q-30 39 -73 51q-42 12 -73 12q-91 0 -143 -65 q-39 -45 -45 -100t-6 -103v-831zM229 188q2 -4 6.5 -14.5t6.5 -15.5q8 -20 27 -37q20 -18 52 -32q30 -13 82 -13q61 0 98 19q39 20 59 53q23 38 30 81q8 50 8 103v708z" />
<glyph unicode="&#xd9;" horiz-adv-x="811" d="M117 342v1106h98v-1122q0 -37 3 -82q3 -42 22 -84q18 -40 57 -65q38 -25 111 -25q40 0 81 15t68 54q12 15 18 33q7 20 11 46q3 19 5 68q1 27 1 99v1063h100v-1159q0 -29 -4 -74q-4 -50 -32 -104q-29 -56 -87 -95q-61 -41 -168 -41q-45 0 -96 14q-49 13 -88 42 q-35 27 -57 64q-21 36 -30 76q-10 43 -11 84q-2 58 -2 87zM143 1802h199l180 -221h-65z" />
<glyph unicode="&#xda;" horiz-adv-x="811" d="M117 342v1106h98v-1122q0 -37 3 -82q3 -42 22 -84q18 -40 57 -65q38 -25 111 -25q40 0 81 15t68 54q12 15 18 33q7 20 11 46q3 19 5 68q1 27 1 99v1063h100v-1159q0 -29 -4 -74q-4 -50 -32 -104q-29 -56 -87 -95q-61 -41 -168 -41q-45 0 -96 14q-49 13 -88 42 q-35 27 -57 64q-21 36 -30 76q-10 43 -11 84q-2 58 -2 87zM281 1575l172 223h192l-289 -223h-75z" />
<glyph unicode="&#xdb;" horiz-adv-x="811" d="M117 342v1106h98v-1122q0 -37 3 -82q3 -42 22 -84q18 -40 57 -65q38 -25 111 -25q40 0 81 15t68 54q12 15 18 33q7 20 11 46q3 19 5 68q1 27 1 99v1063h100v-1159q0 -29 -4 -74q-4 -50 -32 -104q-29 -56 -87 -95q-61 -41 -168 -41q-45 0 -96 14q-49 13 -88 42 q-35 27 -57 64q-21 36 -30 76q-10 43 -11 84q-2 58 -2 87zM195 1575l159 223h103l149 -221h-82l-118 139l-125 -141h-86z" />
<glyph unicode="&#xdc;" horiz-adv-x="811" d="M117 342v1106h98v-1122q0 -37 3 -82q3 -42 22 -84q18 -40 57 -65q38 -25 111 -25q40 0 81 15t68 54q12 15 18 33q7 20 11 46q3 19 5 68q1 27 1 99v1063h100v-1159q0 -29 -4 -74q-4 -50 -32 -104q-29 -56 -87 -95q-61 -41 -168 -41q-45 0 -96 14q-49 13 -88 42 q-35 27 -57 64q-21 36 -30 76q-10 43 -11 84q-2 58 -2 87zM199 1616v156h106v-156h-106zM502 1616v156h106v-156h-106z" />
<glyph unicode="&#xdd;" horiz-adv-x="724" d="M29 1446h106l230 -680l231 680h111l-295 -807v-639h-99v639zM238 1575l172 223h192l-289 -223h-75z" />
<glyph unicode="&#xde;" horiz-adv-x="768" d="M117 0v1448h100v-242h125q97 0 168 -13q75 -14 121 -73q39 -46 45 -108t6 -129v-162q0 -31 -5 -89q-5 -53 -35 -100q-29 -45 -93 -80q-62 -34 -182 -34h-148v-418h-102zM217 504h162q76 0 115 20q40 21 60 53q21 34 25 70q5 43 5 74v123q0 88 -7 137q-8 54 -30 84 q-23 31 -65 43t-111 12h-154v-616z" />
<glyph unicode="&#xdf;" horiz-adv-x="724" d="M111 0v1182q0 48 8 101q7 49 35 90q28 42 77 65q51 24 140 24q45 0 91 -13q49 -14 83 -52q9 -10 28 -42t19 -102v-163q0 -58 -14 -92q-15 -36 -36 -57q-22 -21 -47 -32q-21 -9 -49 -18q61 -23 91 -44q34 -23 55 -54q20 -28 28 -72q7 -38 7 -98v-453q0 -94 -45 -140 t-131 -46q-5 0 -37 2q-24 2 -48 15t-42 42q-19 30 -19 82v162h62v-133q0 -56 28 -72t54 -16q33 0 51 15q19 16 26 36q10 28 11 40q2 26 2 29v377q0 54 -5 109q-4 49 -26 84q-22 36 -64 56q-46 22 -118 28v88q63 2 96 19q36 19 53 43q20 28 24 60q5 38 5 68q0 105 -1 127 q-2 37 -5 49q-7 29 -28 48t-40 26q-20 8 -40 10q-26 2 -28 2q-62 0 -95 -20q-34 -21 -49 -52q-16 -33 -17 -70q-2 -50 -2 -73v-1165h-88z" />
<glyph unicode="&#xe0;" d="M57 242q0 74 21 126q21 53 53 89t73 62q36 23 81 46q60 32 63 34q24 13 42 24q12 7 32 19q8 5 35 26v118q0 36 -3 66t-17 53t-40 36t-71 13q-52 0 -79 -18q-28 -18 -41 -51q-15 -36 -16 -77q-2 -58 -2 -95h-88q0 65 4 116q4 56 26 104q21 46 70 75q47 28 136 28 q79 0 121 -26t62 -63t23 -74t3 -62v-692q0 -28 19 -32q22 -5 42 -5v-82q-69 0 -100 14q-32 14 -47 66q-30 -23 -81 -53q-46 -27 -118 -27q-56 0 -93 19q-40 21 -63 54q-22 32 -35 78q-12 44 -12 91zM82 1389h199l178 -224h-68zM145 240q0 -60 31 -110q30 -48 103 -48 q67 0 108 32q45 35 72 66v391l-22 -14q-3 -2 -10.5 -6.5t-10.5 -6.5q-4 -2 -8.5 -5t-11.5 -6.5t-11 -6.5q-6 -4 -22.5 -12.5t-26.5 -13.5q-33 -19 -74 -44q-33 -20 -60 -52t-41 -68q-16 -42 -16 -96z" />
<glyph unicode="&#xe1;" d="M57 242q0 74 21 126q21 53 53 89t73 62q36 23 81 46q60 32 63 34q24 13 42 24q12 7 32 19q8 5 35 26v118q0 36 -3 66t-17 53t-40 36t-71 13q-52 0 -79 -18q-28 -18 -41 -51q-15 -36 -16 -77q-2 -58 -2 -95h-88q0 65 4 116q4 56 26 104q21 46 70 75q47 28 136 28 q79 0 121 -26t62 -63t23 -74t3 -62v-692q0 -28 19 -32q22 -5 42 -5v-82q-69 0 -100 14q-32 14 -47 66q-30 -23 -81 -53q-46 -27 -118 -27q-56 0 -93 19q-40 21 -63 54q-22 32 -35 78q-12 44 -12 91zM145 240q0 -60 31 -110q30 -48 103 -48q67 0 108 32q45 35 72 66v391 l-22 -14q-3 -2 -10.5 -6.5t-10.5 -6.5q-4 -2 -8.5 -5t-11.5 -6.5t-11 -6.5q-6 -4 -22.5 -12.5t-26.5 -13.5q-33 -19 -74 -44q-33 -20 -60 -52t-41 -68q-16 -42 -16 -96zM215 1161l172 223h195l-293 -223h-74z" />
<glyph unicode="&#xe2;" d="M57 242q0 74 21 126q21 53 53 89t73 62q36 23 81 46q60 32 63 34q24 13 42 24q12 7 32 19q8 5 35 26v118q0 36 -3 66t-17 53t-40 36t-71 13q-52 0 -79 -18q-28 -18 -41 -51q-15 -36 -16 -77q-2 -58 -2 -95h-88q0 65 4 116q4 56 26 104q21 46 70 75q47 28 136 28 q79 0 121 -26t62 -63t23 -74t3 -62v-692q0 -28 19 -32q22 -5 42 -5v-82q-69 0 -100 14q-32 14 -47 66q-30 -23 -81 -53q-46 -27 -118 -27q-56 0 -93 19q-40 21 -63 54q-22 32 -35 78q-12 44 -12 91zM133 1165l158 222h102l148 -222h-80l-119 140l-125 -140h-84zM145 240 q0 -60 31 -110q30 -48 103 -48q67 0 108 32q45 35 72 66v391l-22 -14q-3 -2 -10.5 -6.5t-10.5 -6.5q-4 -2 -8.5 -5t-11.5 -6.5t-11 -6.5q-6 -4 -22.5 -12.5t-26.5 -13.5q-33 -19 -74 -44q-33 -20 -60 -52t-41 -68q-16 -42 -16 -96z" />
<glyph unicode="&#xe3;" d="M57 242q0 74 21 126q21 53 53 89t73 62q36 23 81 46q60 32 63 34q24 13 42 24q12 7 32 19q8 5 35 26v118q0 36 -3 66t-17 53t-40 36t-71 13q-52 0 -79 -18q-28 -18 -41 -51q-15 -36 -16 -77q-2 -58 -2 -95h-88q0 65 4 116q4 56 26 104q21 46 70 75q47 28 136 28 q79 0 121 -26t62 -63t23 -74t3 -62v-692q0 -28 19 -32q22 -5 42 -5v-82q-69 0 -100 14q-32 14 -47 66q-30 -23 -81 -53q-46 -27 -118 -27q-56 0 -93 19q-40 21 -63 54q-22 32 -35 78q-12 44 -12 91zM119 1210q21 31 26 38q15 20 33 36q16 15 41 28q21 11 51 11q18 0 41 -5 q12 -2 41 -13q46 -22 62 -27q13 -4 28 -4q29 0 47 15q21 18 48 50q2 -2 8 -6t9 -7q12 -10 15 -13q-42 -64 -69 -92q-33 -35 -82 -35q-9 0 -35 8l-52 17q-5 2 -24 8.5t-29 9.5q-27 8 -38 8q-35 0 -53 -17q-13 -12 -35 -36q-13 8 -18 12q-6 5 -15 14zM145 240q0 -60 31 -110 q30 -48 103 -48q67 0 108 32q45 35 72 66v391l-22 -14q-3 -2 -10.5 -6.5t-10.5 -6.5q-4 -2 -8.5 -5t-11.5 -6.5t-11 -6.5q-6 -4 -22.5 -12.5t-26.5 -13.5q-33 -19 -74 -44q-33 -20 -60 -52t-41 -68q-16 -42 -16 -96z" />
<glyph unicode="&#xe4;" d="M57 242q0 74 21 126q21 53 53 89t73 62q36 23 81 46q60 32 63 34q24 13 42 24q12 7 32 19q8 5 35 26v118q0 36 -3 66t-17 53t-40 36t-71 13q-52 0 -79 -18q-28 -18 -41 -51q-15 -36 -16 -77q-2 -58 -2 -95h-88q0 65 4 116q4 56 26 104q21 46 70 75q47 28 136 28 q79 0 121 -26t62 -63t23 -74t3 -62v-692q0 -28 19 -32q22 -5 42 -5v-82q-69 0 -100 14q-32 14 -47 66q-30 -23 -81 -53q-46 -27 -118 -27q-56 0 -93 19q-40 21 -63 54q-22 32 -35 78q-12 44 -12 91zM145 240q0 -60 31 -110q30 -48 103 -48q67 0 108 32q45 35 72 66v391 l-22 -14q-3 -2 -10.5 -6.5t-10.5 -6.5q-4 -2 -8.5 -5t-11.5 -6.5t-11 -6.5q-6 -4 -22.5 -12.5t-26.5 -13.5q-33 -19 -74 -44q-33 -20 -60 -52t-41 -68q-16 -42 -16 -96zM186 1198v158h99v-158h-99zM389 1198v158h98v-158h-98z" />
<glyph unicode="&#xe5;" d="M57 242q0 74 21 126q21 53 53 89t73 62q36 23 81 46q60 32 63 34q24 13 42 24q12 7 32 19q8 5 35 26v118q0 36 -3 66t-17 53t-40 36t-71 13q-52 0 -79 -18q-28 -18 -41 -51q-15 -36 -16 -77q-2 -58 -2 -95h-88q0 65 4 116q4 56 26 104q21 46 70 75q47 28 136 28 q79 0 121 -26t62 -63t23 -74t3 -62v-692q0 -28 19 -32q22 -5 42 -5v-82q-69 0 -100 14q-32 14 -47 66q-30 -23 -81 -53q-46 -27 -118 -27q-56 0 -93 19q-40 21 -63 54q-22 32 -35 78q-12 44 -12 91zM145 240q0 -60 31 -110q30 -48 103 -48q67 0 108 32q45 35 72 66v391 l-22 -14q-3 -2 -10.5 -6.5t-10.5 -6.5q-4 -2 -8.5 -5t-11.5 -6.5t-11 -6.5q-6 -4 -22.5 -12.5t-26.5 -13.5q-33 -19 -74 -44q-33 -20 -60 -52t-41 -68q-16 -42 -16 -96zM203 1260q0 57 40 97t95 40t95 -40t40 -97q0 -56 -40 -96t-95 -40q-38 0 -64 16q-24 15 -32 23 q-9 9 -24 33t-15 64zM248 1260q0 -37 26 -63q28 -28 64 -28q35 0 63 28q27 27 27 63q0 37 -27 64q-28 28 -63 28q-36 0 -64 -28q-26 -26 -26 -64z" />
<glyph unicode="&#xe6;" horiz-adv-x="1024" d="M61 240q0 124 56 194q58 72 159 121q26 13 56 29q7 4 21 11t21 11q16 9 40 24q30 19 51 34v159q0 12 -3 42t-26 53q-23 25 -54 29q-35 5 -44 5q-23 0 -53 -8q-27 -7 -49 -29q-30 -34 -34 -80q-5 -53 -5 -118h-88q0 89 7 148q8 64 54 110q9 9 48 34q36 23 124 23 q46 0 76 -9q28 -9 52 -22q24 -14 34 -26l20 -25q5 7 23 25q14 14 36 28q19 12 53 22q32 9 75 9q87 0 133 -30q47 -30 68 -76q22 -46 26 -94q4 -44 4 -89v-219h-389v-213q0 -30 2 -72q1 -29 10 -57q21 -64 63 -85t77 -21q31 0 61 11q33 12 55 40q13 18 20 32q7 13 10 38 q2 18 4 59q1 25 1 96h88v-65q0 -33 -1 -46q-2 -22 -3 -35q0 -5 -1.5 -15.5t-2.5 -16.5q-11 -48 -33 -82q-23 -35 -53 -56q-31 -22 -68 -32q-36 -10 -71 -10q-51 0 -84 10q-36 11 -60 29q-23 17 -42 41q-7 9 -31 47q-34 -48 -68 -73t-66 -38q-31 -13 -54 -14q-32 -2 -34 -2 q-36 0 -69 10q-35 11 -62 33q-47 35 -63 91q-17 59 -17 110zM147 242q0 -33 11 -69q10 -34 28 -56q18 -21 46 -30q27 -9 59 -9q41 0 70 13q31 14 50 33q17 17 32 42q3 5 24 41v371q-4 -3 -13.5 -10.5t-14.5 -10.5q-3 -2 -11 -7.5t-13 -8.5q-4 -2 -9.5 -5t-13 -7.5 l-12.5 -7.5q-8 -4 -26.5 -14t-27.5 -15q-26 -13 -56 -31q-32 -19 -58 -48q-29 -32 -46 -72q-19 -44 -19 -99zM553 600h303v180q0 24 -5 66q-4 35 -34 65q-23 23 -53 32t-57 9q-32 0 -62 -11q-34 -12 -57 -40q-20 -26 -28 -61q-7 -32 -7 -97v-143z" />
<glyph unicode="&#xe7;" d="M82 295v475q0 25 4 64q4 42 26 87q21 43 69 76t138 33q42 0 74 -8q24 -6 52 -20q26 -15 33 -22q6 -6 18 -15q20 -25 34 -55q14 -32 18 -63q4 -36 6 -80q1 -29 1 -103h-86v71q0 35 -1 49q-2 24 -4 34q-5 23 -7 30q-16 49 -48 77q-33 29 -87 29q-59 0 -89 -24 q-29 -23 -45 -58q-14 -32 -16 -63q-2 -40 -2 -45v-442q0 -26 2 -84q1 -42 17 -79q15 -35 49 -60q32 -23 94 -23q53 0 83 21q28 20 43 49q13 27 15 56q2 36 2 42v149h90v-133q0 -32 -3 -72q-3 -42 -23 -80q-21 -40 -65 -72q-45 -33 -124 -40q-1 -7 -3 -23q-1 -8 -1 -22 q62 -19 104 -52q44 -35 44 -98q0 -16 -9 -43q-7 -22 -24 -42q-16 -18 -44 -31q-29 -13 -67 -13q-58 0 -101 21q-58 28 -85 43q6 8 18 22q14 16 21 23q23 -13 56 -28q25 -11 54 -11q38 0 56 21t18 44q0 25 -12 40q-13 17 -30 25q-20 10 -36 14q-31 8 -33 8l7 102 q-77 10 -117 45q-42 36 -60 79t-21 91q-3 47 -3 84z" />
<glyph unicode="&#xe8;" d="M59 1389h199l178 -224h-67zM88 250v538q0 120 60 184t171 64q92 0 139 -32q48 -33 70 -82q23 -50 27 -106q4 -51 4 -103v-207h-385v-254q0 -99 44 -137q43 -37 108 -37q13 0 25 1q17 1 38 9q20 7 39 26q20 20 31 50q7 14 8 23q0 3 1 8.5l2 11t1 11.5q2 26 2 51v87h86 v-114q0 -119 -61 -181q-62 -63 -176 -63q-39 0 -79 10q-44 11 -83 47q-43 37 -58 83q-14 43 -14 112zM174 578h297v190q0 2 -2 44q-2 34 -16 64q-16 33 -44 57q-29 25 -85 25t-86 -24t-45 -56q-16 -33 -17 -66q-2 -46 -2 -52v-182z" />
<glyph unicode="&#xe9;" d="M88 250v538q0 120 60 184t171 64q92 0 139 -32q48 -33 70 -82q23 -50 27 -106q4 -51 4 -103v-207h-385v-254q0 -99 44 -137q43 -37 108 -37q13 0 25 1q17 1 38 9q20 7 39 26q20 20 31 50q7 14 8 23q0 3 1 8.5l2 11t1 11.5q2 26 2 51v87h86v-114q0 -119 -61 -181 q-62 -63 -176 -63q-39 0 -79 10q-44 11 -83 47q-43 37 -58 83q-14 43 -14 112zM174 578h297v190q0 2 -2 44q-2 34 -16 64q-16 33 -44 57q-29 25 -85 25t-86 -24t-45 -56q-16 -33 -17 -66q-2 -46 -2 -52v-182zM193 1161l172 223h194l-293 -223h-73z" />
<glyph unicode="&#xea;" d="M88 250v538q0 120 60 184t171 64q92 0 139 -32q48 -33 70 -82q23 -50 27 -106q4 -51 4 -103v-207h-385v-254q0 -99 44 -137q43 -37 108 -37q13 0 25 1q17 1 38 9q20 7 39 26q20 20 31 50q7 14 8 23q0 3 1 8.5l2 11t1 11.5q2 26 2 51v87h86v-114q0 -119 -61 -181 q-62 -63 -176 -63q-39 0 -79 10q-44 11 -83 47q-43 37 -58 83q-14 43 -14 112zM111 1165l157 221h103l147 -221h-80l-119 140l-124 -140h-84zM174 578h297v190q0 2 -2 44q-2 34 -16 64q-16 33 -44 57q-29 25 -85 25t-86 -24t-45 -56q-16 -33 -17 -66q-2 -46 -2 -52v-182z " />
<glyph unicode="&#xeb;" d="M88 250v538q0 120 60 184t171 64q92 0 139 -32q48 -33 70 -82q23 -50 27 -106q4 -51 4 -103v-207h-385v-254q0 -99 44 -137q43 -37 108 -37q13 0 25 1q17 1 38 9q20 7 39 26q20 20 31 50q7 14 8 23q0 3 1 8.5l2 11t1 11.5q2 26 2 51v87h86v-114q0 -119 -61 -181 q-62 -63 -176 -63q-39 0 -79 10q-44 11 -83 47q-43 37 -58 83q-14 43 -14 112zM164 1198v158h98v-158h-98zM174 578h297v190q0 2 -2 44q-2 34 -16 64q-16 33 -44 57q-29 25 -85 25t-86 -24t-45 -56q-16 -33 -17 -66q-2 -46 -2 -52v-182zM367 1198v158h98v-158h-98z" />
<glyph unicode="&#xec;" horiz-adv-x="299" d="M-109 1389h199l178 -224h-67zM106 0v1032h89v-1032h-89z" />
<glyph unicode="&#xed;" horiz-adv-x="299" d="M25 1161l172 223h194l-293 -223h-73zM106 0v1032h89v-1032h-89z" />
<glyph unicode="&#xee;" horiz-adv-x="299" d="M-57 1165l157 221h103l147 -221h-80l-118 140l-125 -140h-84zM106 0v1032h89v-1032h-89z" />
<glyph unicode="&#xef;" horiz-adv-x="299" d="M-4 1198v158h98v-158h-98zM106 0v1032h89v-1032h-89zM199 1198v158h98v-158h-98z" />
<glyph unicode="&#xf0;" d="M80 248v540q0 93 36 144q37 52 79 74q41 21 80 26q33 4 44 4q67 0 100 -26q31 -24 58 -58q-6 72 -18 132q-12 61 -62 141l-211 -80l-28 63l196 76q-49 57 -80 84q-39 34 -61 51l72 37q14 -12 46 -42q26 -24 35 -33t29 -31q23 -25 33 -37l133 49l27 -66l-117 -43 q13 -20 31 -57q14 -29 29 -84q14 -54 23 -128q9 -76 9 -189l-2 -502q0 -68 -7 -111q-8 -46 -36 -90q-36 -48 -88 -72q-54 -24 -113 -24q-18 0 -53 4q-40 5 -84 31q-65 37 -83 94q-17 54 -17 123zM168 250q0 -3 2 -41q2 -30 16 -57q17 -32 44 -51q30 -21 85 -21q64 0 111 38 t47 140v514q0 4 -2 44q-2 31 -16 60q-15 30 -43 52t-84 22q-60 0 -92 -22q-34 -23 -49 -55q-16 -33 -17 -66q-2 -46 -2 -59v-498z" />
<glyph unicode="&#xf1;" horiz-adv-x="681" d="M113 0v1032h86v-100q13 23 25 38q13 17 46 40q51 32 119 32q20 0 50 -5q29 -5 57 -21q33 -18 51 -45q19 -29 26 -53q9 -31 10 -52q1 -16 1 -39v-827h-86v825q0 39 -13 68q-12 26 -30 43q-16 15 -41 23q-24 8 -43 8q-38 0 -75 -17q-36 -16 -60 -45q-16 -18 -24 -35 q-7 -15 -13 -32v-838h-86zM119 1210q21 31 26 38q15 20 33 36q16 15 41 28q21 11 51 11q18 0 41 -5q12 -2 41 -13q46 -22 62 -27q13 -4 28 -4q29 0 47 15q21 18 48 50q2 -2 8 -6t9 -7q12 -10 15 -13q-42 -64 -69 -92q-33 -35 -82 -35q-9 0 -35 8l-52 17q-5 2 -24 8.5 t-29 9.5q-27 8 -38 8q-35 0 -53 -17q-13 -12 -35 -36q-13 8 -18 12q-6 5 -15 14z" />
<glyph unicode="&#xf2;" d="M59 1389h199l178 -224h-67zM80 248v540q0 79 25 126q26 50 63 76q40 29 80 37q44 9 78 9q88 0 136 -30q47 -30 69 -73t26 -84q4 -37 4 -67v-489q0 -59 -8 -110q-7 -45 -37 -91q-22 -35 -55 -56q-31 -20 -61 -29q-28 -8 -52 -10q-15 -1 -31 -1q-18 0 -53 4q-40 5 -84 31 q-65 37 -83 94q-17 54 -17 123zM168 250q0 -3 2 -41q2 -30 16 -57q17 -32 44 -51q30 -21 85 -21q31 0 60 9t50 30q23 23 35 54q13 33 13 85v514q0 4 -2 44q-2 31 -16 60q-15 30 -43 52t-84 22q-60 0 -92 -22q-34 -23 -49 -55q-16 -33 -17 -66q-2 -46 -2 -59v-498z" />
<glyph unicode="&#xf3;" d="M80 248v540q0 79 25 126q26 50 63 76q40 29 80 37q44 9 78 9q88 0 136 -30q47 -30 69 -73t26 -84q4 -37 4 -67v-489q0 -59 -8 -110q-7 -45 -37 -91q-22 -35 -55 -56q-31 -20 -61 -29q-28 -8 -52 -10q-15 -1 -31 -1q-18 0 -53 4q-40 5 -84 31q-65 37 -83 94 q-17 54 -17 123zM168 250q0 -3 2 -41q2 -30 16 -57q17 -32 44 -51q30 -21 85 -21q31 0 60 9t50 30q23 23 35 54q13 33 13 85v514q0 4 -2 44q-2 31 -16 60q-15 30 -43 52t-84 22q-60 0 -92 -22q-34 -23 -49 -55q-16 -33 -17 -66q-2 -46 -2 -59v-498zM193 1161l172 223h194 l-293 -223h-73z" />
<glyph unicode="&#xf4;" d="M80 248v540q0 79 25 126q26 50 63 76q40 29 80 37q44 9 78 9q88 0 136 -30q47 -30 69 -73t26 -84q4 -37 4 -67v-489q0 -59 -8 -110q-7 -45 -37 -91q-22 -35 -55 -56q-31 -20 -61 -29q-28 -8 -52 -10q-15 -1 -31 -1q-18 0 -53 4q-40 5 -84 31q-65 37 -83 94 q-17 54 -17 123zM111 1165l157 221h103l147 -221h-80l-119 140l-124 -140h-84zM168 250q0 -3 2 -41q2 -30 16 -57q17 -32 44 -51q30 -21 85 -21q31 0 60 9t50 30q23 23 35 54q13 33 13 85v514q0 4 -2 44q-2 31 -16 60q-15 30 -43 52t-84 22q-60 0 -92 -22q-34 -23 -49 -55 q-16 -33 -17 -66q-2 -46 -2 -59v-498z" />
<glyph unicode="&#xf5;" d="M80 248v540q0 79 25 126q26 50 63 76q40 29 80 37q44 9 78 9q88 0 136 -30q47 -30 69 -73t26 -84q4 -37 4 -67v-489q0 -59 -8 -110q-7 -45 -37 -91q-22 -35 -55 -56q-31 -20 -61 -29q-28 -8 -52 -10q-15 -1 -31 -1q-18 0 -53 4q-40 5 -84 31q-65 37 -83 94 q-17 54 -17 123zM96 1210q14 22 27 38q15 20 33 36q16 15 41 28q21 11 51 11q18 0 41 -5q12 -2 41 -13q47 -23 61 -27q13 -4 29 -4q29 0 47 15t47 50q2 -2 8 -6t9 -7q2 -2 8 -6.5t8 -6.5q-40 -60 -70 -92q-33 -35 -82 -35q-9 0 -35 8l-52 17q-5 2 -24 8.5t-29 9.5 q-27 8 -38 8q-34 0 -52 -17q-19 -18 -36 -36q-9 6 -17 12q-12 10 -16 14zM168 250q0 -3 2 -41q2 -30 16 -57q17 -32 44 -51q30 -21 85 -21q31 0 60 9t50 30q23 23 35 54q13 33 13 85v514q0 4 -2 44q-2 31 -16 60q-15 30 -43 52t-84 22q-60 0 -92 -22q-34 -23 -49 -55 q-16 -33 -17 -66q-2 -46 -2 -59v-498z" />
<glyph unicode="&#xf6;" d="M80 248v540q0 79 25 126q26 50 63 76q40 29 80 37q44 9 78 9q88 0 136 -30q47 -30 69 -73t26 -84q4 -37 4 -67v-489q0 -59 -8 -110q-7 -45 -37 -91q-22 -35 -55 -56q-31 -20 -61 -29q-28 -8 -52 -10q-15 -1 -31 -1q-18 0 -53 4q-40 5 -84 31q-65 37 -83 94 q-17 54 -17 123zM168 250q0 -3 2 -41q2 -30 16 -57q17 -32 44 -51q30 -21 85 -21q31 0 60 9t50 30q23 23 35 54q13 33 13 85v514q0 4 -2 44q-2 31 -16 60q-15 30 -43 52t-84 22q-60 0 -92 -22q-34 -23 -49 -55q-16 -33 -17 -66q-2 -46 -2 -59v-498zM170 1198v158h98v-158 h-98zM373 1198v158h98v-158h-98z" />
<glyph unicode="&#xf7;" horiz-adv-x="1024" d="M0 549v94h1024v-94h-1024zM436 348q0 31 22 56q21 24 56 24q36 0 59 -24q23 -25 23 -56t-23 -56q-23 -24 -57 -24t-57 24q-23 25 -23 56zM436 844q0 31 22 56q21 24 56 24q36 0 59 -24q23 -25 23 -56q0 -32 -23 -57q-22 -23 -57 -23t-57 23q-23 25 -23 57z" />
<glyph unicode="&#xf8;" d="M45 10l55 109q-9 25 -16 57q-6 29 -6 64v518q0 44 9 94q9 48 36 89q27 40 76 67q48 26 129 26q45 0 79 -8q30 -7 54 -20q21 -11 36 -28q9 -10 23 -30l45 84l19 -9l18 -9l-59 -115q7 -29 12 -48q4 -17 4 -60v-545q0 -118 -63 -184t-187 -66q-69 0 -112 23q-45 24 -74 59 l-43 -86l-19 9q-9 4 -16 9zM166 250l299 588q-6 20 -10 34q-5 19 -22 37q-16 17 -42 29q-27 12 -69 12q-62 0 -91 -23q-31 -25 -46 -56q-16 -33 -17 -64q-2 -44 -2 -53v-504zM174 176q1 -6 10 -26q7 -15 24 -32t42 -28q27 -12 67 -12q59 0 90 22q32 23 47 57q16 36 17 75 q2 56 2 79v445z" />
<glyph unicode="&#xf9;" horiz-adv-x="681" d="M82 1389h199l178 -224h-68zM102 238v794h86v-774q0 -24 3 -56q3 -31 17 -62q13 -28 41 -50q26 -20 75 -20q41 0 66 14q31 17 46 35q19 22 30 44q9 18 17 40v829h88v-1030h-88v96l-25 -30q-16 -20 -38 -34t-53 -27q-27 -11 -70 -11q-63 0 -113 33q-31 22 -47 48 q-17 27 -24 57q-9 35 -10 56q-1 18 -1 48z" />
<glyph unicode="&#xfa;" horiz-adv-x="681" d="M102 238v794h86v-774q0 -24 3 -56q3 -31 17 -62q13 -28 41 -50q26 -20 75 -20q41 0 66 14q31 17 46 35q19 22 30 44q9 18 17 40v829h88v-1030h-88v96l-25 -30q-16 -20 -38 -34t-53 -27q-27 -11 -70 -11q-63 0 -113 33q-31 22 -47 48q-17 27 -24 57q-9 35 -10 56 q-1 18 -1 48zM215 1161l172 223h195l-293 -223h-74z" />
<glyph unicode="&#xfb;" horiz-adv-x="681" d="M102 238v794h86v-774q0 -24 3 -56q3 -31 17 -62q13 -28 41 -50q26 -20 75 -20q41 0 66 14q31 17 46 35q19 22 30 44q9 18 17 40v829h88v-1030h-88v96l-25 -30q-16 -20 -38 -34t-53 -27q-27 -11 -70 -11q-63 0 -113 33q-31 22 -47 48q-17 27 -24 57q-9 35 -10 56 q-1 18 -1 48zM133 1165l158 221h102l148 -221h-80l-119 140l-125 -140h-84z" />
<glyph unicode="&#xfc;" horiz-adv-x="681" d="M102 238v794h86v-774q0 -24 3 -56q3 -31 17 -62q13 -28 41 -50q26 -20 75 -20q41 0 66 14q31 17 46 35q19 22 30 44q9 18 17 40v829h88v-1030h-88v96l-25 -30q-16 -20 -38 -34t-53 -27q-27 -11 -70 -11q-63 0 -113 33q-31 22 -47 48q-17 27 -24 57q-9 35 -10 56 q-1 18 -1 48zM186 1198v158h99v-158h-99zM389 1198v158h98v-158h-98z" />
<glyph unicode="&#xfd;" horiz-adv-x="598" d="M18 -248q16 -2 23 -3t22 -1q52 0 82 18q36 22 50 40q17 23 25 48t9 35l25 119l-223 1024h88l180 -856l182 856h92l-264 -1147q-18 -79 -48 -122q-32 -46 -66 -65q-41 -23 -82 -27q-50 -5 -95 -5v86zM174 1161l172 223h195l-293 -223h-74z" />
<glyph unicode="&#xfe;" horiz-adv-x="681" d="M111 -334v1782h84v-514q15 19 28 33q15 16 39 34q21 15 54 28q29 11 73 11q39 0 69 -12q29 -12 51 -32t36 -43q14 -22 22 -48q14 -45 15 -79q2 -54 2 -93v-500q0 -65 -20 -113q-20 -47 -50 -74t-68 -39q-34 -11 -69 -11q-41 0 -70 9q-26 8 -49 23q-20 13 -35 28 q-6 6 -14.5 16.5t-9.5 11.5v-418h-88zM199 193q0 -7 9 -26q8 -17 29 -40q20 -21 49 -36q30 -15 72 -15q52 0 79 21q26 21 41 53t16 65q2 46 2 61v525q0 51 -15 84t-35 49q-21 16 -44 22q-28 7 -40 7q-43 0 -73 -18q-31 -19 -51 -40q-21 -23 -30 -45t-9 -33v-634z" />
<glyph unicode="&#xff;" horiz-adv-x="598" d="M18 -248q16 -2 23 -3t22 -1q52 0 82 18q36 22 50 40q17 23 25 48t9 35l25 119l-223 1024h88l180 -856l182 856h92l-264 -1147q-18 -79 -48 -122q-32 -46 -66 -65q-41 -23 -82 -27q-50 -5 -95 -5v86zM166 1198v158h98v-158h-98zM369 1198v158h98v-158h-98z" />
<glyph unicode="&#x152;" horiz-adv-x="1110" d="M102 283v833q0 111 23 180q23 68 82 111q31 25 79 41q41 14 105 14q89 0 133 -28q39 -25 72 -54v68h473v-90h-377v-565h334v-86h-332v-619h377v-88h-473v82q-2 -3 -29 -32q-17 -18 -42 -33q-22 -13 -63 -26q-34 -11 -89 -11q-142 0 -207 83q-66 84 -66 220zM199 334 q0 -33 2 -87q1 -41 18 -75q22 -46 67 -77q42 -29 101 -29q27 0 64 9q34 8 69 35q33 26 55 68q23 44 23 111v772q0 45 -3 99q-3 55 -24 103t-62 80q-42 33 -122 33q-53 0 -90 -18t-58 -48q-23 -32 -31 -67q-9 -37 -9 -76v-833z" />
<glyph unicode="&#x153;" horiz-adv-x="1024" d="M86 264v467q0 72 5 127q4 49 38 90q16 24 61 53q48 31 134 31q46 0 77 -10q35 -11 57 -25q24 -15 38 -32q6 -7 15 -18.5t11 -14.5q8 14 23 31q16 19 37 33q24 16 56 27t83 11q109 0 170 -67q41 -50 48 -112q7 -59 7 -142v-191h-385v-203q0 -18 2 -74q1 -41 17 -80 q16 -40 46 -64q31 -25 89 -25q10 0 30 2q12 1 29 8q29 12 57 44q27 32 27 108v108h88v-87q0 -36 -3 -63q-3 -24 -8 -49q-3 -14 -13 -38q-28 -60 -82 -89q-52 -28 -119 -28q-55 0 -91 12q-35 12 -59 31q-20 16 -35 39q-18 28 -22 37q-39 -59 -89 -90q-48 -29 -118 -29 q-84 0 -128 32q-45 33 -65 74q-22 46 -25 89q-3 46 -3 77zM172 319q0 -28 2 -86q2 -44 16 -77q16 -37 43 -58q28 -22 84 -22q59 0 90 24q32 24 47 59q16 36 17 67q2 46 2 50v494q0 96 -40 139t-109 43q-20 0 -39 -4q-22 -5 -43 -16q-25 -15 -41 -36q-15 -19 -21 -41 q-5 -19 -7 -44q-1 -15 -1 -41v-451zM559 596h299v168q0 30 -4 59q-5 36 -17 63q-13 29 -42 49q-28 19 -78 19q-31 0 -58 -10q-28 -10 -51 -32q-23 -21 -36 -58q-13 -36 -13 -88v-170z" />
<glyph unicode="&#x178;" horiz-adv-x="724" d="M29 1446h106l230 -680l231 680h111l-295 -807v-639h-99v639zM160 1616v156h106v-156h-106zM463 1616v156h106v-156h-106z" />
<glyph unicode="&#x2c6;" horiz-adv-x="468" d="M31 1165l157 221h103l147 -221h-80l-118 140l-125 -140h-84z" />
<glyph unicode="&#x2dc;" horiz-adv-x="468" d="M8 1210q15 22 27 38q15 20 33 36q16 15 41 28q21 11 51 11q18 0 41 -5q11 -2 41 -13q47 -23 61 -27q13 -4 29 -4q29 0 47 15t47 50q2 -2 8 -6t9 -7q2 -2 8 -6.5t8 -6.5q-40 -60 -70 -92q-33 -35 -82 -35q-9 0 -35 8l-52 17q-5 2 -24 8.5t-29 9.5q-27 8 -38 8 q-34 0 -52 -17q-19 -18 -36 -36q-9 6 -17 12q-12 10 -16 14z" />
<glyph unicode="&#x2000;" horiz-adv-x="901" />
<glyph unicode="&#x2001;" horiz-adv-x="1802" />
<glyph unicode="&#x2002;" horiz-adv-x="901" />
<glyph unicode="&#x2003;" horiz-adv-x="1802" />
<glyph unicode="&#x2004;" horiz-adv-x="600" />
<glyph unicode="&#x2005;" horiz-adv-x="450" />
<glyph unicode="&#x2006;" horiz-adv-x="300" />
<glyph unicode="&#x2007;" horiz-adv-x="300" />
<glyph unicode="&#x2008;" horiz-adv-x="225" />
<glyph unicode="&#x2009;" horiz-adv-x="360" />
<glyph unicode="&#x200a;" horiz-adv-x="100" />
<glyph unicode="&#x2010;" horiz-adv-x="512" d="M76 555v88h362v-88h-362z" />
<glyph unicode="&#x2011;" horiz-adv-x="512" d="M76 555v88h362v-88h-362z" />
<glyph unicode="&#x2012;" horiz-adv-x="512" d="M76 555v88h362v-88h-362z" />
<glyph unicode="&#x2013;" horiz-adv-x="724" d="M72 555v88h581v-88h-581z" />
<glyph unicode="&#x2014;" horiz-adv-x="980" d="M70 555v86h841v-86h-841z" />
<glyph unicode="&#x2018;" horiz-adv-x="299" d="M111 1075v187q0 51 7 79q8 34 19 51q11 18 29 31q20 14 37 23v-45q-28 -21 -40 -47q-11 -24 -9 -92h49v-187h-92z" />
<glyph unicode="&#x2019;" horiz-adv-x="299" d="M102 1075v45q31 22 41 46q11 27 11 94h-50v186h93v-186q0 -48 -8 -80q-8 -33 -19 -52q-10 -18 -30 -31q-18 -12 -38 -22z" />
<glyph unicode="&#x201a;" horiz-adv-x="299" d="M102 -139q31 22 41 46q11 27 11 93h-50v186h93v-186q0 -48 -8 -80t-19 -51t-30 -32q-12 -8 -38 -21v45z" />
<glyph unicode="&#x201c;" horiz-adv-x="512" d="M88 1075v187q0 51 7 79q8 31 20 51q12 19 28 31q20 14 37 23v-45q-29 -21 -39 -46q-10 -24 -10 -93h49v-187h-92zM311 1075v187q0 51 7 79q8 31 20 51q11 18 29 31q22 16 36 23v-45q-27 -20 -39 -46q-12 -24 -10 -93h49v-187h-92z" />
<glyph unicode="&#x201d;" horiz-adv-x="512" d="M96 1075v45q31 22 41 46t10 94h-49v186h92v-186q0 -52 -7 -80q-8 -33 -19 -52q-10 -18 -30 -31q-18 -12 -38 -22zM319 1075v45q31 22 41 46q11 27 11 94h-49v186h92v-186q0 -52 -7 -80q-8 -30 -20 -52q-10 -18 -30 -31q-18 -12 -38 -22z" />
<glyph unicode="&#x201e;" horiz-adv-x="512" d="M98 0v186h92v-186q0 -52 -7 -80q-8 -32 -19 -51t-29 -32q-11 -8 -37 -21v45q28 18 40 45q11 24 9 94h-49zM319 -139q33 23 42 48q10 28 10 91h-49v186h92v-186q0 -52 -7 -80t-20 -51q-11 -19 -30 -32q-12 -8 -38 -21v45z" />
<glyph unicode="&#x2022;" horiz-adv-x="681" d="M111 723q0 47 18 89t49 73t73 49t91 18q50 0 94 -18q42 -17 73 -50q28 -30 46 -73q16 -39 16 -86q0 -100 -63 -166q-62 -65 -164 -65q-51 0 -91 17q-43 18 -74 48q-32 30 -50 73q-18 42 -18 91z" />
<glyph unicode="&#x2026;" horiz-adv-x="2048" d="M299 0v184h90v-184h-90zM981 0v184h90v-184h-90zM1663 0v184h90v-184h-90z" />
<glyph unicode="&#x202f;" horiz-adv-x="360" />
<glyph unicode="&#x2039;" horiz-adv-x="512" d="M72 600l254 205h123l-250 -205l239 -205h-114z" />
<glyph unicode="&#x203a;" horiz-adv-x="512" d="M55 391l264 205l-249 205h125l245 -203l-256 -207h-129z" />
<glyph unicode="&#x205f;" horiz-adv-x="450" />
<glyph unicode="&#x2122;" horiz-adv-x="1406" d="M57 1372v74h527v-74h-219v-604h-82v604h-226zM643 768v678h121l182 -569l180 569h121v-678h-80v461l2 137l-190 -598h-72l-190 598l4 -137v-461h-78z" />
<glyph unicode="&#xe000;" horiz-adv-x="1034" d="M0 0v1034h1034v-1034h-1034z" />
</font>
</defs>
</svg>
