<?xml version="1.0" standalone="no"?>
<!DOCTYPE svg PUBLIC "-//W3C//DTD SVG 1.1//EN" "http://www.w3.org/Graphics/SVG/1.1/DTD/svg11.dtd" >
<svg xmlns="http://www.w3.org/2000/svg">
<metadata></metadata>
<defs>
<font id="gotham_bookitalic" horiz-adv-x="1724" >
<font-face units-per-em="2048" ascent="1638" descent="-410" />
<missing-glyph horiz-adv-x="614" />
<glyph unicode="&#xfb01;" horiz-adv-x="1308" d="M94 0l248 920h-145l36 139h146l35 127q40 159 133 236q92 77 229 77q125 0 211 -45l-37 -135q-46 23 -87 33q-39 10 -87 10q-76 0 -130 -48q-55 -49 -83 -153l-26 -102h346l-39 -139h-344l-248 -920h-158zM817 0l285 1059h158l-285 -1059h-158zM1153 1290l49 174h178 l-47 -174h-180z" />
<glyph unicode="&#xfb02;" horiz-adv-x="1308" d="M94 0l248 920h-145l36 139h146l35 127q40 159 133 236q92 77 229 77q125 0 211 -45l-37 -135q-46 23 -87 33q-39 10 -87 10q-76 0 -130 -48q-55 -49 -83 -153l-26 -102h346l-39 -139h-344l-248 -920h-158zM817 0l402 1495h157l-401 -1495h-158z" />
<glyph horiz-adv-x="2048" />
<glyph horiz-adv-x="2048" />
<glyph unicode="&#xd;" horiz-adv-x="614" />
<glyph unicode=" "  horiz-adv-x="614" />
<glyph unicode="&#x09;" horiz-adv-x="614" />
<glyph unicode="&#xa0;" horiz-adv-x="614" />
<glyph unicode="!" horiz-adv-x="555" d="M41 0l57 215h189l-58 -215h-188zM199 406l196 911l33 117h184l-30 -117l-293 -911h-90z" />
<glyph unicode="&#x22;" horiz-adv-x="905" d="M205 877l186 557h189l-2 -11l-285 -546h-88zM608 877l187 557h188l-2 -11l-285 -546h-88z" />
<glyph unicode="#" horiz-adv-x="1396" d="M59 362l35 142h240l151 434h-249l36 141h263l122 355h146l-125 -355h391l123 355h145l-125 -355h228l-37 -141h-238l-153 -434h252l-37 -142h-264l-125 -362h-146l127 362h-391l-125 -362h-145l127 362h-226zM479 504h387l154 434h-389z" />
<glyph unicode="$" horiz-adv-x="1275" d="M-4 254l119 100q67 -77 159 -130q90 -52 209 -70l140 516q-92 35 -158 69q-69 35 -113 78q-46 44 -66 95q-22 55 -22 120q0 86 38 160t106 127q72 56 158 84q95 31 198 31q24 0 36 -1t34 -1l34 120h129l-36 -139q107 -22 192 -71q86 -49 150 -113l-113 -109 q-55 55 -124 94q-72 40 -155 58l-135 -488q178 -67 262 -148q86 -83 86 -218q0 -93 -40 -169q-41 -78 -110 -132q-72 -57 -169 -86q-102 -31 -217 -31h-29l-55 -201h-131l61 213q-139 22 -251 86q-108 61 -187 156zM430 1049q0 -77 54 -127q53 -49 184 -99l127 465 q-83 8 -147 -8q-67 -17 -114 -49q-49 -34 -76 -80q-28 -48 -28 -102zM598 143q77 -1 145 17q67 18 114 52q48 35 75 82q26 46 26 107q0 73 -49 125q-52 56 -176 105z" />
<glyph unicode="%" horiz-adv-x="1714" d="M131 0l1391 1434h161l-1390 -1434h-162zM186 1008q0 84 30 163q31 82 82 142q53 62 124 99q73 38 156 38q66 0 118 -24q56 -26 92 -63q39 -41 60 -94q20 -51 20 -118q0 -87 -29 -164q-30 -81 -82 -141q-52 -61 -125 -99t-157 -38q-68 0 -118 23q-52 24 -91 64 q-38 39 -59 94q-21 54 -21 118zM313 1018q0 -91 44 -144t128 -53q55 0 102 29q47 28 81 75q35 48 54 102q19 56 19 114q0 91 -45 143q-45 53 -127 53q-55 0 -101 -28q-46 -29 -81 -75q-35 -48 -54 -102q-20 -58 -20 -114zM946 285q0 85 30 164q30 81 82 141q52 61 125 99 t156 38q65 0 117 -24q56 -26 92 -63q39 -41 60 -94q20 -51 20 -118q0 -84 -30 -164q-31 -83 -81 -141q-52 -61 -125 -99t-157 -38q-67 0 -118 22q-52 22 -91 63q-38 39 -59 95t-21 119zM1073 293q0 -89 45 -141q46 -54 127 -54q55 0 102 29q45 27 80 75q37 50 55 102 q19 56 19 114q0 90 -45 143t-127 53q-55 0 -101 -28t-81 -75t-54 -103q-20 -58 -20 -115z" />
<glyph unicode="&#x26;" horiz-adv-x="1417" d="M59 346q0 160 117 285q116 124 359 190q-44 73 -66 134q-25 69 -25 132q0 76 31 146q30 67 84 118q53 50 126 79q71 28 157 28q81 0 144 -22t111 -64q44 -39 71 -98q26 -58 26 -125q0 -53 -22 -111q-20 -54 -71 -106q-49 -51 -135 -96q-84 -44 -214 -82l256 -359 q115 131 221 312l108 -70q-60 -99 -123 -187q-62 -86 -127 -157l175 -244l-121 -78l-160 224q-115 -107 -231 -161q-117 -54 -269 -54q-91 0 -167 24q-73 23 -133 72q-56 45 -89 115q-33 69 -33 155zM219 358q0 -110 75 -175q74 -64 206 -64q110 0 208 45q94 44 195 135 l-297 418q-202 -52 -295 -150q-92 -97 -92 -209zM596 1087q0 -55 18 -108q17 -51 66 -123q108 29 176 63q76 38 111 69q40 35 58 75q17 37 17 78q0 80 -55 132t-151 52q-50 0 -94 -18q-41 -17 -76 -52q-36 -36 -52 -75q-18 -44 -18 -93z" />
<glyph unicode="'" horiz-adv-x="501" d="M205 877l186 557h189l-2 -11l-285 -546h-88z" />
<glyph unicode="(" horiz-adv-x="888" d="M180 442q0 155 49 302q50 150 151 282q103 134 253 246q151 112 358 196l56 -116q-189 -83 -322 -187q-134 -105 -218 -222t-125 -245q-40 -126 -40 -252q0 -104 24 -194q26 -97 63 -167q40 -75 93 -145q56 -72 113 -130l-94 -99q-75 64 -142 144q-63 74 -114 169 t-77 195q-28 109 -28 223z" />
<glyph unicode=")" horiz-adv-x="888" d="M-125 -166q194 86 321 186q135 107 218 223q84 118 124 243q40 124 40 253q0 104 -23 194q-24 93 -62 167q-38 73 -94 145q-54 70 -114 131l96 97q71 -61 141 -144q65 -76 115 -168q51 -93 77 -194q27 -105 27 -224q0 -155 -49 -303q-50 -151 -150 -282 q-102 -134 -254 -247t-358 -196z" />
<glyph unicode="*" horiz-adv-x="880" d="M266 1096l260 45l-202 168l79 77l166 -198l45 252l105 -27l-88 -242l243 89l31 -107l-260 -43l203 -168l-80 -78l-166 199l-45 -254l-104 27l88 243l-244 -88z" />
<glyph unicode="+" horiz-adv-x="1314" d="M188 647l39 148h424l113 422h154l-113 -422h424l-39 -148h-424l-115 -422h-151l112 422h-424z" />
<glyph unicode="," horiz-adv-x="522" d="M-92 -178q91 23 135 67q45 45 57 111h-75l59 215h186l-49 -184q-38 -135 -105 -195q-69 -62 -192 -84z" />
<glyph unicode="-" horiz-adv-x="839" d="M135 532l43 166h572l-43 -166h-572z" />
<glyph unicode="." horiz-adv-x="522" d="M25 0l59 215h186l-57 -215h-188z" />
<glyph unicode="/" horiz-adv-x="1040" d="M-256 -262l1448 1896h160l-1448 -1896h-160z" />
<glyph unicode="0" horiz-adv-x="1464" d="M158 528q0 170 54 336t153 298t235 214t303 82q117 0 213 -41q95 -41 158 -114q62 -72 97 -176q34 -101 34 -222q0 -169 -54 -336q-54 -166 -153 -298t-235 -214t-304 -82q-120 0 -214 41q-91 40 -157 115t-98 175q-32 99 -32 222zM326 528q0 -89 22 -161q23 -74 66 -128 q45 -56 107 -85q67 -31 149 -31q117 0 222 70q104 69 180 180q79 114 121 251q44 143 44 281q0 87 -23 162q-23 74 -66 128q-44 55 -109 85q-67 31 -148 31q-115 0 -220 -70t-181 -180q-77 -112 -120 -251q-44 -143 -44 -282z" />
<glyph unicode="1" horiz-adv-x="739" d="M193 0l337 1264l-290 -84l-4 141l385 123h120l-387 -1444h-161z" />
<glyph unicode="2" horiz-adv-x="1218" d="M-45 0l33 127l821 623q120 91 179 168q61 79 61 169q0 97 -72 158q-73 62 -201 62q-119 0 -217 -58t-176 -139l-107 102q97 103 222 173q123 69 284 69q95 0 176 -26q82 -26 138 -72q57 -47 89 -113q32 -67 32 -145q0 -130 -78 -233q-77 -103 -230 -216l-661 -502h766 l-39 -147h-1020z" />
<glyph unicode="3" horiz-adv-x="1239" d="M6 254l127 82q56 -99 149 -157q90 -56 234 -56q88 0 157 23q76 25 126 67q54 45 83 101q29 57 29 126q0 124 -100 184q-101 60 -270 60h-66l-20 92l579 512h-706l41 146h934l-33 -119l-584 -510q78 -6 152 -32q70 -25 126 -70t85 -106q30 -63 30 -144q0 -105 -45 -192 q-45 -88 -124 -150q-83 -65 -182 -100q-104 -36 -220 -36q-189 0 -313 76q-127 78 -189 203z" />
<glyph unicode="4" horiz-adv-x="1329" d="M51 461l1063 983h156l-260 -969h223l-37 -135h-223l-90 -340h-158l92 340h-745zM264 475h590l197 731z" />
<glyph unicode="5" horiz-adv-x="1234" d="M18 231l125 93q70 -97 162 -150t221 -53q93 0 171 29q79 29 131 77q54 49 84 113q30 63 30 133q0 130 -89 202q-90 73 -232 73q-62 0 -143 -19q-75 -18 -150 -59l-92 73l225 691h801l-43 -150h-654l-151 -450q42 21 116 38t129 17q102 0 186 -29q82 -28 142 -81 q59 -51 92 -127q33 -75 33 -167q0 -104 -43 -194q-45 -94 -121 -163q-81 -73 -188 -112q-112 -41 -246 -41q-176 0 -300 75t-196 181z" />
<glyph unicode="6" horiz-adv-x="1312" d="M158 504q0 119 20 222q21 107 59 203q37 95 90 177q53 83 115 145q103 103 218 154q120 53 258 53q139 0 245 -50q103 -49 178 -134l-106 -111q-62 68 -140 107q-82 41 -190 41q-194 0 -346 -152q-83 -83 -145 -209q-61 -123 -76 -258q30 41 73 79q46 41 94 67 q52 28 113 46q58 17 134 17q103 0 188 -32q84 -32 142 -88q59 -58 90 -131q32 -76 32 -161q0 -102 -42 -195q-43 -96 -116 -164q-75 -71 -178 -113q-102 -42 -221 -42q-107 0 -198 35q-90 34 -150 96q-66 66 -104 164q-37 95 -37 234zM326 418q0 -132 84 -211 q49 -49 108 -69q62 -21 133 -21q89 0 157 29q72 31 122 79q52 51 80 115q28 65 28 137q0 55 -19 105t-60 91t-99 64q-62 25 -139 25q-91 0 -163 -30q-74 -31 -124 -78q-52 -49 -80 -109t-28 -127z" />
<glyph unicode="7" horiz-adv-x="1200" d="M125 0l944 1286h-780l41 148h973l-35 -121l-955 -1313h-188z" />
<glyph unicode="8" horiz-adv-x="1325" d="M78 362q0 86 33 154q35 71 89 118q61 53 132 82q77 32 164 48q-87 34 -148 113q-59 77 -59 184q0 78 38 151t106 126q71 55 164 85q98 31 210 31q102 0 194 -28q90 -27 153 -76q64 -49 100 -117q36 -67 36 -150q0 -73 -27 -135q-26 -59 -75 -108q-47 -47 -113 -80 q-63 -31 -139 -47q50 -18 91 -46q45 -31 78 -70q32 -38 54 -91q21 -51 21 -111q0 -88 -42 -164q-40 -73 -119 -132q-75 -56 -182 -88q-103 -31 -231 -31q-120 0 -213 29q-97 30 -167 81q-69 50 -109 122q-39 70 -39 150zM242 379q0 -59 25 -105t75 -81q52 -36 119 -55 t155 -19q92 0 162 20q72 21 126 59q52 37 82 90q30 52 30 115q0 51 -26 100q-26 48 -75 84q-51 37 -117 57q-72 22 -155 22q-92 0 -167 -24q-76 -24 -127 -62q-53 -39 -80 -92t-27 -109zM449 1047q0 -56 23 -99q24 -45 66 -78t101 -52q58 -19 131 -19q90 0 155 22 q63 21 112 61q45 36 70 86q23 46 23 99q0 109 -89 178q-90 70 -238 70q-81 0 -145 -21q-67 -22 -111 -56q-49 -38 -73 -85q-25 -49 -25 -106z" />
<glyph unicode="9" horiz-adv-x="1312" d="M57 172l107 111q68 -75 151 -119q82 -43 191 -43q193 0 346 153q84 83 145 206q59 119 74 251q-29 -39 -69 -78q-42 -40 -92 -69q-55 -31 -115 -50q-65 -20 -140 -20q-104 0 -188 33q-85 33 -142 89q-61 59 -91 133q-31 75 -31 165q0 108 43 201q43 94 119 165 q78 73 177 114q102 42 222 42q102 0 195 -35q92 -35 153 -94q67 -68 105 -166q36 -92 36 -241q0 -231 -78 -419q-80 -193 -208 -321q-102 -100 -218 -153q-119 -54 -251 -54q-133 0 -247 54q-110 52 -194 145zM371 946q0 -56 18 -108q19 -55 58 -94q40 -40 102 -64 q64 -25 143 -25q85 0 159 31q71 30 124 81q51 50 80 115q28 63 28 134q0 127 -82 209q-92 92 -241 92q-84 0 -158 -31q-69 -29 -123 -81q-51 -50 -80 -118q-28 -66 -28 -141z" />
<glyph unicode=":" horiz-adv-x="536" d="M33 0l57 215h189l-58 -215h-188zM258 844l59 215h189l-60 -215h-188z" />
<glyph unicode=";" horiz-adv-x="536" d="M-84 -178q91 23 134 67q44 46 56 111h-73l57 215h189l-50 -184q-38 -135 -105 -195q-69 -62 -192 -84zM258 844l59 215h189l-60 -215h-188z" />
<glyph unicode="&#x3c;" horiz-adv-x="1310" d="M156 653l37 135l1091 478l-45 -170l-893 -385l686 -387l-41 -148z" />
<glyph unicode="=" horiz-adv-x="1310" d="M152 406l41 151h940l-41 -151h-940zM281 885l41 151h940l-39 -151h-942z" />
<glyph unicode="&#x3e;" horiz-adv-x="1310" d="M94 176l45 170l891 385l-684 387l41 148l834 -478l-37 -135z" />
<glyph unicode="?" horiz-adv-x="1099" d="M205 1247q89 89 209 147t272 58q95 0 177 -28q79 -27 134 -76t84 -116t29 -142q0 -98 -41 -177q-40 -77 -113 -135q-72 -57 -170 -94q-95 -36 -213 -53l-81 -225h-105l57 331l13 11q108 8 198 33q89 25 154 67q64 41 98 99q35 59 35 130q0 111 -78 169q-79 59 -194 59 q-112 0 -209 -50q-100 -52 -164 -114zM240 0l57 215h188l-57 -215h-188z" />
<glyph unicode="@" horiz-adv-x="2007" d="M129 475q0 199 79 376q81 181 215 314q139 137 318 215q184 80 392 80q194 0 341 -56q152 -58 255 -155q104 -98 158 -229q54 -130 54 -279q0 -151 -40 -261q-39 -108 -105 -186q-63 -75 -142 -112q-78 -37 -153 -37q-107 0 -173 52q-65 51 -83 141q-77 -94 -168 -145 q-92 -52 -198 -52q-67 0 -127 24q-62 25 -104 67t-69 108q-26 64 -26 143q0 113 44 215q43 99 115 174q71 74 160 117t185 43q123 0 195 -60q73 -60 106 -141l55 181l133 -35l-155 -500q-35 -109 1 -179q36 -71 134 -71q50 0 111 32q62 32 111 95q49 62 84 160q34 95 34 227 q0 133 -50 253q-48 115 -145 206q-94 88 -230 139q-139 52 -308 52q-193 0 -362 -75t-295 -201t-198 -292q-73 -169 -73 -348q0 -167 56 -298q57 -134 159 -230q104 -98 247 -150q145 -53 320 -53q114 0 217 23q99 22 205 69l31 -63q-111 -51 -219 -75t-234 -24 q-192 0 -352 58q-156 56 -270 163t-175 252q-61 146 -61 328zM709 496q0 -109 59 -168q60 -60 152 -60q70 0 139 33q72 34 124 88q53 55 88 127q34 71 34 150q0 104 -65 172q-64 67 -175 67q-71 0 -136 -33t-114 -88q-50 -56 -78 -130t-28 -158z" />
<glyph unicode="A" horiz-adv-x="1558" d="M-82 0l1040 1444h156l266 -1444h-166l-65 379h-782l-271 -379h-178zM469 524h653l-129 736z" />
<glyph unicode="B" horiz-adv-x="1468" d="M61 0l385 1434h537q210 0 328 -91q116 -89 116 -243q0 -78 -27 -141q-26 -60 -76 -109q-49 -48 -114 -80q-64 -32 -141 -47q107 -33 180 -105q74 -72 74 -192q0 -91 -41 -171q-39 -77 -119 -135q-77 -56 -189 -88q-113 -32 -253 -32h-660zM260 145h479q196 0 308 76 t112 211q0 56 -24 96q-25 41 -69 69t-104 41q-58 13 -133 13h-434zM434 795h408q193 0 306 77q114 78 114 207q0 104 -76 156q-77 53 -217 53h-404z" />
<glyph unicode="C" horiz-adv-x="1505" d="M174 567q0 173 68 335q68 161 184 285q115 123 273 197q157 74 335 74q199 0 334 -87t207 -220l-139 -86q-66 112 -162 178t-254 66q-138 0 -262 -62q-123 -62 -215 -164q-95 -106 -146 -235q-53 -135 -53 -275q0 -106 34 -187q36 -85 93 -141q62 -60 141 -89 q85 -31 181 -31q145 0 248 52q107 54 196 142l109 -106q-50 -49 -108 -93q-61 -46 -127 -77q-70 -33 -149 -51q-86 -19 -178 -19q-125 0 -237 41q-110 40 -194 118q-83 77 -131 186q-48 110 -48 249z" />
<glyph unicode="D" horiz-adv-x="1583" d="M61 0l385 1434h347q178 0 322 -50q143 -50 237 -141q155 -155 155 -412q0 -166 -57 -307t-168 -252q-128 -128 -317 -200t-418 -72h-486zM264 150h303q181 0 331 57t261 168q88 88 133 199q47 115 47 247q0 202 -120 318q-145 145 -437 145h-213z" />
<glyph unicode="E" horiz-adv-x="1337" d="M61 0l385 1434h1027l-41 -148h-865l-131 -489h772l-41 -148h-770l-135 -502h875l-39 -147h-1037z" />
<glyph unicode="F" horiz-adv-x="1347" d="M61 0l385 1434h1031l-39 -150h-871l-137 -512h778l-41 -147h-776l-168 -625h-162z" />
<glyph unicode="G" horiz-adv-x="1605" d="M176 584q0 163 67 323t184 280q118 121 280 196t350 75q111 0 196 -21q86 -21 151 -59q67 -39 112 -84t81 -98l-122 -96q-27 39 -70 82q-38 38 -90 67q-50 28 -118 45t-155 17q-147 0 -276 -62q-127 -61 -220 -163q-97 -106 -147 -231q-53 -132 -53 -265q0 -110 35 -198 q34 -85 98 -146q62 -59 151 -91q88 -32 191 -32q116 0 209 29q98 30 162 71l113 398h-433l39 145h592l-182 -643q-113 -71 -238 -111q-123 -39 -272 -39q-130 0 -247 41t-202 120q-87 81 -136 192q-50 114 -50 258z" />
<glyph unicode="H" horiz-adv-x="1548" d="M61 0l385 1434h162l-170 -637h817l170 637h164l-385 -1434h-164l174 645h-817l-174 -645h-162z" />
<glyph unicode="I" horiz-adv-x="595" d="M76 0l385 1434h162l-385 -1434h-162z" />
<glyph unicode="J" horiz-adv-x="1122" d="M-29 285l129 75q45 -116 116 -174q70 -57 183 -57q141 0 242 98q49 51 84 123q37 78 66 187l241 897h164l-250 -928q-34 -132 -80 -226q-45 -92 -114 -161q-70 -71 -162 -105q-90 -34 -193 -34q-85 0 -152 22q-68 22 -122 64q-55 43 -91 97q-40 61 -61 122z" />
<glyph unicode="K" horiz-adv-x="1470" d="M61 0l385 1434h162l-227 -852l1028 852h229l-770 -631l408 -803h-182l-357 709l-415 -342l-99 -367h-162z" />
<glyph unicode="L" horiz-adv-x="1243" d="M61 0l385 1434h162l-344 -1284h807l-41 -150h-969z" />
<glyph unicode="M" horiz-adv-x="1779" d="M61 0l385 1434h152l309 -783l731 783h181l-385 -1434h-164l311 1161l-727 -768h-8l-314 766l-311 -1159h-160z" />
<glyph unicode="N" horiz-adv-x="1609" d="M61 0l385 1434h150l584 -1164l313 1164h158l-385 -1434h-129l-598 1190l-320 -1190h-158z" />
<glyph unicode="O" d="M180 596q0 164 65 321q64 155 176 276q111 120 264 192q155 73 331 73q140 0 255 -48t198 -132q82 -84 129 -197q47 -114 47 -243q0 -166 -65 -323q-64 -155 -176 -276q-113 -122 -264 -193q-155 -73 -331 -73q-139 0 -255 48t-199 133t-129 197q-46 113 -46 245z M350 600q0 -102 33 -189q34 -89 94 -151q60 -61 148 -100q84 -37 194 -37q141 0 261 60q118 59 207 160q88 100 137 227q51 131 51 261q0 101 -33 189q-33 89 -94 151q-62 63 -149 101q-86 37 -193 37q-140 0 -262 -61q-118 -59 -206 -159q-89 -101 -138 -228 q-50 -129 -50 -261z" />
<glyph unicode="P" horiz-adv-x="1366" d="M61 0l385 1434h449q274 0 410 -134q48 -49 75 -116q27 -66 27 -150q0 -124 -51 -222q-50 -96 -145 -165q-93 -68 -223 -102q-132 -35 -288 -35h-340l-137 -510h-162zM399 653h310q255 0 393 97q137 96 137 274q0 105 -65 170q-90 90 -285 90h-322z" />
<glyph unicode="Q" d="M180 596q0 164 65 321q64 155 176 276q111 120 264 192q155 73 331 73q140 0 255 -48t198 -132q82 -84 129 -197q47 -114 47 -243q0 -184 -76 -351q-76 -168 -209 -290l143 -162l-127 -94l-133 168q-97 -65 -204 -100q-110 -36 -230 -36q-139 0 -255 48t-199 133 t-129 197q-46 113 -46 245zM350 600q0 -102 33 -189q34 -89 94 -151q60 -61 148 -100q84 -37 194 -37q89 0 176 28q85 27 156 76l-223 262l127 97l209 -264q96 98 154 233q57 134 57 276q0 101 -33 189q-33 89 -94 151q-62 63 -149 101q-86 37 -193 37q-140 0 -262 -61 q-118 -59 -206 -159q-89 -101 -138 -228q-50 -129 -50 -261z" />
<glyph unicode="R" horiz-adv-x="1468" d="M61 0l385 1434h517q267 0 403 -131q94 -98 94 -248q0 -95 -34 -172q-36 -82 -93 -140q-66 -66 -171 -110q-104 -44 -226 -60l295 -573h-187l-282 557h-389l-150 -557h-162zM412 702h389q141 0 245 36q101 35 162 96q43 46 64 94q22 50 22 114q0 97 -59 156 q-42 42 -110 64q-67 22 -171 22h-385z" />
<glyph unicode="S" horiz-adv-x="1304" d="M25 252l122 96q90 -109 203 -167q109 -56 271 -56q81 0 144 20q67 21 115 56t75 84q28 51 28 108q0 41 -15 75t-49 64q-37 32 -92 61q-51 27 -139 62q-97 38 -172 78q-72 38 -123 83q-50 44 -74 98t-24 124q0 88 39 165t109 132t167 87q98 32 213 32q168 0 297 -60 q127 -59 211 -157l-119 -106q-78 85 -177 132q-98 46 -226 46q-79 0 -144 -21q-68 -22 -109 -56q-44 -37 -68 -81q-23 -43 -23 -94q0 -45 17 -78q19 -37 57 -66q41 -31 99 -59q54 -26 144 -61q90 -34 162 -73q69 -37 116 -83q44 -42 69 -99q24 -54 24 -124q0 -94 -42 -174 q-43 -81 -115 -138q-71 -56 -172 -90q-96 -32 -214 -32q-201 0 -346 71q-148 72 -239 201z" />
<glyph unicode="T" horiz-adv-x="1261" d="M262 1284l41 150h1129l-41 -150h-484l-344 -1284h-162l344 1284h-483z" />
<glyph unicode="U" horiz-adv-x="1552" d="M188 436q0 108 31 223l205 775h164l-217 -818q-12 -38 -16 -73q-5 -45 -5 -88q0 -69 23 -130q23 -62 69 -105t117 -68q72 -25 166 -25q90 0 171 33q82 33 148 98q57 58 104 144q50 90 79 206l223 826h162l-230 -854q-73 -272 -225 -424q-179 -179 -446 -179 q-131 0 -227 34q-97 34 -162 95q-65 60 -100 146q-34 83 -34 184z" />
<glyph unicode="V" horiz-adv-x="1468" d="M281 1434h172l176 -1233l837 1233h185l-1000 -1444h-145z" />
<glyph unicode="W" horiz-adv-x="2217" d="M297 1434h168l90 -1194l711 1198h133l76 -1198l729 1194h182l-899 -1444h-141l-82 1157l-703 -1157h-139z" />
<glyph unicode="X" horiz-adv-x="1421" d="M-63 0l735 741l-361 693h178l299 -586l572 586h209l-709 -715l373 -719h-178l-312 612l-596 -612h-210z" />
<glyph unicode="Y" horiz-adv-x="1357" d="M244 1434h180l287 -723l675 723h207l-839 -883l-148 -551h-164l156 578z" />
<glyph unicode="Z" horiz-adv-x="1370" d="M-39 0l29 109l1222 1179h-874l41 146h1110l-29 -109l-1224 -1180h913l-39 -145h-1149z" />
<glyph unicode="[" horiz-adv-x="899" d="M18 -266l457 1700h586l-33 -123h-438l-389 -1454h436l-33 -123h-586z" />
<glyph unicode="\" horiz-adv-x="1040" d="M285 1634h135l446 -1896h-135z" />
<glyph unicode="]" horiz-adv-x="899" d="M-135 -266l35 123h438l389 1454h-438l33 123h587l-456 -1700h-588z" />
<glyph unicode="^" horiz-adv-x="1024" d="M240 1010l432 428h123l204 -428h-125l-157 315l-326 -315h-151z" />
<glyph unicode="_" horiz-adv-x="1228" d="M-233 -328l34 129h1239l-36 -129h-1237z" />
<glyph unicode="`" horiz-adv-x="1024" d="M571 1440l166 76l115 -297h-111z" />
<glyph unicode="a" horiz-adv-x="1179" d="M39 270q0 87 35 160q34 71 98 121q61 48 150 76q82 26 188 26q112 0 203 -17q99 -19 172 -40l8 27q2 8 4.5 24.5t3.5 23.5q4 23 4 48q0 103 -70 158t-214 55q-91 0 -157 -14q-76 -16 -142 -41l-29 133q79 30 164 48q79 17 188 17q201 0 308 -88q108 -89 108 -242 q0 -28 -5 -70q-4 -31 -16 -75l-159 -600h-156l43 166q-74 -87 -170 -137q-101 -52 -225 -52q-66 0 -128 20q-63 20 -107 56t-72 91q-27 54 -27 126zM201 289q0 -87 59 -136q62 -51 164 -51q66 0 133 23q65 22 122 64q53 39 98 100q43 59 61 127l20 73q-67 17 -157 33 q-87 15 -185 15q-141 0 -228 -69t-87 -179z" />
<glyph unicode="b" horiz-adv-x="1349" d="M35 0l401 1495h158l-168 -618q78 85 175 145q96 59 226 59q92 0 167 -31t133 -92q56 -59 88 -142q32 -84 32 -183q0 -142 -49 -261t-132 -208q-82 -88 -189 -138q-110 -51 -224 -51q-79 0 -145 22q-64 21 -113 57q-47 34 -83 83q-30 41 -56 101l-63 -238h-158zM311 444 q0 -70 24 -130q25 -63 66 -104q45 -45 104 -70t134 -25q93 0 175 41q80 40 140 109q59 68 94 160q33 88 33 193q0 74 -21 134q-20 57 -62 102q-41 44 -94 66t-122 22q-88 0 -173 -42q-84 -41 -150 -110q-67 -70 -107 -159q-41 -91 -41 -187z" />
<glyph unicode="c" horiz-adv-x="1150" d="M98 438q0 128 50 246q48 114 136 205q85 88 197 140q111 52 240 52q85 0 149 -20q72 -22 120 -54q53 -35 90 -79q42 -50 63 -94l-127 -80q-20 34 -51 72q-28 34 -65 60t-83 41q-47 15 -106 15q-88 0 -172 -41q-83 -41 -144 -109q-60 -67 -98 -160q-37 -90 -37 -190 q0 -76 26 -139q25 -61 69 -103q44 -43 102 -64q57 -21 118 -21q93 0 169 38t145 101l92 -102q-82 -77 -181 -127q-100 -50 -233 -50q-90 0 -177 32q-85 31 -149 91q-65 60 -104 146t-39 194z" />
<glyph unicode="d" horiz-adv-x="1349" d="M102 424q0 140 50 261q49 119 132 208q82 89 189 138q108 50 223 50q83 0 146 -21q60 -20 112 -58q49 -36 83 -83q33 -46 57 -100l180 676h158l-400 -1495h-158l48 180q-77 -86 -173 -145q-97 -60 -227 -60q-90 0 -167 33q-76 33 -133 91q-56 57 -88 142q-32 84 -32 183z M268 438q0 -70 22 -133q20 -58 61 -102t95 -66t121 -22q87 0 173 42t151 110t106 159t41 188q0 71 -23 129q-25 62 -67 104q-44 44 -103 69q-61 26 -134 26q-93 0 -175 -41t-141 -109q-57 -66 -93 -161q-34 -90 -34 -193z" />
<glyph unicode="e" horiz-adv-x="1206" d="M98 426q0 122 46 239t129 209q84 93 196 150q113 57 246 57q103 0 177 -32q78 -34 128 -88q50 -55 78 -130q26 -71 26 -155q0 -56 -10 -106q-9 -47 -29 -101h-827q-2 -14 -2 -18v-19q0 -144 86 -232q86 -87 233 -87q105 0 179 32q73 32 147 93l82 -105q-74 -63 -177 -111 q-100 -47 -239 -47q-104 0 -191 33q-89 34 -149 92q-59 58 -95 143q-34 81 -34 183zM281 596h682q4 16 6 35q2 24 2 45q0 51 -16 104q-15 48 -48 86q-33 37 -83 60q-48 22 -117 22q-78 0 -147 -27q-67 -26 -123 -76q-51 -46 -94 -112q-38 -60 -62 -137z" />
<glyph unicode="f" horiz-adv-x="768" d="M94 0l248 920h-145l36 139h146l35 127q40 159 133 236q92 77 229 77q125 0 211 -45l-37 -135q-46 23 -87 33q-39 10 -87 10q-76 0 -130 -48q-55 -49 -83 -153l-26 -102h346l-39 -139h-344l-248 -920h-158z" />
<glyph unicode="g" horiz-adv-x="1349" d="M-27 -147l99 110q87 -73 190 -116q106 -44 227 -44q101 0 176 30t121 79q51 48 80 109q34 71 54 145l28 106q-78 -81 -177 -136q-97 -54 -228 -54q-85 0 -161 27q-79 28 -137 77q-61 52 -97 125q-35 71 -35 170q0 131 51 242q50 109 134 190q85 82 190 124q109 44 219 44 q85 0 148 -21q60 -20 109 -58q47 -36 77 -81q33 -49 55 -94l61 232h158l-242 -907q-35 -124 -75 -200q-42 -79 -97 -134q-75 -75 -174 -112q-102 -38 -235 -38q-149 0 -284 49q-134 48 -235 136zM279 502q0 -74 25 -125q26 -54 69 -88q45 -36 98 -53q59 -19 117 -19 q90 0 172 36t144 95q63 60 100 136q36 73 36 159q0 59 -22 112t-65 96q-44 44 -102 67q-60 24 -136 24q-83 0 -163 -33t-139 -92q-62 -62 -98 -140t-36 -175z" />
<glyph unicode="h" horiz-adv-x="1255" d="M35 0l401 1495h158l-164 -608q70 80 160 138q87 56 209 56q154 0 245 -88q93 -90 93 -239q0 -28 -9 -80q-8 -44 -18 -84l-156 -590h-157l159 600q10 35 13 59q4 29 4 60q0 104 -64 163q-62 58 -174 58q-60 0 -121 -26q-59 -25 -110 -70q-50 -44 -91 -108 q-40 -63 -61 -138l-159 -598h-158z" />
<glyph unicode="i" horiz-adv-x="540" d="M49 0l285 1059h158l-285 -1059h-158zM385 1290l47 174h180l-47 -174h-180z" />
<glyph unicode="j" horiz-adv-x="538" d="M-244 -315l37 133q28 -8 44 -11q21 -4 46 -4q52 0 92 35q39 34 60 109l299 1112h158l-304 -1129q-38 -137 -112 -199q-77 -65 -178 -65q-45 0 -73 4q-31 4 -69 15zM385 1290l47 174h180l-47 -174h-180z" />
<glyph unicode="k" horiz-adv-x="1163" d="M35 0l401 1495h158l-272 -1018l712 582h215l-567 -457l291 -602h-178l-246 502l-283 -226l-73 -276h-158z" />
<glyph unicode="l" horiz-adv-x="540" d="M49 0l402 1495h157l-401 -1495h-158z" />
<glyph unicode="m" horiz-adv-x="1945" d="M35 0l282 1059h158l-45 -172q69 80 154 138q81 56 198 56q70 0 119 -20q52 -21 88 -53t61 -77q21 -38 33 -89q71 110 179 175q106 64 247 64q73 0 131 -23q60 -24 103 -67q41 -41 66 -103q24 -60 24 -134q0 -36 -9 -80q-7 -34 -20 -84l-157 -590h-158l162 600q5 23 10 59 q4 29 4 60q0 105 -57 163t-162 58q-58 0 -116 -26q-56 -25 -105 -71q-50 -47 -87 -109q-39 -65 -59 -136l-157 -598h-158l160 600q8 28 12 59q4 29 4 60q0 105 -58 163t-163 58q-58 0 -116 -26q-56 -25 -105 -71q-50 -47 -87 -109q-39 -65 -59 -136l-159 -598h-158z" />
<glyph unicode="n" horiz-adv-x="1255" d="M35 0l282 1059h158l-45 -172q70 80 160 138q87 56 209 56q154 0 245 -88q93 -90 93 -239q0 -28 -9 -80q-8 -44 -18 -84l-156 -590h-157l159 600q10 35 13 59q4 29 4 60q0 104 -64 163q-62 58 -174 58q-60 0 -121 -26q-59 -25 -110 -70q-50 -44 -91 -108q-40 -63 -61 -138 l-159 -598h-158z" />
<glyph unicode="o" horiz-adv-x="1306" d="M100 451q0 120 51 237q50 116 135 202q85 87 197 139q111 52 240 52q110 0 198 -36q91 -37 152 -98q64 -64 98 -149q35 -88 35 -190q0 -127 -51 -241q-51 -115 -137 -202q-85 -86 -199 -138q-115 -52 -237 -52q-110 0 -198 36q-89 36 -153 100q-62 62 -97 150 q-34 86 -34 190zM260 455q0 -161 92 -250q91 -88 240 -88q89 0 170 40q83 41 145 107q64 68 101 156q36 85 36 182q0 162 -92 251t-239 89q-91 0 -174 -42t-144 -109q-60 -65 -98 -156q-37 -87 -37 -180z" />
<glyph unicode="p" horiz-adv-x="1349" d="M-53 -328l370 1387h158l-49 -182q78 85 175 145q96 59 226 59q92 0 167 -31t133 -92q56 -59 88 -142q32 -84 32 -183q0 -142 -49 -261t-132 -208q-82 -88 -189 -138q-110 -51 -224 -51q-79 0 -145 22q-64 21 -113 57q-47 34 -83 83q-30 41 -56 101l-152 -566h-157z M311 444q0 -70 24 -130q25 -63 66 -104q45 -45 104 -70t134 -25q93 0 175 41q80 40 140 109q59 68 94 160q33 88 33 193q0 74 -21 134q-20 57 -62 102q-41 44 -94 66t-122 22q-88 0 -173 -42q-84 -41 -150 -110q-67 -70 -107 -159q-41 -91 -41 -187z" />
<glyph unicode="q" horiz-adv-x="1349" d="M102 424q0 140 50 261q49 119 132 208q82 89 189 138q108 50 223 50q83 0 146 -21q61 -20 112 -56q47 -33 83 -83q33 -46 57 -100l63 238h158l-391 -1469h-158l158 592q-80 -87 -175 -146q-99 -61 -227 -61q-90 0 -167 33q-76 33 -133 91q-56 57 -88 142q-32 84 -32 183z M268 438q0 -70 22 -133q20 -58 61 -102t95 -66t121 -22q87 0 173 42q85 42 151 111q64 67 106 160q41 91 41 186q0 71 -23 129q-25 62 -67 104q-44 44 -103 69q-61 26 -134 26q-93 0 -175 -41t-141 -109q-57 -66 -93 -161q-34 -90 -34 -193z" />
<glyph unicode="r" horiz-adv-x="823" d="M35 0l282 1059h158l-72 -277q48 67 104 126q53 56 118 96q61 38 133 58q55 16 117 16q16 0 32 -1l-45 -170h-10q-87 0 -171 -31t-158 -94t-130 -153q-58 -94 -88 -211l-112 -418h-158z" />
<glyph unicode="s" horiz-adv-x="1015" d="M-12 162l102 102q85 -84 179 -120q90 -35 190 -35q45 0 87 12t75 36t52 55t19 73q0 51 -43 93q-44 42 -157 87q-145 56 -222 118t-77 173q0 67 27 127q26 59 80 103q55 45 127 70q74 25 167 25q115 0 221 -44q102 -42 170 -101l-92 -109q-65 53 -147 88t-166 35 q-112 0 -171 -51t-59 -117q0 -27 9 -48q10 -23 33 -43q26 -23 65 -43q46 -24 104 -46q145 -60 216 -124q73 -65 73 -167q0 -73 -32 -135t-87 -105q-59 -46 -129 -69q-77 -25 -158 -25q-120 0 -243 47q-121 46 -213 138z" />
<glyph unicode="t" horiz-adv-x="821" d="M156 190q0 33 4 58q6 35 10 53l166 619h-146l37 139h148l86 319h155l-86 -319h334l-37 -139h-333l-164 -611q-4 -18 -6 -40q-2 -28 -2 -38q0 -55 38 -81q39 -27 107 -27q70 0 154 33l-39 -144q-36 -15 -81 -23q-38 -7 -87 -7q-116 0 -187 52t-71 156z" />
<glyph unicode="u" horiz-adv-x="1255" d="M119 305q0 34 8 80q7 43 18 84l156 590h158l-162 -600q-5 -21 -10 -60q-4 -29 -4 -59q0 -105 62 -163t173 -58q63 0 122 25q61 26 112 71q50 44 90 109q37 60 59 139l160 596h158l-283 -1059h-158l47 172q-70 -80 -160 -138q-89 -57 -210 -57q-153 0 -245 89 q-91 88 -91 239z" />
<glyph unicode="v" horiz-adv-x="1159" d="M180 1059h166l119 -879l586 879h178l-740 -1067h-139z" />
<glyph unicode="w" horiz-adv-x="1736" d="M197 1059h159l56 -844l512 848h131l59 -848l510 844h164l-660 -1067h-139l-61 835l-510 -835h-137z" />
<glyph unicode="x" horiz-adv-x="1155" d="M-72 0l570 549l-267 510h175l200 -404l404 404h198l-538 -524l276 -535h-174l-211 430l-434 -430h-199z" />
<glyph unicode="y" horiz-adv-x="1175" d="M-154 -260l86 119q29 -23 76 -38q50 -16 86 -16q68 0 132 42q66 43 145 155l-193 1057h164l147 -883l570 883h178l-725 -1094q-113 -164 -214 -231q-103 -68 -220 -68q-66 0 -124 20q-57 20 -108 54z" />
<glyph unicode="z" horiz-adv-x="1124" d="M-41 0l29 100l903 826h-658l37 133h885l-29 -101l-905 -825h692l-36 -133h-918z" />
<glyph unicode="{" horiz-adv-x="989" d="M121 526l33 123h57q75 0 132 19q55 18 92 60q40 45 63 111q26 75 43 169q18 104 55 186t101 140t163 91t242 39l2 -112q-105 -6 -182 -34q-73 -27 -122 -74q-50 -48 -74 -111t-40 -152q-18 -108 -45 -180t-64 -118t-90 -71q-49 -23 -120 -34q149 -37 149 -172 q0 -64 -22 -130q-16 -46 -30 -105q-13 -56 -13 -105q0 -91 51 -154t184 -102l-49 -99q-94 18 -158 52q-65 34 -105 77q-42 45 -59 95q-18 53 -18 110q0 49 10 95q12 53 37 132q10 33 15 66q6 40 6 55q0 65 -39 99q-38 34 -148 34h-57z" />
<glyph unicode="|" horiz-adv-x="620" d="M285 -262v1896h131v-1896h-131z" />
<glyph unicode="}" horiz-adv-x="989" d="M-84 -176q105 6 182 34q76 28 121 73q48 48 74 112q25 61 41 152q18 107 45 179q28 74 64 119q37 45 89 70t121 35q-151 37 -151 172q0 31 7 63q9 40 17 66q9 28 29 106q14 55 14 105q0 91 -51 154t-184 102l49 98q95 -19 157 -52q64 -34 104 -77t58 -95q19 -55 19 -110 q0 -49 -10 -95q-9 -41 -35 -132q-23 -74 -23 -121q0 -64 40 -98q41 -35 149 -35h55l-31 -123h-57q-78 0 -132 -18q-53 -18 -92 -61q-40 -45 -64 -110q-27 -72 -44 -169q-18 -103 -54 -186t-100 -141t-163 -91t-242 -39z" />
<glyph unicode="~" horiz-adv-x="968" d="M160 532q51 106 108 162q58 56 133 56q46 0 78 -19q31 -19 66 -49q33 -31 54 -46q19 -13 46 -13q38 0 65 30q28 32 62 90l100 -43q-49 -106 -106 -161q-58 -56 -133 -56q-46 0 -78 19q-31 19 -66 49q-34 32 -55 46q-20 13 -45 13q-37 0 -64 -31q-31 -36 -63 -92z" />
<glyph unicode="&#xa1;" horiz-adv-x="555" d="M43 0l31 117l293 911h88l-195 -911l-33 -117h-184zM369 1219l57 215h188l-59 -215h-186z" />
<glyph unicode="&#xa2;" horiz-adv-x="1159" d="M150 633q0 134 49 251t135 206q84 86 201 139q114 51 245 51h28q10 0 26 -2l67 168h131l-76 -191q100 -33 165 -93q66 -62 100 -132l-125 -80q-34 60 -81 105q-46 44 -118 67l-315 -805l24 -3q8 -1 27 -1q103 0 186 36q79 35 154 100l92 -105q-83 -77 -186 -124 q-105 -48 -248 -48q-17 0 -49 2q-25 2 -47 6l-76 -192h-131l90 227q-124 52 -197 163q-71 108 -71 255zM309 635q0 -98 44 -172q44 -75 122 -115l309 791h-10q-97 0 -182 -41t-148 -110t-99 -161q-36 -91 -36 -192z" />
<glyph unicode="&#xa3;" horiz-adv-x="1288" d="M-10 0l24 94l183 43l127 467h-172l38 141h170l68 248q26 96 68 181q40 82 96 135q68 69 151 105q84 36 195 36q150 0 246 -66q97 -66 151 -165l-133 -86q-46 77 -109 122t-165 45q-70 0 -122 -23q-54 -24 -97 -67q-84 -84 -127 -245l-60 -220h574l-39 -141h-574 l-123 -461h730l-39 -143h-1061z" />
<glyph unicode="&#xa4;" horiz-adv-x="1421" d="M68 485l34 129h162q6 117 39 222h-143l35 127h149q44 104 111 197t150 157q84 65 188 103q103 38 219 38q94 0 171 -24q74 -23 134 -69q55 -42 97 -104q40 -59 65 -131l-140 -63q-50 115 -127 179q-79 65 -219 65q-77 0 -147 -26q-69 -25 -129 -72q-61 -47 -109 -110 t-86 -140h557l-35 -127h-571q-16 -51 -27 -109q-9 -46 -14 -113h555l-35 -129h-520q11 -164 102 -263q92 -99 244 -99q122 0 210 48q91 50 169 136l109 -94q-91 -104 -209 -171q-119 -67 -283 -67q-105 0 -196 35q-88 34 -158 102t-109 160q-42 97 -49 213h-194z" />
<glyph unicode="&#xa5;" horiz-adv-x="1439" d="M139 238l33 127h416l47 180h-416l35 127h362l-323 762h180l289 -705l668 705h202l-737 -762h356l-34 -127h-422l-47 -180h421l-34 -127h-422l-62 -238h-159l63 238h-416z" />
<glyph unicode="&#xa7;" horiz-adv-x="1294" d="M127 154l102 102q58 -58 158 -102q98 -43 215 -43q96 0 158 37q63 38 63 100q0 57 -61 97t-203 87q-83 27 -164 61q-73 30 -121 64q-47 33 -74 77q-26 43 -26 95q0 57 28 105q26 44 77 80q49 34 116 55q62 19 150 24q-52 28 -94 77q-41 49 -41 114q0 61 30 112t85 86 q57 36 126 55q70 19 154 19q74 0 139 -13q69 -14 127 -37q61 -24 109 -55q50 -31 84 -69l-101 -102q-63 60 -157 101q-100 44 -218 44q-93 0 -157 -38t-64 -99q0 -58 63 -98q66 -42 201 -86q83 -27 164 -61q73 -30 121 -64q49 -34 75 -77t26 -95q0 -57 -28 -105 q-27 -46 -77 -81q-46 -32 -117 -54q-66 -20 -149 -25q54 -28 95 -76q40 -47 40 -114q0 -60 -31 -113q-30 -50 -84 -86q-52 -34 -125 -54q-70 -19 -153 -19q-77 0 -142 13q-69 14 -127 37t-108 55q-49 31 -84 69zM330 750q0 -56 57 -97q57 -40 188 -84q59 -20 117 -32 q53 -11 115 -11q50 0 100 13q47 12 81 33q32 19 53 52q20 31 20 62q0 56 -57 96q-56 40 -189 84q-66 22 -117 33q-49 10 -114 10q-54 0 -101 -12q-44 -11 -81 -34q-33 -20 -53 -51q-19 -29 -19 -62z" />
<glyph unicode="&#xa8;" horiz-adv-x="1024" d="M406 1219l53 194h184l-53 -194h-184zM768 1219l53 194h183l-54 -194h-182z" />
<glyph unicode="&#xa9;" horiz-adv-x="1699" d="M158 715q0 151 57 286q57 134 158 237q100 101 236 161q134 59 292 59q157 0 291 -58q135 -58 234 -159q101 -103 157 -235q57 -135 57 -287t-57 -287q-56 -132 -158 -236q-100 -101 -236 -161t-292 -60q-155 0 -291 59q-135 58 -234 159q-101 103 -157 235 q-57 135 -57 287zM225 715q0 -139 51 -262q51 -122 142 -215q93 -95 213 -146q124 -53 266 -53q143 0 267 54q120 52 215 147q92 92 143 216t51 263t-51 262q-51 122 -142 215q-92 93 -213 145q-127 54 -266 54q-143 0 -268 -55q-121 -53 -214 -146q-92 -92 -143 -216 t-51 -263zM526 727q0 79 29 152q28 71 80 126t121 85t153 30q104 0 172 -35q65 -33 123 -88l-74 -82q-44 42 -99 73q-54 30 -122 30q-57 0 -108 -23q-50 -23 -85 -62q-37 -42 -56 -92q-19 -51 -19 -112t21 -113q22 -55 57 -93q37 -40 86 -62q51 -23 104 -23q73 0 124 28 q50 27 104 75l73 -72q-60 -60 -130 -98q-68 -37 -173 -37q-80 0 -151 31q-68 30 -121 84q-52 54 -80 124q-29 73 -29 154z" />
<glyph unicode="&#xaa;" horiz-adv-x="798" d="M115 592l24 96h512l-24 -96h-512zM215 989q0 103 75 161q74 58 191 58q56 0 102 -10q76 -17 89 -20l4 12q5 11 6 24q2 20 2 25q0 51 -36 80q-37 29 -111 29q-38 0 -87 -9q-41 -8 -77 -22l-19 88q44 16 95 27q47 10 108 10q112 0 172 -48q59 -47 59 -134q0 -22 -4 -41 l-8 -41l-88 -332h-104l24 94q-41 -47 -95 -77q-52 -29 -124 -29q-75 0 -124 42q-50 42 -50 113zM324 1001q0 -40 26 -63q28 -25 74 -25q36 0 73 14t66 37q32 26 52 54q22 31 32 65l8 27q-32 10 -76 16q-49 7 -90 7q-73 0 -119 -36t-46 -96z" />
<glyph unicode="&#xab;" horiz-adv-x="1126" d="M92 516l4 16l455 443l102 -86l-385 -383l168 -363l-129 -63zM547 516l4 16l455 443l102 -86l-385 -383l168 -363l-129 -63z" />
<glyph unicode="&#xad;" horiz-adv-x="839" d="M135 532l43 166h572l-43 -166h-572z" />
<glyph unicode="&#xae;" horiz-adv-x="1699" d="M158 715q0 151 57 286q57 134 158 237q100 101 236 161q134 59 292 59q157 0 291 -58q135 -58 234 -159q101 -103 157 -235q57 -135 57 -287t-57 -287q-56 -132 -158 -236q-100 -101 -236 -161t-292 -60q-155 0 -291 59q-135 58 -234 159q-101 103 -157 235 q-57 135 -57 287zM225 715q0 -139 51 -262q51 -122 142 -215q93 -95 213 -146q124 -53 266 -53q143 0 267 54q120 52 215 147q92 92 143 216t51 263t-51 262q-51 122 -142 215q-92 93 -213 145q-127 54 -266 54q-143 0 -268 -55q-121 -53 -214 -146q-92 -92 -143 -216 t-51 -263zM608 358v760h340q127 0 206 -61t79 -168q0 -95 -54 -150q-52 -53 -141 -75l234 -306h-137l-220 287h-194v-287h-113zM721 745h217q78 0 129 36t51 102q0 64 -46 98q-47 35 -128 35h-223v-271z" />
<glyph unicode="&#xaf;" horiz-adv-x="1024" d="M373 1229l35 137h649l-37 -137h-647z" />
<glyph unicode="&#xb0;" horiz-adv-x="792" d="M180 1090q0 67 28 134q26 61 76 113q48 49 112 79t139 30q61 0 112 -21q53 -22 87 -57q36 -38 57 -87q20 -47 20 -107q0 -70 -28 -137q-26 -63 -75 -113q-47 -48 -113 -79q-65 -30 -138 -30q-62 0 -113 21q-53 22 -87 57q-34 36 -56 87q-21 50 -21 110zM297 1098 q0 -82 47 -129t123 -47q47 0 87 20q46 23 73 54q33 38 49 77q18 43 18 90q0 82 -47 129t-123 47q-49 0 -88 -20q-44 -23 -71 -54q-35 -40 -50 -77q-18 -44 -18 -90z" />
<glyph unicode="&#xb1;" horiz-adv-x="1241" d="M4 238l129 88q61 -90 158 -147q94 -56 250 -56q85 0 152 22q66 21 118 61q48 37 76 89q26 49 26 108q0 67 -28 113q-30 49 -81 78q-52 30 -123 45q-66 14 -153 14h-88l37 140h105q217 0 342 75q127 76 127 209q0 53 -23 97q-22 42 -62 72q-39 29 -94 46q-54 17 -116 17 q-117 0 -204 -39q-88 -39 -167 -105l-94 107q41 37 93 73q46 32 109 58q60 24 125 39q63 14 148 14q98 0 179 -25q84 -26 145 -72q62 -47 96 -114q35 -68 35 -149q0 -154 -108 -249q-109 -96 -294 -130q51 -17 100 -44q44 -25 83 -67q37 -41 58 -89q21 -50 21 -114 q0 -89 -42 -169q-42 -79 -115 -136q-74 -57 -174 -90t-220 -33q-98 0 -180 21q-83 21 -147 56q-66 36 -116 83q-49 46 -83 103z" />
<glyph unicode="&#xb4;" horiz-adv-x="1024" d="M489 1219l275 297l164 -76l-291 -221h-148z" />
<glyph unicode="&#xb6;" horiz-adv-x="1058" d="M201 901q0 120 45 219q45 100 133 168q92 72 214 108q128 38 290 38h215l-385 -1434h-164l135 510q-99 4 -190 29q-87 23 -154 71q-63 45 -102 119q-37 71 -37 172z" />
<glyph unicode="&#xb7;" horiz-adv-x="522" d="M158 508l59 215h186l-57 -215h-188z" />
<glyph unicode="&#xb8;" horiz-adv-x="1024" d="M129 -248l256 268h125l-246 -337z" />
<glyph unicode="&#xba;" horiz-adv-x="804" d="M119 592l24 96h553l-24 -96h-553zM229 1098q0 68 27 131t74 110q49 49 109 76q64 29 134 29q63 0 112 -21q52 -22 86 -56q35 -35 55 -85q20 -51 20 -106q0 -69 -27 -132t-74 -110q-49 -49 -109 -76q-64 -29 -134 -29q-123 0 -198 76q-75 77 -75 193zM338 1102 q0 -79 47 -129q46 -49 123 -49q49 0 89 20q45 22 73 55q31 36 49 80q18 45 18 92q0 79 -47 129t-123 50q-49 0 -91 -21q-45 -22 -73 -55q-30 -34 -48 -80q-17 -42 -17 -92z" />
<glyph unicode="&#xbb;" horiz-adv-x="1126" d="M16 164l383 383l-168 362l129 64l215 -436l-4 -17l-452 -442zM471 164l383 383l-168 362l129 64l215 -436l-4 -17l-455 -442z" />
<glyph unicode="&#xbf;" horiz-adv-x="1099" d="M90 344q0 97 41 176q40 77 113 135q74 59 170 95q95 36 213 53l82 225h102l-55 -332l-15 -10q-104 -7 -197 -34q-91 -26 -153 -66q-63 -40 -98 -100q-35 -59 -35 -130q0 -110 78 -169q77 -58 194 -58q112 0 207 49q99 51 166 115l92 -107q-88 -88 -209 -146 q-120 -58 -272 -58q-98 0 -177 27q-77 26 -134 77q-55 49 -84 116t-29 142zM715 1219l57 215h189l-58 -215h-188z" />
<glyph unicode="&#xc0;" horiz-adv-x="1558" d="M-82 0l1040 1444h156l266 -1444h-166l-65 379h-782l-271 -379h-178zM469 524h653l-129 736zM858 1782l166 76l115 -297h-111z" />
<glyph unicode="&#xc1;" horiz-adv-x="1558" d="M-82 0l1040 1444h156l266 -1444h-166l-65 379h-782l-271 -379h-178zM469 524h653l-129 736zM967 1561l274 297l164 -76l-291 -221h-147z" />
<glyph unicode="&#xc2;" horiz-adv-x="1558" d="M-82 0l1040 1444h156l266 -1444h-166l-65 379h-782l-271 -379h-178zM469 524h653l-129 736zM766 1561l289 268h139l145 -268h-127l-110 137l-197 -137h-139z" />
<glyph unicode="&#xc3;" horiz-adv-x="1558" d="M-82 0l1040 1444h156l266 -1444h-166l-65 379h-782l-271 -379h-178zM469 524h653l-129 736zM727 1597q50 105 109 162q58 56 131 56q48 0 80 -19q28 -17 65 -49q34 -30 54 -45q18 -14 46 -14q38 0 65 31q29 34 62 91l101 -45q-49 -101 -108 -160q-57 -57 -132 -57 q-47 0 -78 20q-32 21 -65 48q-32 30 -56 46q-20 13 -47 13q-34 0 -63 -30q-30 -31 -64 -91z" />
<glyph unicode="&#xc4;" horiz-adv-x="1558" d="M-82 0l1040 1444h156l266 -1444h-166l-65 379h-782l-271 -379h-178zM469 524h653l-129 736zM799 1561l53 194h184l-53 -194h-184zM1161 1561l53 194h183l-54 -194h-182z" />
<glyph unicode="&#xc5;" horiz-adv-x="1558" d="M-68 0l1010 1401q-40 22 -61 60q-21 37 -21 85q0 45 19 88q19 42 50 72q34 32 73 49q44 19 90 19q90 0 148 -52q56 -50 56 -129q0 -74 -45 -131q-46 -58 -110 -80l256 -1382h-168l-66 379h-780l-272 -379h-179zM483 524h656l-131 736zM948 1546q0 -42 30 -72t87 -30 q59 0 100 44t41 103q0 46 -29 74q-31 29 -85 29q-62 0 -103 -44t-41 -104z" />
<glyph unicode="&#xc6;" horiz-adv-x="2181" d="M-82 0l1227 1434h1147l-41 -148h-838l-131 -489h746l-39 -148h-746l-135 -502h848l-39 -147h-1010l103 379h-582l-324 -379h-186zM549 524h498l204 766h-51z" />
<glyph unicode="&#xc7;" horiz-adv-x="1505" d="M174 567q0 173 68 335q68 161 184 285q115 123 273 197q157 74 335 74q199 0 334 -87t207 -220l-139 -86q-66 112 -162 178t-254 66q-138 0 -262 -62q-123 -62 -215 -164q-95 -106 -146 -235q-53 -135 -53 -275q0 -106 34 -187q36 -85 93 -141q62 -60 141 -89 q85 -31 181 -31q145 0 248 52q107 54 196 142l109 -106q-50 -49 -108 -93q-61 -46 -127 -77q-70 -33 -149 -51q-86 -19 -178 -19h-10l-215 -290l-133 69l225 236q-103 18 -189 67q-88 50 -152 123t-100 172t-36 217z" />
<glyph unicode="&#xc8;" horiz-adv-x="1337" d="M61 0l385 1434h1027l-41 -148h-865l-131 -489h772l-41 -148h-770l-135 -502h875l-39 -147h-1037zM784 1782l166 76l115 -297h-111z" />
<glyph unicode="&#xc9;" horiz-adv-x="1337" d="M61 0l385 1434h1027l-41 -148h-865l-131 -489h772l-41 -148h-770l-135 -502h875l-39 -147h-1037zM829 1561l275 297l164 -76l-291 -221h-148z" />
<glyph unicode="&#xca;" horiz-adv-x="1337" d="M61 0l385 1434h1027l-41 -148h-865l-131 -489h772l-41 -148h-770l-135 -502h875l-39 -147h-1037zM686 1561l289 268h139l146 -268h-127l-111 137l-197 -137h-139z" />
<glyph unicode="&#xcb;" horiz-adv-x="1337" d="M61 0l385 1434h1027l-41 -148h-865l-131 -489h772l-41 -148h-770l-135 -502h875l-39 -147h-1037zM709 1561l53 194h184l-53 -194h-184zM1071 1561l53 194h183l-54 -194h-182z" />
<glyph unicode="&#xcc;" horiz-adv-x="595" d="M76 0l385 1434h162l-385 -1434h-162zM367 1782l165 76l115 -297h-110z" />
<glyph unicode="&#xcd;" horiz-adv-x="595" d="M76 0l385 1434h162l-385 -1434h-162zM463 1561l274 297l164 -76l-291 -221h-147z" />
<glyph unicode="&#xce;" horiz-adv-x="595" d="M76 0l385 1434h162l-385 -1434h-162zM272 1561l289 268h139l146 -268h-127l-111 137l-196 -137h-140z" />
<glyph unicode="&#xcf;" horiz-adv-x="595" d="M76 0l385 1434h162l-385 -1434h-162zM303 1561l53 194h185l-54 -194h-184zM666 1561l53 194h182l-53 -194h-182z" />
<glyph unicode="&#xd0;" horiz-adv-x="1638" d="M117 0l174 647h-160l41 148h158l172 639h348q178 0 322 -50t235 -141q78 -78 118 -179t40 -233q0 -165 -59 -307t-169 -252q-128 -128 -317 -200t-418 -72h-485zM319 150h304q179 0 331 57t263 168q86 86 132 199t46 247q0 99 -31 181q-30 79 -88 137q-70 70 -182 108 q-110 37 -256 37h-213l-131 -489h424l-39 -148h-426z" />
<glyph unicode="&#xd1;" horiz-adv-x="1609" d="M61 0l385 1434h150l584 -1164l313 1164h158l-385 -1434h-129l-598 1190l-320 -1190h-158zM721 1597q51 107 108 162q58 56 132 56q47 0 79 -19q31 -19 66 -49q34 -30 54 -45q18 -14 46 -14q38 0 65 31q29 34 62 91l101 -45q-49 -101 -108 -160q-57 -57 -132 -57 q-47 0 -78 20q-32 21 -65 48q-32 30 -56 46q-20 13 -47 13q-34 0 -63 -30q-30 -31 -64 -91z" />
<glyph unicode="&#xd2;" d="M180 596q0 164 65 321q64 155 176 276q111 120 264 192q155 73 331 73q140 0 255 -48t198 -132q82 -84 129 -197q47 -114 47 -243q0 -166 -65 -323q-64 -155 -176 -276q-113 -122 -264 -193q-155 -73 -331 -73q-139 0 -255 48t-199 133t-129 197q-46 113 -46 245z M350 600q0 -102 33 -189q34 -89 94 -151q60 -61 148 -100q84 -37 194 -37q141 0 261 60q118 59 207 160q88 100 137 227q51 131 51 261q0 101 -33 189q-33 89 -94 151q-62 63 -149 101q-86 37 -193 37q-140 0 -262 -61q-118 -59 -206 -159q-89 -101 -138 -228 q-50 -129 -50 -261zM907 1782l166 76l115 -297h-111z" />
<glyph unicode="&#xd3;" d="M180 596q0 164 65 321q64 155 176 276q111 120 264 192q155 73 331 73q140 0 255 -48t198 -132q82 -84 129 -197q47 -114 47 -243q0 -166 -65 -323q-64 -155 -176 -276q-113 -122 -264 -193q-155 -73 -331 -73q-139 0 -255 48t-199 133t-129 197q-46 113 -46 245z M350 600q0 -102 33 -189q34 -89 94 -151q60 -61 148 -100q84 -37 194 -37q141 0 261 60q118 59 207 160q88 100 137 227q51 131 51 261q0 101 -33 189q-33 89 -94 151q-62 63 -149 101q-86 37 -193 37q-140 0 -262 -61q-118 -59 -206 -159q-89 -101 -138 -228 q-50 -129 -50 -261zM930 1561l274 297l164 -76l-291 -221h-147z" />
<glyph unicode="&#xd4;" d="M180 596q0 164 65 321q64 155 176 276q111 120 264 192q155 73 331 73q140 0 255 -48t198 -132q82 -84 129 -197q47 -114 47 -243q0 -166 -65 -323q-64 -155 -176 -276q-113 -122 -264 -193q-155 -73 -331 -73q-139 0 -255 48t-199 133t-129 197q-46 113 -46 245z M350 600q0 -102 33 -189q34 -89 94 -151q60 -61 148 -100q84 -37 194 -37q141 0 261 60q118 59 207 160q88 100 137 227q51 131 51 261q0 101 -33 189q-33 89 -94 151q-62 63 -149 101q-86 37 -193 37q-140 0 -262 -61q-118 -59 -206 -159q-89 -101 -138 -228 q-50 -129 -50 -261zM805 1561l289 268h139l145 -268h-127l-110 137l-197 -137h-139z" />
<glyph unicode="&#xd5;" d="M180 596q0 165 65 322q63 153 176 275q111 120 264 192q155 73 331 73q140 0 255 -48t198 -132q82 -84 129 -197q47 -114 47 -243q0 -166 -65 -323q-64 -155 -176 -276q-113 -122 -264 -193q-155 -73 -331 -73q-137 0 -255 49q-117 49 -199 132q-83 85 -129 197 q-46 113 -46 245zM350 600q0 -102 33 -189q34 -89 94 -151q60 -61 148 -100q84 -37 194 -37q141 0 261 60q118 59 207 160q88 100 137 227q51 131 51 261q0 101 -33 189q-33 89 -94 151q-62 63 -149 101q-86 37 -193 37q-140 0 -262 -61q-118 -59 -206 -159 q-89 -101 -138 -228q-50 -129 -50 -261zM748 1597q51 107 108 162q58 56 131 56q48 0 80 -19q31 -19 66 -49t54 -45q18 -14 46 -14q37 0 64 31q32 38 63 91l100 -45q-50 -103 -107 -160t-132 -57q-47 0 -78 20q-37 24 -66 48q-34 32 -55 46q-20 13 -47 13q-35 0 -64 -30 q-27 -28 -63 -91z" />
<glyph unicode="&#xd6;" d="M180 596q0 164 65 321q64 155 176 276q111 120 264 192q155 73 331 73q140 0 255 -48t198 -132q82 -84 129 -197q47 -114 47 -243q0 -166 -65 -323q-64 -155 -176 -276q-113 -122 -264 -193q-155 -73 -331 -73q-139 0 -255 48t-199 133t-129 197q-46 113 -46 245z M350 600q0 -102 33 -189q34 -89 94 -151q60 -61 148 -100q84 -37 194 -37q141 0 261 60q118 59 207 160q88 100 137 227q51 131 51 261q0 101 -33 189q-33 89 -94 151q-62 63 -149 101q-86 37 -193 37q-140 0 -262 -61q-118 -59 -206 -159q-89 -101 -138 -228 q-50 -129 -50 -261zM819 1561l53 194h185l-53 -194h-185zM1182 1561l53 194h182l-53 -194h-182z" />
<glyph unicode="&#xd8;" d="M-39 -10l313 268q-94 146 -94 338q0 165 65 322q63 153 176 275q111 120 264 192q155 73 331 73q143 0 257 -49q116 -50 200 -135l196 170h184l-305 -264q49 -76 72 -159q25 -91 25 -183q0 -166 -65 -323q-64 -155 -176 -276q-113 -122 -264 -193q-155 -73 -331 -73 q-141 0 -260 52q-117 51 -199 139l-205 -174h-184zM346 600q0 -130 53 -238l953 812q-59 63 -149 102q-86 37 -197 37q-141 0 -263 -62q-119 -60 -208 -160t-139 -228q-50 -129 -50 -263zM471 264q59 -66 149 -106q88 -39 199 -39q141 0 262 61q120 61 209 162 q88 100 138 228q51 131 51 261q0 131 -58 244z" />
<glyph unicode="&#xd9;" horiz-adv-x="1552" d="M188 436q0 108 31 223l205 775h164l-217 -818q-12 -38 -16 -73q-5 -45 -5 -88q0 -69 23 -130q23 -62 69 -105t117 -68q72 -25 166 -25q90 0 171 33q82 33 148 98q57 58 104 144q50 90 79 206l223 826h162l-230 -854q-73 -272 -225 -424q-179 -179 -446 -179 q-131 0 -227 34q-97 34 -162 95q-65 60 -100 146q-34 83 -34 184zM842 1782l166 76l114 -297h-110z" />
<glyph unicode="&#xda;" horiz-adv-x="1552" d="M188 436q0 108 31 223l205 775h164l-217 -818q-12 -38 -16 -73q-5 -45 -5 -88q0 -69 23 -130q23 -62 69 -105t117 -68q72 -25 166 -25q90 0 171 33q82 33 148 98q57 58 104 144q50 90 79 206l223 826h162l-230 -854q-73 -272 -225 -424q-179 -179 -446 -179 q-131 0 -227 34q-97 34 -162 95q-65 60 -100 146q-34 83 -34 184zM887 1561l274 297l164 -76l-291 -221h-147z" />
<glyph unicode="&#xdb;" horiz-adv-x="1552" d="M188 436q0 108 31 223l205 775h164l-217 -818q-12 -38 -16 -73q-5 -45 -5 -88q0 -69 23 -130q23 -62 69 -105t117 -68q72 -25 166 -25q90 0 171 33q82 33 148 98q57 58 104 144q50 90 79 206l223 826h162l-230 -854q-73 -272 -225 -424q-179 -179 -446 -179 q-131 0 -227 34q-97 34 -162 95q-65 60 -100 146q-34 83 -34 184zM748 1561l288 268h140l145 -268h-127l-111 137l-196 -137h-139z" />
<glyph unicode="&#xdc;" horiz-adv-x="1552" d="M188 436q0 108 31 223l205 775h164l-217 -818q-12 -38 -16 -73q-5 -45 -5 -88q0 -69 23 -130q23 -62 69 -105t117 -68q72 -25 166 -25q90 0 171 33q82 33 148 98q57 58 104 144q50 90 79 206l223 826h162l-230 -854q-73 -272 -225 -424q-179 -179 -446 -179 q-131 0 -227 34q-97 34 -162 95q-65 60 -100 146q-34 83 -34 184zM770 1561l53 194h185l-54 -194h-184zM1133 1561l53 194h182l-53 -194h-182z" />
<glyph unicode="&#xdd;" horiz-adv-x="1357" d="M244 1434h180l287 -723l675 723h207l-839 -883l-148 -551h-164l156 578zM788 1561l275 297l164 -76l-291 -221h-148z" />
<glyph unicode="&#xde;" horiz-adv-x="1380" d="M61 0l385 1434h160l-63 -246h284q278 0 412 -133q100 -104 100 -269q0 -124 -51 -222q-51 -97 -143 -165q-91 -67 -222 -102q-132 -35 -288 -35h-340l-72 -262h-162zM334 408h309q254 0 392 96q139 97 139 272q0 106 -68 172q-90 90 -283 90h-321z" />
<glyph unicode="&#xdf;" horiz-adv-x="1275" d="M35 0l276 1026q28 103 73 194q43 85 105 146q68 69 157 107q85 36 192 36q90 0 161 -26q76 -28 127 -73q54 -48 82 -110q29 -64 29 -137q0 -84 -32 -153q-32 -68 -86 -119q-53 -50 -127 -87q-77 -38 -156 -61q57 -17 114 -46q52 -27 93 -66q40 -39 64 -91q23 -50 23 -118 q0 -91 -44 -171q-42 -78 -130 -136q-86 -58 -212 -89t-289 -30l34 131q126 0 221 25q89 23 149 65q57 39 85 94q27 52 27 113q0 204 -334 256l33 123q218 51 313 139q96 88 96 211q0 97 -67 157t-185 60q-134 0 -226 -98q-94 -100 -140 -273l-268 -999h-158z" />
<glyph unicode="&#xe0;" horiz-adv-x="1179" d="M39 270q0 87 35 160q34 71 98 121q61 48 150 76q82 26 188 26q112 0 203 -17q99 -19 172 -40l8 27q2 8 4.5 24.5t3.5 23.5q4 23 4 48q0 103 -70 158t-214 55q-91 0 -157 -14q-76 -16 -142 -41l-29 133q79 30 164 48q79 17 188 17q201 0 308 -88q108 -89 108 -242 q0 -28 -5 -70q-4 -31 -16 -75l-159 -600h-156l43 166q-74 -87 -170 -137q-101 -52 -225 -52q-66 0 -128 20q-63 20 -107 56t-72 91q-27 54 -27 126zM201 289q0 -87 59 -136q62 -51 164 -51q66 0 133 23q65 22 122 64q53 39 98 100q43 59 61 127l20 73q-67 17 -157 33 q-87 15 -185 15q-141 0 -228 -69t-87 -179zM557 1440l166 76l115 -297h-111z" />
<glyph unicode="&#xe1;" horiz-adv-x="1179" d="M39 270q0 87 35 160q34 71 98 121q61 48 150 76q82 26 188 26q112 0 203 -17q99 -19 172 -40l8 27q2 8 4.5 24.5t3.5 23.5q4 23 4 48q0 103 -70 158t-214 55q-91 0 -157 -14q-76 -16 -142 -41l-29 133q79 30 164 48q79 17 188 17q201 0 308 -88q108 -89 108 -242 q0 -28 -5 -70q-4 -31 -16 -75l-159 -600h-156l43 166q-74 -87 -170 -137q-101 -52 -225 -52q-66 0 -128 20q-63 20 -107 56t-72 91q-27 54 -27 126zM201 289q0 -87 59 -136q62 -51 164 -51q66 0 133 23q65 22 122 64q53 39 98 100q43 59 61 127l20 73q-67 17 -157 33 q-87 15 -185 15q-141 0 -228 -69t-87 -179zM606 1219l275 297l163 -76l-290 -221h-148z" />
<glyph unicode="&#xe2;" horiz-adv-x="1179" d="M39 270q0 87 35 160q34 71 98 121q61 48 150 76q82 26 188 26q112 0 203 -17q99 -19 172 -40l8 27q2 8 4.5 24.5t3.5 23.5q4 23 4 48q0 103 -70 158t-214 55q-91 0 -157 -14q-76 -16 -142 -41l-29 133q79 30 164 48q79 17 188 17q201 0 308 -88q108 -89 108 -242 q0 -28 -5 -70q-4 -31 -16 -75l-159 -600h-156l43 166q-74 -87 -170 -137q-101 -52 -225 -52q-66 0 -128 20q-63 20 -107 56t-72 91q-27 54 -27 126zM201 289q0 -87 59 -136q62 -51 164 -51q66 0 133 23q65 22 122 64q53 39 98 100q43 59 61 127l20 73q-67 17 -157 33 q-87 15 -185 15q-141 0 -228 -69t-87 -179zM467 1219l289 268h139l145 -268h-127l-110 137l-197 -137h-139z" />
<glyph unicode="&#xe3;" horiz-adv-x="1179" d="M39 270q0 87 35 160q34 71 98 121q61 48 150 76q82 26 188 26q112 0 203 -17q99 -19 172 -40l8 27q2 8 4.5 24.5t3.5 23.5q4 23 4 48q0 103 -70 158t-214 55q-91 0 -157 -14q-76 -16 -142 -41l-29 133q79 30 164 48q79 17 188 17q201 0 308 -88q108 -89 108 -242 q0 -28 -5 -70q-4 -31 -16 -75l-159 -600h-156l43 166q-74 -87 -170 -137q-101 -52 -225 -52q-66 0 -128 20q-63 20 -107 56t-72 91q-27 54 -27 126zM201 289q0 -87 59 -136q62 -51 164 -51q66 0 133 23q65 22 122 64q53 39 98 100q43 59 61 127l20 73q-67 17 -157 33 q-87 15 -185 15q-141 0 -228 -69t-87 -179zM420 1255q51 107 108 162q58 56 131 56q48 0 80 -19q31 -19 66 -49t54 -45q18 -14 46 -14q38 0 65 31q29 34 62 91l101 -45q-49 -101 -108 -160q-57 -57 -132 -57q-47 0 -78 20q-32 21 -65 48q-32 30 -56 46q-20 13 -47 13 q-35 0 -63 -30q-30 -31 -64 -91z" />
<glyph unicode="&#xe4;" horiz-adv-x="1179" d="M39 270q0 87 35 160q34 71 98 121q61 48 150 76q82 26 188 26q112 0 203 -17q99 -19 172 -40l8 27q2 8 4.5 24.5t3.5 23.5q4 23 4 48q0 103 -70 158t-214 55q-91 0 -157 -14q-76 -16 -142 -41l-29 133q79 30 164 48q79 17 188 17q201 0 308 -88q108 -89 108 -242 q0 -28 -5 -70q-4 -31 -16 -75l-159 -600h-156l43 166q-74 -87 -170 -137q-101 -52 -225 -52q-66 0 -128 20q-63 20 -107 56t-72 91q-27 54 -27 126zM201 289q0 -87 59 -136q62 -51 164 -51q66 0 133 23q65 22 122 64q53 39 98 100q43 59 61 127l20 73q-67 17 -157 33 q-87 15 -185 15q-141 0 -228 -69t-87 -179zM479 1219l53 194h185l-53 -194h-185zM842 1219l53 194h182l-53 -194h-182z" />
<glyph unicode="&#xe5;" horiz-adv-x="1179" d="M39 270q0 87 35 160q34 71 98 121q61 48 150 76q82 26 188 26q112 0 203 -17q99 -19 172 -40l8 27q2 8 4.5 24.5t3.5 23.5q4 23 4 48q0 103 -70 158t-214 55q-91 0 -157 -14q-76 -16 -142 -41l-29 133q79 30 164 48q79 17 188 17q201 0 308 -88q108 -89 108 -242 q0 -28 -5 -70q-4 -31 -16 -75l-159 -600h-156l43 166q-74 -87 -170 -137q-101 -52 -225 -52q-66 0 -128 20q-63 20 -107 56t-72 91q-27 54 -27 126zM201 289q0 -87 59 -136q62 -51 164 -51q66 0 133 23q65 22 122 64q53 39 98 100q43 59 61 127l20 73q-67 17 -157 33 q-87 15 -185 15q-141 0 -228 -69t-87 -179zM586 1397q0 47 18 88t50 71q35 33 74 50q42 18 89 18q92 0 149 -51q56 -50 56 -129q0 -48 -18 -88q-18 -41 -51 -72q-34 -32 -74 -49q-44 -18 -91 -18q-92 0 -147 51t-55 129zM674 1399q0 -46 29 -74q31 -29 88 -29q60 0 101 44 q40 43 40 104q0 46 -30 74q-29 28 -85 28q-61 0 -102 -44t-41 -103z" />
<glyph unicode="&#xe6;" horiz-adv-x="1961" d="M39 270q0 87 35 160q34 71 98 121q61 48 150 76q82 26 188 26q112 0 203 -17q99 -19 172 -40l8 27q2 8 4.5 24.5t3.5 23.5q4 23 4 48q0 103 -70 158t-214 55q-91 0 -157 -14q-76 -16 -142 -41l-29 133q79 30 164 48q79 17 188 17q151 0 252 -58q103 -59 137 -163 q79 100 193 164q113 63 248 63q102 0 176 -32q76 -33 127 -88q49 -53 77 -130q27 -73 27 -155q0 -56 -10 -106q-9 -47 -29 -101h-827q-2 -14 -2 -18v-19q0 -144 86 -232q86 -87 233 -87q106 0 179 32q76 33 149 93l82 -105q-74 -63 -180 -111q-103 -47 -234 -47 q-153 0 -260 65t-158 179q-107 -110 -235 -175q-132 -67 -303 -67q-66 0 -128 20q-63 20 -107 56t-72 91q-27 54 -27 126zM201 289q0 -87 59 -136q62 -51 164 -51q135 0 246 60t209 164q-6 40 -8 55q-3 27 -3 55q0 19 6 49q-71 22 -166 37q-93 15 -192 15q-141 0 -228 -69 t-87 -179zM1038 596h682q4 16 6 35q3 36 3 45q0 51 -16 104q-15 48 -48 86q-33 37 -83 60q-48 22 -118 22q-77 0 -146 -27q-67 -26 -123 -76q-51 -46 -94 -112q-40 -63 -63 -137z" />
<glyph unicode="&#xe7;" horiz-adv-x="1150" d="M98 438q0 128 50 246q48 114 136 205q85 88 197 140q111 52 240 52q85 0 149 -20q72 -22 120 -54q53 -35 90 -79q42 -50 63 -94l-127 -80q-20 34 -51 72q-28 34 -65 60t-83 41q-47 15 -106 15q-88 0 -172 -41q-83 -41 -144 -109q-60 -67 -98 -160q-37 -90 -37 -190 q0 -76 26 -139q25 -61 69 -103q44 -43 102 -64q57 -21 118 -21q93 0 169 38t145 101l92 -102q-83 -79 -180 -127q-100 -50 -232 -50h-4l-213 -292l-135 69l227 238q-69 17 -134 56q-61 36 -109 95q-49 60 -75 132q-28 78 -28 165z" />
<glyph unicode="&#xe8;" horiz-adv-x="1206" d="M98 426q0 122 46 239t129 209q84 93 196 150q113 57 246 57q103 0 177 -32q78 -34 128 -88q50 -55 78 -130q26 -71 26 -155q0 -56 -10 -106q-9 -47 -29 -101h-827q-2 -14 -2 -18v-19q0 -144 86 -232q86 -87 233 -87q105 0 179 32q73 32 147 93l82 -105q-74 -63 -177 -111 q-100 -47 -239 -47q-104 0 -191 33q-89 34 -149 92q-59 58 -95 143q-34 81 -34 183zM281 596h682q4 16 6 35q2 24 2 45q0 51 -16 104q-15 48 -48 86q-33 37 -83 60q-48 22 -117 22q-78 0 -147 -27q-67 -26 -123 -76q-51 -46 -94 -112q-38 -60 -62 -137zM565 1440l166 76 l115 -297h-111z" />
<glyph unicode="&#xe9;" horiz-adv-x="1206" d="M98 426q0 122 46 239t129 209q84 93 196 150q113 57 246 57q103 0 177 -32q78 -34 128 -88q50 -55 78 -130q26 -71 26 -155q0 -56 -10 -106q-9 -47 -29 -101h-827q-2 -14 -2 -18v-19q0 -144 86 -232q86 -87 233 -87q105 0 179 32q73 32 147 93l82 -105q-74 -63 -177 -111 q-100 -47 -239 -47q-104 0 -191 33q-89 34 -149 92q-59 58 -95 143q-34 81 -34 183zM281 596h682q4 16 6 35q2 24 2 45q0 51 -16 104q-15 48 -48 86q-33 37 -83 60q-48 22 -117 22q-78 0 -147 -27q-67 -26 -123 -76q-51 -46 -94 -112q-38 -60 -62 -137zM621 1219l274 297 l164 -76l-291 -221h-147z" />
<glyph unicode="&#xea;" horiz-adv-x="1206" d="M98 426q0 122 46 239t129 209q84 93 196 150q113 57 246 57q103 0 177 -32q78 -34 128 -88q50 -55 78 -130q26 -71 26 -155q0 -56 -10 -106q-9 -47 -29 -101h-827q-2 -14 -2 -18v-19q0 -144 86 -232q86 -87 233 -87q105 0 179 32q73 32 147 93l82 -105q-74 -63 -177 -111 q-100 -47 -239 -47q-104 0 -191 33q-89 34 -149 92q-59 58 -95 143q-34 81 -34 183zM281 596h682q4 16 6 35q2 24 2 45q0 51 -16 104q-15 48 -48 86q-33 37 -83 60q-48 22 -117 22q-78 0 -147 -27q-67 -26 -123 -76q-51 -46 -94 -112q-38 -60 -62 -137zM467 1219l289 268 h139l145 -268h-127l-110 137l-197 -137h-139z" />
<glyph unicode="&#xeb;" horiz-adv-x="1206" d="M98 426q0 122 46 239t129 209q84 93 196 150q113 57 246 57q103 0 177 -32q78 -34 128 -88q50 -55 78 -130q26 -71 26 -155q0 -56 -10 -106q-9 -47 -29 -101h-827q-2 -14 -2 -18v-19q0 -144 86 -232q86 -87 233 -87q105 0 179 32q73 32 147 93l82 -105q-74 -63 -177 -111 q-100 -47 -239 -47q-104 0 -191 33q-89 34 -149 92q-59 58 -95 143q-34 81 -34 183zM281 596h682q4 16 6 35q2 24 2 45q0 51 -16 104q-15 48 -48 86q-33 37 -83 60q-48 22 -117 22q-78 0 -147 -27q-67 -26 -123 -76q-51 -46 -94 -112q-38 -60 -62 -137zM489 1219l54 194h184 l-53 -194h-185zM852 1219l53 194h182l-53 -194h-182z" />
<glyph unicode="&#xec;" horiz-adv-x="540" d="M49 0l285 1059h158l-285 -1059h-158zM213 1440l166 76l115 -297h-111z" />
<glyph unicode="&#xed;" horiz-adv-x="540" d="M49 0l285 1059h158l-285 -1059h-158zM352 1219l275 297l164 -76l-291 -221h-148z" />
<glyph unicode="&#xee;" horiz-adv-x="540" d="M49 0l285 1059h158l-285 -1059h-158zM152 1219l288 268h140l145 -268h-127l-111 137l-196 -137h-139z" />
<glyph unicode="&#xef;" horiz-adv-x="540" d="M49 0l285 1059h158l-285 -1059h-158zM174 1219l53 194h185l-54 -194h-184zM537 1219l53 194h182l-53 -194h-182z" />
<glyph unicode="&#xf0;" horiz-adv-x="1273" d="M92 426q0 120 46 222q47 104 124 180q80 78 180 121q103 44 213 44q112 0 186 -31t128 -79l-160 370l-305 -129l-53 103l313 131l-62 137h172l33 -80l232 98l51 -102l-240 -100l131 -322q50 -123 72 -212q23 -94 23 -185q0 -120 -44 -232q-42 -108 -125 -195 q-80 -84 -194 -136q-115 -52 -250 -52q-103 0 -189 34q-90 36 -150 93q-62 59 -97 143t-35 179zM250 434q0 -74 24 -132q23 -57 68 -100q46 -44 102 -64q60 -21 131 -21q89 0 170 35q79 34 140 95q58 58 93 139q34 78 34 167q0 66 -24 123t-67 100t-108 68q-63 24 -143 24 q-88 0 -163 -34t-133 -95q-55 -58 -90 -138q-34 -78 -34 -167z" />
<glyph unicode="&#xf1;" horiz-adv-x="1255" d="M35 0l282 1059h158l-45 -172q70 80 160 138q87 56 209 56q154 0 245 -88q93 -90 93 -239q0 -28 -9 -80q-8 -44 -18 -84l-156 -590h-157l159 600q10 35 13 59q4 29 4 60q0 104 -64 163q-62 58 -174 58q-60 0 -121 -26q-59 -25 -110 -70q-50 -44 -91 -108q-40 -63 -61 -138 l-159 -598h-158zM459 1255q51 107 108 162q58 56 131 56q48 0 80 -19q31 -19 66 -49q34 -30 54 -45q18 -14 46 -14q38 0 65 31q29 34 62 91l100 -45q-50 -103 -107 -160t-132 -57q-47 0 -78 20q-37 24 -66 48q-34 32 -55 46q-20 13 -47 13q-34 0 -63 -30q-30 -31 -64 -91z " />
<glyph unicode="&#xf2;" horiz-adv-x="1306" d="M100 451q0 120 51 237q50 116 135 202q85 87 197 139q111 52 240 52q110 0 198 -36q91 -37 152 -98q64 -64 98 -149q35 -88 35 -190q0 -127 -51 -241q-51 -115 -137 -202q-85 -86 -199 -138q-115 -52 -237 -52q-110 0 -198 36q-89 36 -153 100q-62 62 -97 150 q-34 86 -34 190zM260 455q0 -161 92 -250q91 -88 240 -88q89 0 170 40q83 41 145 107q64 68 101 156q36 85 36 182q0 162 -92 251t-239 89q-91 0 -174 -42t-144 -109q-60 -65 -98 -156q-37 -87 -37 -180zM588 1440l166 76l114 -297h-110z" />
<glyph unicode="&#xf3;" horiz-adv-x="1306" d="M100 451q0 120 51 237q50 116 135 202q85 87 197 139q111 52 240 52q110 0 198 -36q91 -37 152 -98q64 -64 98 -149q35 -88 35 -190q0 -127 -51 -241q-51 -115 -137 -202q-85 -86 -199 -138q-115 -52 -237 -52q-110 0 -198 36q-89 36 -153 100q-62 62 -97 150 q-34 86 -34 190zM260 455q0 -161 92 -250q91 -88 240 -88q89 0 170 40q83 41 145 107q64 68 101 156q36 85 36 182q0 162 -92 251t-239 89q-91 0 -174 -42t-144 -109q-60 -65 -98 -156q-37 -87 -37 -180zM639 1219l274 297l164 -76l-291 -221h-147z" />
<glyph unicode="&#xf4;" horiz-adv-x="1306" d="M100 451q0 120 51 237q50 116 135 202q85 87 197 139q111 52 240 52q110 0 198 -36q91 -37 152 -98q64 -64 98 -149q35 -88 35 -190q0 -127 -51 -241q-51 -115 -137 -202q-85 -86 -199 -138q-115 -52 -237 -52q-110 0 -198 36q-89 36 -153 100q-62 62 -97 150 q-34 86 -34 190zM260 455q0 -161 92 -250q91 -88 240 -88q89 0 170 40q83 41 145 107q64 68 101 156q36 85 36 182q0 162 -92 251t-239 89q-91 0 -174 -42t-144 -109q-60 -65 -98 -156q-37 -87 -37 -180zM520 1219l289 268h139l146 -268h-127l-111 137l-197 -137h-139z" />
<glyph unicode="&#xf5;" horiz-adv-x="1306" d="M100 451q0 120 51 237q50 116 135 202q85 87 197 139q111 52 240 52q112 0 198 -35q89 -36 152 -99q64 -64 98 -149q35 -88 35 -190q0 -127 -51 -241q-51 -115 -137 -202q-85 -86 -199 -138q-115 -52 -237 -52q-110 0 -198 36q-89 36 -153 100q-62 62 -97 150 q-34 86 -34 190zM260 455q0 -161 92 -250q91 -88 240 -88q89 0 170 40q83 41 145 107q64 68 101 156q36 85 36 182q0 162 -92 251t-239 89q-91 0 -174 -42t-144 -109q-60 -65 -98 -156q-37 -87 -37 -180zM461 1255q51 107 108 162q58 56 131 56q48 0 80 -19q31 -19 66 -49 q34 -30 54 -45q18 -14 46 -14q38 0 65 31q29 34 62 91l101 -45q-49 -101 -108 -160q-57 -57 -132 -57q-47 0 -78 20q-32 21 -65 48q-32 30 -56 46q-20 13 -47 13q-34 0 -63 -30q-30 -31 -64 -91z" />
<glyph unicode="&#xf6;" horiz-adv-x="1306" d="M100 451q0 120 51 237q50 116 135 202q85 87 197 139q111 52 240 52q110 0 198 -36q91 -37 152 -98q64 -64 98 -149q35 -88 35 -190q0 -127 -51 -241q-51 -115 -137 -202q-85 -86 -199 -138q-115 -52 -237 -52q-110 0 -198 36q-89 36 -153 100q-62 62 -97 150 q-34 86 -34 190zM260 455q0 -161 92 -250q91 -88 240 -88q89 0 170 40q83 41 145 107q64 68 101 156q36 85 36 182q0 162 -92 251t-239 89q-91 0 -174 -42t-144 -109q-60 -65 -98 -156q-37 -87 -37 -180zM516 1219l53 194h185l-54 -194h-184zM879 1219l53 194h182l-53 -194 h-182z" />
<glyph unicode="&#xf8;" horiz-adv-x="1306" d="M-82 -10l246 207q-64 113 -64 254q0 120 51 237q50 116 135 202q85 87 197 139q111 52 240 52q113 0 196 -33q86 -34 148 -96l145 119h174l-247 -207q67 -110 67 -256q0 -127 -51 -241q-51 -115 -137 -202q-85 -86 -199 -138q-115 -52 -237 -52q-111 0 -197 36 q-85 36 -149 98l-144 -119h-174zM258 455q0 -43 8 -83q7 -37 23 -73l665 557q-88 88 -239 88q-93 0 -175 -42q-85 -43 -146 -110q-61 -66 -99 -157q-37 -87 -37 -180zM348 203q90 -90 242 -90q89 0 173 41q82 40 145 108q64 68 101 156q38 90 38 184q0 88 -31 162z" />
<glyph unicode="&#xf9;" horiz-adv-x="1255" d="M119 305q0 34 8 80q7 43 18 84l156 590h158l-162 -600q-5 -21 -10 -60q-4 -29 -4 -59q0 -105 62 -163t173 -58q63 0 122 25q61 26 112 71q50 44 90 109q37 60 59 139l160 596h158l-283 -1059h-158l47 172q-70 -80 -160 -138q-89 -57 -210 -57q-153 0 -245 89 q-91 88 -91 239zM586 1440l166 76l114 -297h-110z" />
<glyph unicode="&#xfa;" horiz-adv-x="1255" d="M119 305q0 34 8 80q7 43 18 84l156 590h158l-162 -600q-5 -21 -10 -60q-4 -29 -4 -59q0 -105 62 -163t173 -58q63 0 122 25q61 26 112 71q50 44 90 109q37 60 59 139l160 596h158l-283 -1059h-158l47 172q-70 -80 -160 -138q-89 -57 -210 -57q-153 0 -245 89 q-91 88 -91 239zM657 1219l275 297l164 -76l-291 -221h-148z" />
<glyph unicode="&#xfb;" horiz-adv-x="1255" d="M119 305q0 34 8 80q7 43 18 84l156 590h158l-162 -600q-5 -21 -10 -60q-4 -29 -4 -59q0 -105 62 -163t173 -58q63 0 122 25q61 26 112 71q50 44 90 109q37 60 59 139l160 596h158l-283 -1059h-158l47 172q-70 -80 -160 -138q-89 -57 -210 -57q-153 0 -245 89 q-91 88 -91 239zM502 1219l289 268h139l145 -268h-127l-110 137l-197 -137h-139z" />
<glyph unicode="&#xfc;" horiz-adv-x="1255" d="M119 305q0 34 8 80q7 43 18 84l156 590h158l-162 -600q-5 -21 -10 -60q-4 -29 -4 -59q0 -105 62 -163t173 -58q63 0 122 25q61 26 112 71q50 44 90 109q37 60 59 139l160 596h158l-283 -1059h-158l47 172q-70 -80 -160 -138q-89 -57 -210 -57q-153 0 -245 89 q-91 88 -91 239zM520 1219l53 194h185l-53 -194h-185zM883 1219l53 194h182l-53 -194h-182z" />
<glyph unicode="&#xfd;" horiz-adv-x="1175" d="M-154 -260l86 119q29 -23 76 -38q50 -16 86 -16q68 0 132 42q66 43 145 155l-193 1057h164l147 -883l570 883h178l-725 -1094q-113 -164 -214 -231q-103 -68 -220 -68q-66 0 -124 20q-57 20 -108 54zM604 1219l275 297l163 -76l-290 -221h-148z" />
<glyph unicode="&#xfe;" horiz-adv-x="1349" d="M-53 -328l489 1823h158l-168 -618q78 85 175 145q96 59 226 59q92 0 167 -31t133 -92q56 -59 88 -142q32 -84 32 -183q0 -142 -49 -261t-132 -208q-82 -88 -189 -138q-110 -51 -224 -51q-79 0 -145 22q-64 21 -113 57q-47 34 -83 83q-30 41 -56 101l-152 -566h-157z M311 444q0 -70 24 -130q25 -63 66 -104q45 -45 104 -70t134 -25q93 0 175 41q80 40 140 109q59 68 94 160q33 88 33 193q0 74 -21 134q-20 57 -62 102q-41 44 -94 66t-122 22q-88 0 -173 -42q-84 -41 -150 -110q-67 -70 -107 -159q-41 -91 -41 -187z" />
<glyph unicode="&#xff;" horiz-adv-x="1175" d="M-154 -260l86 119q29 -23 76 -38q50 -16 86 -16q68 0 132 42q66 43 145 155l-193 1057h164l147 -883l570 883h178l-725 -1094q-113 -164 -214 -231q-103 -68 -220 -68q-66 0 -124 20q-57 20 -108 54zM467 1219l53 194h185l-54 -194h-184zM829 1219l54 194h182l-53 -194 h-183z" />
<glyph unicode="&#x152;" horiz-adv-x="2318" d="M174 602q0 167 58 307q59 142 169 252q129 129 318 201t418 72h1290l-39 -148h-838l-131 -489h744l-39 -148h-744l-135 -502h848l-41 -147h-1161q-181 0 -323 48q-140 47 -238 145q-75 75 -115 176q-41 103 -41 233zM344 612q0 -99 31 -181q29 -77 88 -136 q72 -72 182 -109q107 -36 256 -36h182l306 1134h-273q-180 0 -332 -57q-151 -57 -262 -168q-85 -85 -132 -200q-46 -113 -46 -247z" />
<glyph unicode="&#x153;" horiz-adv-x="2131" d="M100 451q0 124 49 237q50 116 135 202q86 87 198 139q113 52 241 52q89 0 158 -23q72 -24 125 -65q52 -40 90 -95q36 -52 55 -118q40 65 85 116q48 54 110 95q66 43 135 66q73 24 161 24q104 0 178 -32q78 -34 128 -88q49 -53 77 -130q27 -73 27 -155q0 -56 -10 -106 q-9 -47 -29 -101h-827q-2 -14 -2 -18v-19q0 -144 86 -232q86 -87 233 -87q104 0 178 32q75 33 148 93l84 -105q-74 -63 -180 -111q-103 -47 -234 -47q-161 0 -274 78t-152 209q-35 -53 -89 -111q-50 -53 -113 -92q-62 -38 -136 -61q-75 -23 -157 -23q-106 0 -195 36 q-86 35 -151 100q-62 62 -97 150t-35 190zM260 457q0 -160 92 -250t240 -90q88 0 170 39t145 105t101 153q36 82 36 180q0 165 -92 257q-91 91 -239 91q-90 0 -174 -41q-82 -40 -145 -108q-61 -66 -98 -156q-36 -89 -36 -180zM1208 596h682q4 16 6 35q2 24 2 45 q0 54 -15 104q-15 48 -48 86q-33 37 -83 60q-48 22 -118 22q-77 0 -146 -27q-67 -26 -123 -76q-51 -46 -94 -112q-40 -63 -63 -137z" />
<glyph unicode="&#x178;" horiz-adv-x="1357" d="M244 1434h180l287 -723l675 723h207l-839 -883l-148 -551h-164l156 578zM655 1561l54 194h184l-53 -194h-185zM1018 1561l53 194h182l-53 -194h-182z" />
<glyph unicode="&#x2c6;" horiz-adv-x="1024" d="M412 1219l288 268h140l145 -268h-127l-110 137l-197 -137h-139z" />
<glyph unicode="&#x2dc;" horiz-adv-x="1024" d="M369 1255q51 107 108 162q58 56 131 56q48 0 80 -19q31 -19 66 -49q34 -30 54 -45q18 -14 46 -14q38 0 65 31q29 34 62 91l100 -45q-50 -103 -107 -160t-132 -57q-47 0 -78 20q-37 24 -66 48q-34 32 -55 46q-20 13 -47 13q-36 0 -64 -30q-27 -28 -63 -91z" />
<glyph unicode="&#x2000;" horiz-adv-x="929" />
<glyph unicode="&#x2001;" horiz-adv-x="1858" />
<glyph unicode="&#x2002;" horiz-adv-x="929" />
<glyph unicode="&#x2003;" horiz-adv-x="1858" />
<glyph unicode="&#x2004;" horiz-adv-x="619" />
<glyph unicode="&#x2005;" horiz-adv-x="464" />
<glyph unicode="&#x2006;" horiz-adv-x="309" />
<glyph unicode="&#x2007;" horiz-adv-x="309" />
<glyph unicode="&#x2008;" horiz-adv-x="232" />
<glyph unicode="&#x2009;" horiz-adv-x="371" />
<glyph unicode="&#x200a;" horiz-adv-x="103" />
<glyph unicode="&#x2010;" horiz-adv-x="839" d="M135 532l43 166h572l-43 -166h-572z" />
<glyph unicode="&#x2011;" horiz-adv-x="839" d="M135 532l43 166h572l-43 -166h-572z" />
<glyph unicode="&#x2012;" horiz-adv-x="839" d="M135 532l43 166h572l-43 -166h-572z" />
<glyph unicode="&#x2013;" horiz-adv-x="1083" d="M135 537l41 157h817l-41 -157h-817z" />
<glyph unicode="&#x2014;" horiz-adv-x="1841" d="M135 537l41 157h1575l-41 -157h-1575z" />
<glyph unicode="&#x2018;" horiz-adv-x="522" d="M270 979l52 186q35 131 104 194q68 62 192 85l17 -72q-90 -22 -135 -66q-46 -44 -58 -112h76l-59 -215h-189z" />
<glyph unicode="&#x2019;" horiz-adv-x="522" d="M238 1040q89 22 135 68q45 45 57 111h-76l60 215h188l-51 -185q-37 -131 -105 -195q-66 -62 -192 -83z" />
<glyph unicode="&#x201a;" horiz-adv-x="522" d="M-92 -178q91 23 135 67q45 45 57 111h-75l59 215h186l-49 -184q-38 -135 -105 -195q-69 -62 -192 -84z" />
<glyph unicode="&#x201c;" horiz-adv-x="931" d="M270 979l49 184q17 64 45 115q27 48 61 80q34 31 84 53q46 20 109 31l15 -70q-91 -23 -134 -67q-45 -47 -57 -111h74l-57 -215h-189zM680 979l49 184q18 68 44 115t62 80q33 31 83 53q45 20 108 31l16 -70q-91 -23 -134 -67q-44 -46 -56 -111h74l-58 -215h-188z" />
<glyph unicode="&#x201d;" horiz-adv-x="931" d="M223 1040q90 23 134 68q45 47 57 111h-74l57 215h189l-49 -185q-37 -132 -106 -195q-68 -62 -193 -83zM633 1040q90 23 134 68q44 46 56 111h-73l57 215h188l-49 -185q-37 -133 -105 -195t-194 -83z" />
<glyph unicode="&#x201e;" horiz-adv-x="931" d="M-92 -178q91 23 135 67q45 45 57 111h-75l59 215h186l-49 -184q-38 -135 -105 -195q-69 -62 -192 -84zM319 -178q93 23 135 67q44 46 56 111h-74l58 215h188l-49 -184q-38 -134 -106 -195q-69 -62 -191 -84z" />
<glyph unicode="&#x2022;" horiz-adv-x="978" d="M262 670q0 64 24 124q25 62 65 105q43 46 98 73q56 27 120 27q99 0 160 -60q62 -60 62 -165q0 -62 -25 -125q-22 -54 -66 -105q-42 -48 -97 -74q-59 -28 -120 -28q-97 0 -159 62t-62 166z" />
<glyph unicode="&#x2026;" horiz-adv-x="1503" d="M25 0l57 213h186l-57 -213h-186zM516 0l59 213h185l-58 -213h-186zM1010 0l57 213h186l-57 -213h-186z" />
<glyph unicode="&#x202f;" horiz-adv-x="371" />
<glyph unicode="&#x2039;" horiz-adv-x="671" d="M92 516l4 16l455 443l102 -86l-385 -383l168 -363l-129 -63z" />
<glyph unicode="&#x203a;" horiz-adv-x="671" d="M16 164l383 383l-168 362l129 64l215 -436l-4 -17l-452 -442z" />
<glyph unicode="&#x205f;" horiz-adv-x="464" />
<glyph unicode="&#x2122;" horiz-adv-x="1419" d="M258 1348l25 86h493l-24 -86h-201l-154 -545h-90l152 545h-201zM739 803l179 631h86l133 -347l315 347h104l-178 -631h-88l137 483l-317 -342h-10l-133 342l-138 -483h-90z" />
<glyph unicode="&#xe000;" horiz-adv-x="1054" d="M0 0v1055h1055v-1055h-1055z" />
</font>
</defs>
</svg>
